<?xml version="1.0" encoding="UTF-8"?>
<svg width="1200pt" height="1200pt" version="1.1" viewBox="0 0 1200 1200" xmlns="http://www.w3.org/2000/svg">
 <path d="m590.4 158.4c18 0 31.199 14.398 31.199 31.199 0 16.801-14.398 31.199-31.199 31.199-16.801 0-31.199-14.398-31.199-31.199 0-16.797 14.402-31.199 31.199-31.199zm187.2 90c0 18 14.398 31.199 31.199 31.199 18 0 31.199-14.398 31.199-31.199 0-16.797-14.398-32.398-31.199-32.398-18 0-31.199 14.398-31.199 32.398zm-127.2 129.6c0 18 14.398 31.199 31.199 31.199 18 0 31.199-14.398 31.199-31.199 0-18-14.398-31.199-31.199-31.199-16.797 0-31.199 13.199-31.199 31.199zm-310.8-129.6c0 18 14.398 31.199 31.199 31.199s31.199-14.398 31.199-31.199c0-16.797-13.199-32.398-31.199-32.398s-31.199 14.398-31.199 32.398zm126 129.6c0 18 14.398 31.199 31.199 31.199s31.199-14.398 31.199-31.199c0-18-14.398-31.199-31.199-31.199s-31.199 13.199-31.199 31.199zm-302.4-199.2c145.2-126 346.8-139.2 427.2-139.2 80.398 0 280.8 13.199 426 138 2.3984 2.3984 7.1992 3.6016 10.801 3.6016 4.8008 0 8.3984-2.3984 12-6 6-6 4.8008-16.801-1.1992-22.801-154.8-129.6-364.8-144-447.6-144-82.797 0-294 14.402-447.6 146.4-6 6-7.1992 15.602-1.1992 22.801 6 6 15.598 6 21.598 1.1992zm1028.4 135.6c-3.6016 45.602-21.602 74.398-40.801 104.4-31.199 49.199-66 105.6-66 256.8v430.8 1.1992 4.8008 3.6016c0 8.3984-7.1992 15.602-15.602 15.602-18 10.801-55.199 22.801-134.4 34.801-97.199 15.602-216 24-334.8 24h-6c-116.4 0-232.8-8.3984-327.6-22.801-85.199-13.199-122.4-26.398-138-37.199-7.1992-1.1992-12-7.1992-12-15.602v-438c0-152.4-34.801-207.6-66-256.8-19.199-30-37.199-60-40.801-104.4-2.3984-33.602 8.3984-64.801 32.398-85.199 25.199-22.801 60-31.199 96-24 63.602 12 139.2 74.398 135.6 296.4v85.199c16.801-6 43.199-10.801 84-16.801 70.801-9.6016 157.2-14.398 244.8-14.398 87.602 0 174 4.8008 243.6 14.398 39.602 4.8008 64.801 10.801 81.602 15.602v-85.199c-3.6016-223.2 72-284.4 135.6-296.4 36-7.1992 70.801 1.1992 96 24 24 20.402 34.801 51.602 32.402 85.199zm-590.4 632.4c176.4 0 301.2-20.398 326.4-32.398v-117.6-1.1992-48c-16.801 4.8008-43.199 10.801-81.602 15.602-69.602 9.6016-156 14.398-243.6 14.398-87.602 0-175.2-4.8008-244.8-14.398-40.801-4.8008-67.199-10.801-84-16.801v168c22.805 10.797 150.01 32.398 327.61 32.398zm-328.8-327.6v93.602c22.801 12 150 32.398 328.8 32.398 176.4 0 301.2-20.398 326.4-32.398v-93.602c-24-12-150-32.398-326.4-32.398-178.8 0-306 20.398-328.8 32.398zm-126 57.602v430.8c9.6016 7.1992 42 16.801 94.801 26.398v-633.6c2.3984-156-36-250.8-109.2-265.2-26.398-4.8008-51.602 1.1992-68.398 16.801-15.602 14.398-24 36-21.602 60 3.6016 37.199 18 61.199 36 91.199 30 49.199 69.602 112.8 68.398 273.6zm782.4 459.6c-1.1992-2.3984-1.1992-3.6016-1.1992-6v-182.4c-16.801 4.8008-43.199 10.801-81.602 15.602-69.602 9.6016-156 14.398-243.6 14.398-87.602 0-175.2-4.8008-244.8-14.398-40.801-4.8008-67.199-10.801-84-16.801v190.8c79.199 12 190.8 22.801 326.4 21.602 130.8 1.1953 247.2-9.6016 328.8-22.805zm208.8-884.4c-16.801-15.602-42-21.602-68.398-16.801-73.199 14.398-112.8 108-109.2 264v218.4 1.1992 410.4 1.1992c50.398-9.6016 84-19.199 94.801-26.398l-0.003907-427.2c0-160.8 38.398-223.2 70.801-273.6 18-30 33.602-52.801 36-91.199 0-24-7.2031-45.602-24-60z"/>
</svg>
