<?xml version="1.0" encoding="UTF-8"?>
<svg width="1200pt" height="1200pt" version="1.1" viewBox="0 0 1200 1200" xmlns="http://www.w3.org/2000/svg">
 <g>
  <path d="m286.08 1090.6v78h111.72l36-54h394.2l36 54h111.72v-1105.6h-689.64zm665.88 54h-74.758l-20.039-30h94.801zm-314.88-1057.6h315v1003.6h-315zm-327 0h315v1003.6h-315zm0 1027.6h94.801l-20.039 30h-74.762z"/>
  <path d="m608.88 650.88v-542.88h-278.04v961.56h278.04zm-24-24h-22.32v-76.199h22.32zm0-100.2h-46.32v124.2h46.32v394.68h-230.04v-913.56h230.04z"/>
  <path d="m933.84 108h-278.04v961.56h278.04zm-254.04 442.68h22.32v76.199h-22.32zm230.04 494.88h-230.04v-394.68h46.32v-124.2h-46.32v-394.68h230.04z"/>
 </g>
</svg>
