<?xml version="1.0" encoding="UTF-8"?>
<svg width="1200pt" height="1200pt" version="1.1" viewBox="0 0 1200 1200" xmlns="http://www.w3.org/2000/svg">
 <path d="m600 0c-331.37 0-600 268.63-600 600s268.63 600 600 600 600-268.63 600-600-268.63-600-600-600zm411.3 260.29c-43.355-39.012-80.039-63.742-88.754-69.457-8.0156-11.363-25.043-28.262-45.301-46.621 50.859 30.984 96.168 70.25 134.05 116.08zm-213.8 20.977c50.773 63.215 55.992 143.98 59.438 197.51l0.085937 1.2734c-31.008 31.441-142.75 130.29-163.5 148.6-65.977-38.773-193.73-65.605-216.98-70.273-16.32-52.57-42-142.95-47.773-207.96l-0.20312-2.1719c14.566-20.555 70.246-92.387 163.01-134.09 23.723 0.49219 142.56 18.191 205.93 67.117zm-583.27-19.598c4.1406-7.6562 20.531-31.402 85.094-102.28 40.992-28.031 85.586-50.137 132.57-65.734 5.3633-0.058594 10.895-0.097656 16.488-0.097656 47.27 0 90.77 2.3164 108.09 3.3711l20.891 100.69c-56.809 26.652-99.371 63.574-125.47 90.422-19.691 20.258-33 37.633-39.875 47.293-10.523-4.332-24.672-6.4688-42.84-6.4688-50.844 0-119.47 16.727-143.77 23.09-14.555-37.188-11.938-81.023-11.172-90.289zm-146.29 376.34c-0.90234-12.66-1.3438-25.426-1.3438-38.016 0-106.99 31.598-210.18 91.379-298.5 15.973-12.098 27.059-19.766 34.586-24.602-0.25391 21.18 1.8008 56.23 15.238 87.348-36.805 74.629-57.805 134.34-62.438 177.54-1.9922 18.574-0.52734 30.742 1.6094 38.449-29.172 18.383-57.133 50.004-70.98 66.926-2.4258-3.0469-5.1133-6.0977-8.0508-9.1445zm200.8 354.52-43.414-13.055c-48.551-47.93-86.914-103.62-114.07-165.57-30.719-100.71-27.312-137.45-26.113-144.57 6.7812-8.7852 39.098-49.523 71.723-70.559 16.453 24.48 66.996 93.098 131.41 117.02-1.3086 54.133 15.348 107.89 29.891 144.09 11.566 28.754 23.387 50.785 29.555 61.598-20.215 19.094-67.445 60.867-78.98 71.055zm100.59-75.66c-6.0352-10.043-63.238-107.79-60.047-202.6 9.4688-8.832 39.254-36.504 71.258-64.547 62.062-54.371 83.855-67.766 91.297-70.922 21.312 4.3086 161.26 33.684 219.76 73.355 14.496 38.426 44.184 179.22 48.758 201.1-21.168 24.625-86.316 96.516-155.45 133.54-83.566-5.5195-137.75-24.254-168.57-39.07-30.031-14.434-44.227-28.008-47-30.852zm230.68 216.54c-7.1406 0-14.293-0.14453-21.445-0.42188 21.898-5.6758 36.023-11.941 43.465-15.793 5.4492 1.9922 11.004 4.1523 16.812 6.3945 5.7109 2.2305 11.652 4.5234 17.855 6.8164-18.816 1.9961-37.762 3.0039-56.688 3.0039zm365.04-186.6-1.1758 6.7578c-3.4062 19.766-13.523 40.777-30.07 62.461-66.707 53.594-146.04 90.613-229.62 107.18-21.613-5.1367-39.984-12.254-57.758-19.164-6.3477-2.4609-12.406-4.8125-18.445-7.0078-24.422-38.438-27.73-80.809-28.141-94.535 71.676-40.152 137.55-113.55 157.62-137.02 26.34 3.7695 51.215 5.6992 73.992 5.6992 64.883 0 99.77-15.516 115.13-25.066 9.7812 19.895 21.469 53.293 21.938 99.828zm146.71-394.62c6.0703 11.93 14.242 32.113 21.406 63.887-1.7148 58.164-12.77 115.12-32.855 169.29-19.262 52.008-46.5 100.52-80.953 144.28-10.969 4.4023-21.504 7.9453-29.977 10.547-1.4414-50.27-15.098-86.184-25.801-106.89 61.945-53.605 70.523-190.61 71.652-219.09 31.309-16.188 59.75-43.773 76.527-62.016zm-36.422-194.48c3.7578 7.3438 7.3789 14.914 10.824 22.523 4.4766 37.5 14.41 123.55 14.41 151.08l-0.097656 2.0898c-14.594 16.402-42.504 44.93-73.043 61.234-41.195-54.406-119-100.33-149.59-117.09-3.2773-50.879-8.6641-134.41-58.02-201.6l92.965-66.422c17.281 11.578 97.852 67.688 162.55 148.18z"/>
</svg>
