<?xml version="1.0" encoding="UTF-8"?>
<svg width="1200pt" height="1200pt" version="1.1" viewBox="0 0 1200 1200" xmlns="http://www.w3.org/2000/svg">
 <g fill-rule="evenodd">
  <path d="m1139.7 614.16c-0.69531-5.7461-2.8086-10.141-7.5586-12.949-4.8477-2.8555-9.8398-6.2148-15.191-7.2852-13.547-2.7227-27.012-6.0117-41.039-6.2656-12.301-0.22656-24.277 2.2578-36.422 2.7617-15.227 0.63672-30.383 1.0938-45.613 2.6992-31.633 3.3359-63.445 4.8945-95.195 7.1641-4.3555 0.3125-5.5195-0.57422-5.7109-4.9219-0.43359-9.5898-0.53906-19.176-1.043-28.766-0.16797-3.3477 1.4141-5.1133 4.2227-5.4375 6.0469-0.70703 12.133-0.98438 18.203-1.3906 3.8984-0.26562 7.9453 0.097657 11.688-0.78125 6.1914-1.4531 8.6992-8.3516 4.9453-13.453-2.3047-3.1211-5.0508-6.2383-8.2812-8.293-10.094-6.4336-16.379-16.586-24.707-24.719-4.5-4.4023-8.8203-8.3398-14.93-9.8398-6.2891-1.5469-12.684-2.6758-18.949-4.2969-2.8203-0.73047-5.9766-1.6562-8.0156-3.5508-3.8047-3.5273-6.8164-7.8711-10.285-11.773-2.2812-2.5781-4.5117-5.293-7.1992-7.4023-12.434-9.7305-23.461-20.711-32.449-33.793-11.844-17.242-24.086-34.211-35.965-51.434-5.9297-8.5938-11.988-17.172-17.004-26.293-10.945-19.895-22.691-39.227-36.637-57.191-2.1367-2.7461-4.0664-5.6641-5.8906-8.6406-10.68-17.398-21.312-34.836-31.957-52.273-1.6914-2.7969-0.57422-4.668 3.0469-5.1133 3.4453-0.42188 6.9609-0.48047 10.285-1.3438 1.1641-0.3125 2.2695-2.4492 2.5664-3.9102 0.15625-0.82812-1.1992-2.5781-2.1953-2.9023-2.4492-0.79297-5.0742-1.043-7.6445-1.4297-6.6602-0.99609-7.1289-1.2969-7.1641-8.1953-0.035156-7.8359 0.38281-15.684 0.44531-23.531 0.023437-3.4688 0.46875-7.2461-0.74219-10.332-1.1523-2.9414-3.8164-6.6133-6.5039-7.3203-3.9258-1.0312-5.8906 3.457-6.8984 6.5742-1.8828 5.8555-2.7969 11.879 2.3984 17.039 1.3438 1.3438 2.7344 3.8516 2.3984 5.4609-1.2617 5.9414-3.0352 11.797-5.0156 17.543-0.9375 2.7344-3.9727 3.3477-6.5156 1.5703-1.7539-1.2227-3.0703-3.0859-4.8242-4.2969-0.92578-0.63672-2.5312-0.92578-3.5742-0.58984-3.2656 1.0664-4.6914 3.707-4.8711 7.0195-0.16797 2.9414 1.043 5.0273 4.0664 5.7734 3.7812 0.9375 7.5352 2.0039 11.352 2.7734 3.2031 0.64844 4.1523 2.8203 4.332 5.6172 0.10938 1.7266 0.625 3.8516-0.14453 5.1484-3.1094 5.2695-6.9258 10.246 1.6445 14.184 0.69531 0.32422 0.875 2.4258 0.81641 3.6836-0.78125 16.078 1.5859 32.207-1.5977 48.289-1.2461 6.3008-0.70703 13.02-0.45703 19.523 0.35938 9.5508 1.5703 19.078 1.7266 28.633 0.28906 17.879 0.085937 35.773 0.085937 53.664h-0.50391c0 21.383 0.023437 42.758-0.023438 64.141-0.011719 3.4805-0.046875 7.0078-0.68359 10.391-0.21484 1.1055-2.3867 2.6875-3.6016 2.6289-8.2422-0.33594-16.477-0.99609-24.695-1.668-15.805-1.2852-31.199 2.8086-46.836 3.5156-7.7773 0.34766-9.5156 1.7266-10.738 9.9258-0.32422 2.1484-0.52734 4.3438-0.49219 6.5156 0.15625 9.2656-0.42188 18.121-6.7305 25.934-3.168 3.9102-0.58984 9.0352 4.3672 9.9102 3.8281 0.67188 7.8242 0.39453 11.723 0.78125 5.4258 0.53906 6.9961 2.125 6.1445 7.4883-3.168 19.703-5.0742 39.625-9.8047 59.074-1.2227 5.0508-1.8828 10.273-2.5195 15.434-0.80469 6.4922-0.92578 13.078-2.0039 19.512-3.0469 17.988-6.4219 35.93-9.6836 53.867-0.9375 5.1016-1.2969 5.5312-6.875 5.832-6.5273 0.34766-13.078 0.43359-19.621 0.50391-5.5312 0.058594-9.3477 1.1055-11.93 7.4531-2.293 5.6758-4.1055 11.051-5.1953 17.125-1.9453 10.766-3.1211 21.492-3.2266 32.387-0.011719 1.7148-0.43359 3.4805-0.97266 5.1133-0.68359 2.0742-2.5195 2.7227-3.8633 1.0547-3.5156-4.3906-6.9492-8.9141-9.9375-13.68-3.6953-5.8906-6.5742-12.324-10.441-18.098-3.8281-5.7227-5.1953-11.746-5.2188-18.504-0.046875-12.648-0.51562-25.297-0.875-37.934-0.66016-23.543-1.4883-47.062-2.0156-70.609-0.3125-13.957-0.35938-27.926-0.13281-41.879 0.16797-9.5625 1.1523-19.129 1.5352-28.691 0.3125-7.8242 0.38281-15.66 0.28906-23.496-0.046875-3.6016-3.1914-5.0898-6.5742-3.3945-1.5469 0.78125-3 1.7773-4.4531 2.7461-12.289 8.2305-24.312 16.836-37.789 23.219-6.5156 3.0977-6.4688 9.1211-0.55078 13.176 7.7148 5.2812 16.441 7.5 25.512 9.3477 13.441 2.7461 13.246 3.168 13.273 16.645 0.085937 38.809-1.7656 77.664 2.1719 116.41 0.17969 1.7266 0.30078 3.5039 0.13281 5.2188-0.10938 1.0781-0.81641 2.1016-1.2617 3.1445-0.9375-0.73047-2.3164-1.2852-2.7617-2.2422-4.5977-9.8281-8.9414-19.766-13.523-29.578-7.7031-16.477-18.422-31.402-24.562-48.73-3.8867-10.98-8.6172-21.695-13.43-32.316-4.668-10.309-9.1445-20.844-15.121-30.395-8.5664-13.738-14.41-28.691-20.773-43.367-8.2812-19.164-15.301-38.867-22.848-58.344-1.7266-4.4648-3.4688-8.9414-5.1484-13.43-5.7852-15.516-11.664-30.996-17.293-46.586-3.1094-8.6055-6.0469-17.281-8.5547-26.074-4.5586-15.91-8.1953-32.102-13.199-47.855-8.9883-28.246-18.191-56.449-31.344-83.16-2.293-4.6562-4.4023-9.6484-5.293-14.711-1.9922-11.473-6.3828-22.633-4.957-34.609 0.14453-1.2344-0.13281-2.7227-0.74219-3.7812-0.57422-0.97266-1.8359-2.0508-2.8555-2.125-0.99609-0.058593-2.7852 0.94922-2.9648 1.7656-0.83984 3.7812-1.6914 7.6445-1.7266 11.484-0.21484 20.941-0.3125 41.891-0.17969 62.832 0.035156 7.0938-1.0781 13.703-3.625 20.387-7.5977 19.969-15.574 39.684-24.961 58.945-9.6133 19.727-20.305 38.496-34.176 55.488-7.4414 9.1328-14.34 18.695-21.73 27.863-5.1953 6.4336-10.801 12.539-16.273 18.758-17.844 20.258-35.723 40.488-53.566 60.758-1.1523 1.3086-1.9688 2.9141-3.2031 4.1406-4.0195 3.9727-8.0742 7.9219-12.277 11.711-4.1992 3.793-8.7852 7.1641-12.828 11.102-4.1523 4.043-8.207 7.3203-14.484 7.9336-4.1289 0.39453-8.0273 3.1094-12.047 4.7266-3.1133 1.3047-4.793 3.6797-5.0234 6.9922-0.17969 2.6055-0.28906 5.2422-0.070312 7.8359 0.48047 5.7344 2.2812 7.4141 8.2812 7.8359 5.6406 0.39453 11.316 0.42188 16.934 0.96094 5.5938 0.53906 11.125 2.1836 16.68 2.2188 37.957 0.21484 75.926 0.20313 113.88 0.035157 5.1484-0.023438 10.285-1.2461 15.434-1.9805 8.9883-1.2852 17.941-2.7227 26.941-3.8516 3-0.37109 6.1562-0.28906 9.1211 0.22656 1.2734 0.21484 2.9531 1.8594 3.2773 3.1562 1.4648 5.6875-0.44531 8.3281-6.1445 8.4375-11.785 0.20312-23.555 0.12109-35.34 0.22656-6.5391 0.058594-13.105 0.023438-19.633 0.43359-5.4961 0.34766-6.625 1.6328-6.8281 7.332-0.45703 12.191-0.32422 24.422-1.1641 36.59-0.64844 9.3945 2.5781 16.922 8.4844 23.809 1.5977 1.8594 3.7422 4.1875 3.7695 6.3242 0.097656 8.6875-0.43359 17.375-0.97266 26.051-0.30078 4.7539-1.4023 9.4688-1.5469 14.207-0.30078 10.031-0.35938 20.074-0.22656 30.109 0.15625 12.203-0.25391 24.312-3.2031 36.238-0.76953 3.1211-2.2422 4.8711-5.293 4.0938-10.055-2.5664-20.941-0.86328-30.516-6.3008-3.6133-2.0508-7.1641 0.19141-7.2617 4.4766-0.14453 6.0117 0.53906 12.047 1.0312 18.07 0.27734 3.4336 1.1055 6.8164 1.2617 10.246 0.14453 2.9297-1.4141 4.5352-4.5469 5.2422-9.8516 2.2188-9.8633 2.3516-10.223 11.398-0.12109 3.0469 0.011719 6.1094 0.097656 9.1562 0.39453 14.809 2.5781 29.398 5.3398 43.922 0.69531 3.625-0.16797 5.9766-4.3203 6.2031-3.8047 0.20312-6.9375 1.8008-8.0039 5.5938-1.5703 5.5664-2.0039 11.293 1.6211 16.32 3.5391 4.9219 7.4531 9.5508 11.09 14.398 1.2344 1.6445 2.5078 3.457 3.0703 5.3867 4.7539 16.234 9.2656 32.531 14.004 48.781 1.0938 3.7422 2.6875 7.3555 4.1523 10.98 3.3008 8.1484 8.8789 12.684 18.168 11.676 8.0156-0.875 15.602 1.2109 22.895 4.2852 12.215 5.1367 24.926 7.2227 38.125 6.9258 7.8477-0.17969 15.707 0.035157 23.555-0.058593 17.867-0.23828 35.594 0.40625 52.355 7.7266 1.5586 0.68359 3.3945 0.80469 5.1133 1.0195 23.762 2.9297 47.363 7.4414 71.52 6.3008 11.305-0.52734 22.859-1.1055 33.961 0.58984 11.762 1.8008 23.41 1.8242 35.148 2.207 8.7109 0.28906 17.484 0.55078 26.074 1.8711 19.883 3.0586 39.828 4.1055 59.93 3.6953 15.695-0.32422 31.43 0.32422 47.125-0.15625 19.598-0.58984 39.18-1.8828 58.766-2.9023 1.2969-0.070312 2.5781-0.39453 3.875-0.60156 21.07-3.3477 41.914-8.4609 63.48-8.0039 2.1484 0.046875 4.3086-0.63672 6.4688-0.9375 11.652-1.6328 23.27-4.043 34.98-4.7031 27.422-1.5469 54.887-2.2305 82.332-3.3008 3.4922-0.13281 6.9609-0.42188 10.441-0.68359 8.6641-0.67188 17.316-1.7031 25.98-1.9688 11.328-0.34766 22.691-0.046875 34.031-0.097656 3.4805-0.011719 7.2617 0.55078 10.391-0.57422 7.2344-2.6172 14.594-2.3867 21.961-2.1719 15.539 0.45703 26.605-6 33.289-20.172 4.2617-9.0352 8.1602-18.406 13.727-26.617 4.4883-6.625 8.0898-13.465 10.668-20.832 3.8867-11.113 8.1367-21.984 14.219-32.137 1.7656-2.9414 2.6406-6.4219 3.7578-9.7188 2.2305-6.6016 4.1406-13.32 6.5391-19.859 6.168-16.777 13.285-33.254 18.625-50.281 7.043-22.453 13.465-45.086 22.332-66.938 1.9688-4.8242 3.7305-9.8867 4.4531-15 0.96094-6.7188 4.1875-12.191 7.0938-18.059 3.8047-7.6797 7.1641-15.781 9.1328-24.07 1.1406-4.8125 1.1406-8.9414 6.2031-11.762 2.1719-1.2227 2.9883-5.0742 4.1641-7.8477 3.5508-8.3867 6.6016-16.883 11.363-24.863 5.3047-8.8516 9.4961-18.5 8.125-29.672zm-145.58-3.1914c0.35938-6.3008 1.2227-7.5977 7.4141-8.5781 5.5938-0.875 11.258-1.5469 16.906-1.6445 13.512-0.23828 27.035 0.28906 40.391-2.5781 1.668-0.35938 3.4688-0.25391 5.1953-0.13281 3.8633 0.26562 5.375 1.7539 5.543 5.8086 0.16797 3.9102 0.035157 7.8477 0.035157 11.773 0.26562 0.070312 0.53906 0.13281 0.80469 0.20312-1.3789 7.1992-2.5781 14.449-4.2109 21.602-0.70703 3.0977-2.7852 5.2695-6.4219 5.5312-5.1719 0.37109-59.137 10.355-64.234 9.0352-1.2109-0.3125-3.0859-2.3984-2.8789-3.2266 3.1836-12.535 0.76172-25.23 1.457-37.793zm-1.5977 52.102c17.461 0.097657 34.094-5.4844 51.289-7.0078 3.4453-0.30078 6.9102-0.43359 10.332-0.82812 2.4375-0.27734 5.6289-2.3867 6.8867 0.42188 0.79297 1.7656-0.79297 4.9062-1.8945 7.1406-1.7031 3.4805-3.5039 7.0547-6.0234 9.9375-1.8477 2.125-4.7148 4.0547-7.4297 4.5859-16.922 3.3242-34.234 4.4648-50.902 9.2773-2.0039 0.57422-4.3086 0.085938-6.4805 0.085938v0.23828c-1.2969 0-2.6055 0.097656-3.8984-0.023437-2.1133-0.19141-3.2031-1.6562-2.7109-3.5156 1.4297-5.4258 2.7734-10.934 4.957-16.055 0.82422-1.9883 3.8477-4.2695 5.875-4.2578zm-76.246-13.188c2.6172-11.652 2.6758-23.34 1.4531-35.09-0.43359-4.1523 1.668-5.2578 5.2578-5.543 18.238-1.4648 36.457-3.1211 54.707-4.5 6.6016-0.50391 7.4414 0.53906 7.7148 7.1992 0.035156 0.875 0 1.7383 0 2.6172v9.1562c0.19141 0.035156 0.39453 0.070313 0.58984 0.12109-1.1992 8.1484-2.2188 16.32-3.707 24.406-0.5625 3.0703-2.6172 5.4727-6.2539 5.6875-16.488 1.0195-32.977 2.0898-49.465 3.0859-1.7266 0.10937-3.4922-0.011719-5.2188-0.20313-4.7539-0.50391-6.207-1.9102-5.0781-6.9375zm1.4023 17.363c4.7773 0.035156 9.5625-0.035156 14.34-0.058594 7.8125-0.035156 15.672 0.53906 23.258-2.125 0.80469-0.27734 1.7266-0.44531 2.5664-0.34766 5.7227 0.69531 13.332-3.3711 16.801 2.3398 3.3477 5.5195-5.1836 21.395-11.773 23.832-5.6172 2.0742-11.617 3.4336-17.566 4.1758-5.5664 0.68359-11.281 0.14453-16.934 0.14453v0.011719c-1.7266 0-3.4805 0.058594-5.2188-0.011719-5.6055-0.22656-11.207-0.51562-16.824-0.79297-1.9688-6.0117 2.8203-10.477 3.625-15.863 0.3125-2.1484 0.85156-4.2617 1.2344-6.3945 0.63672-3.6602 3.0117-4.9453 6.4922-4.9102zm-22.836-57c0.40625-0.12109 0.83984-0.19141 1.2617-0.27734 12.539-2.4727 14.328-1.0078 13.992 11.531-0.023437 0.86328 0 1.7266 0 2.5938 0.26562 0.046875 0.52734 0.097656 0.78125 0.14453-1.3086 8.0625-2.1602 16.246-4.0547 24.168-1.9219 7.9922-9.707 11.281-16.945 7.6328-1.043-0.52734-1.7773-2.8789-1.6562-4.3086 0.40625-5.1602 0.92578-10.344 1.9805-15.395 1.4141-6.8047 2.9414-13.43 0.71875-20.426-0.91406-2.793 1.0781-4.8203 3.9219-5.6641zm-39.875 56.871c19.777 0.16797 19.777 0.16797 15.793 19.871-2.3984 11.891-5.543 14.762-17.82 16.488-4.6914 0.66016-9.3242 1.7266-14.027 2.2422-4.2852 0.45703-8.6289 0.61328-12.938 0.51562-3.3359-0.070313-4.5234-2.1016-3.5391-5.1836 1.957-6.1797 3.9609-12.336 5.8438-18.527 0.50391-1.6445 0.98438-3.4062 0.92578-5.1016-0.37109-11.316 2.832-10.922 12.758-10.547 3.0234 0.10938 6.0703 0.023438 9.1094 0.023438v0.22656c1.2891-0.007812 2.5859-0.019531 3.8945-0.007812zm17.051-11.016c-0.49219 0.80469-2.3516 1.0195-3.6133 1.0664-10.43 0.37109-20.855 0.67188-31.285 0.9375-3.1914 0.085937-4.5977-1.6797-4.6914-4.8242-0.13281-4.3086 0.97266-6.3242 4.4414-6.457 5.6406-0.22656 11.305-0.058594 16.945-0.058594v-0.046875c5.6523 0 11.305-0.16797 16.945 0.12109 1.3789 0.070312 3.8867 1.7773 3.793 2.4727-0.30078 2.3359-1.2852 4.7227-2.5352 6.7891zm-0.77734-18.855c-5.2305 0.20312-10.465 0.046875-15.695 0.046875-4.8008 0-9.6133 0.14453-14.398-0.035157-5.4727-0.20312-6.1562-0.9375-6.2891-5.9766-0.070313-2.6172 0.023437-5.2305 0.10938-7.8477 0.26562-8.6992 1.1875-10.656 9.0977-11.184 10.391-0.69531 20.879-0.15625 31.32 0.058594 2.6055 0.046875 3.5273 2.1953 3.4336 4.6094-0.19141 4.8008-0.3125 9.6016-0.74219 14.375-0.41797 4.5625-1.7734 5.75-6.8359 5.9531zm5.1328-34.367c-6.9609 0.058594-13.922 0.085938-20.867 0.3125-4.332 0.14453-8.7227 0.28906-12.961 1.0781-5.9141 1.1055-11.711 2.8203-17.566 4.2734-0.058594 5.832-0.023438 11.676-0.21484 17.496-0.070313 2.1484-0.55078 4.3086-1.1055 6.3945-0.70703 2.7461-2.4844 4.7656-5.4609 4.6914-13.391-0.3125-26.867 1.8594-40.188-1.5859-4.1406-1.0664-8.6172-0.76953-12.926-1.1875-4.5234-0.44531-6.9492-3.1562-5.125-6.8633 4.8008-9.7578 5.1602-20.062 5.2188-30.539 0.023437-2.7969 1.2969-4.8711 4.4531-5.4609 6.793-1.2617 13.367-3.3008 20.484-2.9883 9.9844 0.45703 19.992 0.12109 30 0.12109 9.5625 0 19.141 0.046875 28.703-0.011719 6.4922-0.035156 13.031 0.57422 19.262-2.207 1.5-0.67188 3.4062-0.53906 5.1367-0.60156 9.0977-0.34766 11.652 2.8555 9.5391 11.797-0.78906 3.4102-2.7812 5.2461-6.3828 5.2812zm3.9492 88.766c0.75781-4.668 1.1406-9.4062 1.9805-14.051 1.7031-9.6484 3.0977-10.703 12.707-10.379 5.9766 0.19141 7.2344 1.4414 5.5781 6.9375-1.8477 6.1797-4.5117 12.121-6.5898 18.238-1.5 4.4297-4.4297 5.8438-8.8672 5.6172-4.9297-0.25391-5.6602-1.1211-4.8086-6.3633zm-202.02-426.41c1.1875-0.046875 2.9883-0.12109 3.5039 0.58984 4.8359 6.6836 10.008 13.223 14.016 20.387 6.1797 11.039 13.043 21.527 20.387 31.836 9.5742 13.441 18.406 27.504 26.473 41.902 7.2461 12.938 14.664 25.598 23.617 37.5 12.023 15.996 23.172 32.641 34.355 49.246 8.8672 13.164 20.41 23.652 32.137 34.055 2.8672 2.543 5.6523 5.2695 8.0039 8.2812 1.7656 2.2578 2.7969 5.1016 4.1406 7.6914-2.7852 0.61328-5.5664 1.6211-8.3867 1.7656-5.6406 0.27734-11.316 0.085938-16.98 0.085938v-0.046875c-6.5391 0-13.066 0.023437-19.609 0-5.2305-0.023438-8.8672-2.3164-11.531-6.9961-4.7031-8.2695-10.754-15.109-18.215-21.504-10.055-8.6172-18.035-19.789-26.281-30.348-6.1211-7.8359-11.902-16.078-16.645-24.793-6.8398-12.551-13.738-25.285-18.551-38.676-9.2656-25.777-17.16-52.055-25.465-78.168-1.7031-5.3398-3.1094-10.668-2.7461-16.598 0.27734-4.5352-1.8711-9.2031-2.8086-13.848-0.13281-0.75391 0.35938-2.3516 0.58594-2.3633zm-2.4258 32.832c0.79297-0.023437 1.5703-0.046875 2.3633-0.070312 1.4766 5.3984 3.2383 10.754 4.3906 16.234 4.6211 21.793 11.832 42.816 18.938 63.852 2.207 6.5391 5.6406 12.672 8.6289 18.938 1.1172 2.3516 2.6758 4.5 3.8047 6.8516 10.922 22.871 24.805 43.68 42.48 61.969 7.7656 8.0156 14.953 16.598 22.367 24.949 0.86328 0.96094 2.0742 2.1133 2.1016 3.1914 0.023437 1.3672-0.69531 3.5898-1.6562 3.9609-1.9453 0.74219-4.2617 0.60156-6.4336 0.60156-28.766 0.035156-57.527 0.023437-86.305 0.023437-1.7383 0-3.4805-0.058594-5.2305-0.12109-3.707-0.13281-5.4961-2.1719-5.6055-5.7734-0.085937-3.0469-0.14453-6.0977-0.15625-9.1445-0.12109-54.047-0.25391-108.1-0.3125-162.13 0.015625-7.7852 0.41016-15.562 0.625-23.328zm-86.816 241.6c-0.070312-7.8125-0.12109-15.625-0.25391-23.449-0.12109-7.3672 0.40625-7.7031 8.8672-9.0703 15.18-2.4375 30.348-2.293 45.562-2.293 7.2461 0 17.363 2.7617 24.434 6.6133 2.6055 1.4141 5.3867 1.8359 7.1758-0.27734 3.3359-3.9492 7.5586-3.7422 11.914-3.7422 32.699 0 65.41-0.46875 98.09 0.19141 16.078 0.33594 32.113-0.94922 48.168-0.22656 13.453 0.60156 26.93 0.92578 40.367 1.5352 5.375 0.23828 10.379 2.1016 14.113 6.0234 5.9141 6.2383 11.27 13.031 17.27 19.188 3.9258 4.0195 8.6289 7.2461 12.84 11.004 0.86328 0.76953 1.7031 2.4102 1.4414 3.3242-0.25391 0.875-1.9336 1.8242-3.0469 1.8945-18.66 1.3086-37.332 2.4844-56.016 3.6836-12.203-0.30078-24.254-0.19141-36.457 1.5-14.062 1.957-28.57 1.5117-42.949-0.625-14.617-2.1719-29.41-3.625-44.172-4.1641-20.027-0.73047-40.117-0.88672-60.156-0.19141-20.578 0.70703-40.934-1.4141-61.188-4.043-8.7031-1.1133-18.242-1.2344-26.004-6.875zm-9.5898 164c6.8867-23.891 10.285-48.348 12.059-73.094 0.097656-1.2969 0.070312-2.6641 0.44531-3.8867 6.2383-20.051 6.793-41.113 10.766-61.559 1.3555-7.0078 2.3047-8.293 9.1914-7.9922 8.6641 0.37109 17.305 1.4297 25.969 2.0898 4.3438 0.32422 8.6992 0.5625 13.043 0.57422 28.789 0.035157 57.59-0.35938 86.363 0.15625 13.02 0.23828 26.062 1.8242 39 3.5391 19.117 2.5312 38.027 2.2578 57.215 0.046875 14.641-1.6797 29.594-0.75781 44.398-0.73047 3.1562 0 5.6172 4.8008 5.1953 9.2148-0.3125 3.2656-2.832 3.9258-5.5195 4.4648-19.812 3.9727-39.875 2.8555-59.879 3.0234-10.031 0-20.09-0.42188-30.086 0.13281-8.1953 0.45703-16.355 1.8359-24.457 3.2773-4.2227 0.74219-6.7422 3.9609-7.2617 8.2578-0.37109 3.0234-0.35937 6.0977-0.28906 9.1445 0.17969 7.0547-0.70703 13.789-3.625 20.387-2.0625 4.7031-3.1211 9.8984-4.2109 14.965-0.99609 4.6211 1.2852 7.2227 6.2773 7.8945 0.43359 0.058593 0.875 0.10938 1.3086 0.097656 18.266-0.22656 36.215 4.2344 54.602 3.0586 11.484-0.73047 12.949 1.5977 11.352 12.66-0.99609 6.875-1.4141 13.906-3.168 20.594-2.3164 8.7852-5.4961 17.375-8.7852 25.859-0.57422 1.5-3.3711 2.6406-5.3281 3.0352-13.621 2.7461-27.238 5.4375-40.934 7.7656-6.3945 1.0781-12.91 1.4648-19.402 1.8828-9.5039 0.61328-19.152-1.2227-28.488 2.375-2.2422 0.86328-5.1602 0.20312-7.7383-0.035156-6.8984-0.625-13.777-1.8828-20.676-2.0156-16.141-0.3125-32.316-0.82812-48.406 0.070313-18.121 1.0078-35.508-2.7852-53.09-5.6406-4.8672-0.78125-7.2305-4.7773-5.8398-9.6133zm-46.414 68.305c0.53906-2.0625 0.3125-4.332 0.51562-6.4922 0.97266-10.344 1.9922-20.676 2.9648-31.008 0.22656-2.4492 1.6094-3.7422 3.8516-4.6328 5.2188-2.0742 10.32-4.4766 15.551-6.5156 1.5469-0.60156 3.4453-0.81641 5.1016-0.60156 9.4453 1.2227 18.84 3 28.32 3.8984 8.6406 0.82812 17.375 1.043 26.062 1.043 11.82 0 23.387 0.78125 34.691 4.8594 3.9492 1.4297 8.5664 1.2344 12.898 1.332 9.1445 0.21484 18.301-0.046875 27.434 0.23828 6.4336 0.20312 8.3047 2.207 6.8867 7.9805-3.4219 13.871-4.1992 28.273-9.3945 41.82-3.3945 8.8789-5.3984 18.312-7.7383 27.562-1.8945 7.4883-6.6016 10.512-14.074 10.234-3.8984-0.14453-7.8242 0.26562-11.746 0.26562-17.426 0.035157-34.848 0.011719-52.273 0.011719v0.046875h-53.578c-3.0469 0-6.1094 0.070313-9.1445-0.097656-7.4648-0.39453-8.5195-1.1289-8.4844-8.3516 0.078125-13.863-1.4688-27.867 2.1562-41.594zm-40.551 8.5781c0-3.9102-0.13281-7.8359 0.035157-11.746 0.13281-2.9141 0.67188-5.8203 1.0195-8.7344 4.3672 0.50391 4.2969 4.6914 5.9766 7.3555 6.0117 9.5391 11.555 19.391 17.82 28.777 4.8828 7.332 2.6055 15.059 2.3281 22.703-0.035156 0.86328-1.7148 1.6914-2.6992 2.4609-0.3125 0.23828-0.81641 0.3125-1.2344 0.32422-18.551 0.79297-18.156 3.0117-21.395-13.906-1.7031-8.8906-1.7539-18.086-2.543-27.145 0.22266-0.050781 0.46484-0.066406 0.69141-0.089844zm-25.102-220.91c-1.6094-0.52734-3.5742-0.046875-5.125-0.64844-3.5391-1.3555-6.9375-3.1094-10.379-4.6914 0.60156-4.5586 4.9336-5.4727 7.8125-7.5469 5.9531-4.2852 12.277-8.0742 18.59-11.855 1.2461-0.74219 3.1914-0.82812 4.6445-0.50391 0.53906 0.12109 0.68359 2.3047 0.86328 3.5625 0.13281 0.83984 0.023438 1.7266 0.023438 2.2188-0.27734 2.9648-0.43359 5.5664-0.78125 8.1484-2.0078 15.266-2.7266 15.586-15.648 11.316zm-36.625 87.059c3.7812-1.0195 6.5625 0.14453 8.5781 3.8984 6.9492 12.984 14.566 25.621 21.145 38.785 7.1758 14.375 13.598 29.16 20.09 43.871 1.3555 3.0703 2.1484 6.5898 2.3164 9.9492 0.33594 6.9609-0.011718 13.957 0.097656 20.93 0.28906 18.66-1.7656 37.488 3.5273 55.836 0.89844 3.1094 0.13281 5.4258-3.1094 5.7461-11.676 1.1758-23.387 2.125-35.09 3.0352-2.543 0.19141-4.0195-1.4883-4.332-3.9102-0.27734-2.1484-0.96094-4.7031-0.13281-6.4453 2.7852-5.8203 2.9648-11.027-0.40625-16.824-1.4648-2.4961-0.085938-5.8672 2.4102-8.2578 1.5352-1.4648 2.7969-3.3008 3.875-5.1484 0.875-1.5234-1.2969-4.9688-3.1094-4.8477-2.5547 0.15625-5.293 0.30078-7.5703 1.2969-10.871 4.8008-22.262 3.1914-33.527 3.0234-3.6719-0.058594-5.4727-2.2188-5.5312-5.832-0.097657-5.2305-0.15625-10.465-0.20312-15.695-0.085938-8.2695 0.20312-16.512-2.2578-24.637-1.1055-3.6602-0.875-7.7656-0.92578-11.676-0.10938-10.465-0.035156-20.93-0.035156-31.402h-0.81641c0-11.773-0.035157-23.543 0.011718-35.316 0.023438-5.8906 0.19141-6.4062 6.1562-8.2422 9.543-2.9141 19.191-5.5312 28.84-8.1367zm-1.8477 161.84c-1.6914 0.15625-3.4336 0.15625-5.1367 0.023437-3.9102-0.3125-5.2305-1.8242-5.207-5.7344 0.035156-3.8516 1.1055-4.9062 5.5547-5.2695 1.2734-0.10938 2.5664-0.011718 3.8516-0.011718 4.5352-0.070313 5.5078 0.79297 5.5781 4.8359 0.074219 4.332-0.99219 5.8203-4.6406 6.1562zm4.5938 15.336c0.10938 7.0078-1.0938 8.5195-7.6562 9.625-4.4531 0.75781-6.2031-0.69531-6.5742-5.5078-0.097656-1.2969-0.13281-2.6055-0.10938-3.8984 0.085938-6.3359 1.2734-7.4531 7.7539-7.3203 5.5781 0.10547 6.5039 1.1133 6.5859 7.1016zm-28.727-12.852c-3.3359 0.20312-4.7031-1.5352-4.8008-6.0469-0.13281-5.7617 1.2734-7.3672 6.3594-7.332 4.2461 0.035156 5.8906 1.4141 5.9531 4.9922 0.097656 5.6523-2.0508 8.0508-7.5117 8.3867zm6.2031 15.828c-0.48047 2.5938 0.42188 6.2656-3.9375 6.8047-3.457 0.42188-6.0977-2.0898-6.9102-6.2773-0.85156-4.3789 0.73047-7.1172 4.4883-7.7383 4.7539-0.76953 6.4922 1.1289 6.3594 7.2109zm-121.59-567.13c1.0547 1.7383 2.375 3.3711 3.1562 5.2305 11.594 27.324 20.508 55.523 28.285 84.168 6.1445 22.656 10.738 45.805 20.293 67.5 4.3789 9.9492 7.5352 20.438 11.258 30.672 2.5312 6.9609 5.0039 13.945 7.668 20.855 7.6562 19.883 14.93 39.949 23.27 59.543 6.6016 15.504 12.504 31.414 22.078 45.539 6.0859 8.9883 10.141 18.984 14.184 32.137-4.0195-5.0273-6.4219-7.8359-8.6172-10.801-3.7422-5.0508-7.957-8.5938-14.82-9.4062-8.0898-0.96094-16.02-3.4336-23.953-5.5078-1.8711-0.49219-4.3438-1.6562-5.0273-3.1797-6.1328-13.812-14.773-26.543-17.723-41.746-0.89844-4.668-3.0117-9.0977-4.3203-13.703-1.6445-5.832-2.9414-11.746-4.5469-17.578-1.2734-4.5977-2.0273-9.5508-4.332-13.609-7.6914-13.535-11.16-28.402-13.957-43.367-8.2578-44.125-15.938-88.355-24.035-132.5-2.7461-15-6.1328-29.879-9.1328-44.832-0.58984-2.9141-0.74219-5.9297-1.0938-8.8906 0.45312-0.17188 0.91016-0.35156 1.3672-0.51953zm-6.2188 228.43c0.79297-6.0117 0.68359-12.18 0.66016-18.277-0.21484-53.195-0.51562-106.39-0.78125-159.59-0.035156-6.7812 0.15625-13.559 0.33594-20.629 1.5703 0.50391 2.2188 0.55078 2.2695 0.74219 1.3789 6.3477 2.9023 12.672 3.9961 19.066 5.2695 30.926 10.129 61.934 15.742 92.797 3.8984 21.422 8.6523 42.695 13.297 63.984 1.1875 5.4961 2.8086 11.051 5.2188 16.105 4.7148 9.8633 9.5273 19.523 10.031 30.816 0.14453 3.3242 2.3047 6.5273 3.3359 9.8516 1.6562 5.3867 3.0352 10.859 4.7148 16.234 1.4141 4.5469 3 9.0586 4.6914 13.512 0.92578 2.4375 2.3633 4.668 3.3594 7.0781 2.4375 5.9414 4.7539 11.941 7.1055 17.914-5.832 4.3906-12.504 1.2617-18.758 2.0391-6.9102 0.86328-13.871 1.4414-20.832 1.7773-9.9961 0.49219-20.016 0.68359-30.023 0.9375-3.6836 0.097657-5.5781-1.8945-5.8555-5.5078-0.070313-0.86328-0.21484-1.7383-0.19141-2.6055 0.69922-28.754-2.1172-57.543 1.6836-86.246zm-16.281 71.578c-1.2852 1.0312-3.1094 1.7148-4.7656 1.9336-8.9883 1.1992-18.145 1.5703-26.977 3.4336-25.465 5.3516-51.18 1.2617-71.461 2.7734-17.891 0-30.551-0.53906-43.141 0.13281-15.77 0.83984-31.164-2.0898-46.727-3.168-3.6602-0.25391-5.5781-2.1836-5.832-5.7227-0.27734-3.7422 2.4492-6.5391 6.3945-6.6367 1.2852-0.035156 2.5938 0.22656 3.8867 0.39453 14.641 1.957 29.27 3.9727 43.922 5.8672 3.0117 0.39453 6.0703 0.51562 9.1094 0.51562 26.988 0.035156 53.988 0.058593 80.965-0.023438 6.4922-0.023437 12.66-1.4023 19.055-3.0586 11.184-2.9023 22.766-5.4375 34.609-4.5 2.2188 0.16797 4.8242 0.78125 4.5117 3.4219-0.20313 1.6875-2.0391 3.4141-3.5508 4.6367zm-8.5469-18.441c-9.9258 0.30078-19.824 2.0273-29.711 3.3125-11.219 1.4531-22.379 3.2031-33.602 4.5977-3.8633 0.48047-7.8242 0.51562-11.734 0.38281-12.168-0.43359-24.336-1.7656-36.469-1.3906-13.633 0.40625-26.867-1.7891-40.199-3.6484-1.0781-0.14453-2.6641-1.0781-2.8555-1.9219-0.22656-0.97266 0.52734-2.5938 1.3789-3.3125 23.305-19.824 43.02-42.949 61.738-66.996 2.1367-2.7344 4.3555-5.4727 6.8867-7.8359 21.793-20.387 38.27-45.18 56.293-68.617 9.4805-12.324 17.074-26.219 22.895-40.945 6.2148-15.758 13.188-31.211 19.836-46.789 0.52734-0.15625 1.0547-0.3125 1.5703-0.46875 0.10938 7.7383 0.3125 15.469 0.28906 23.195-0.15625 47.496-0.27734 94.992-0.63672 142.48-0.058594 7.7891-1.5117 15.562-1.9219 23.363-0.53906 10.43-0.73047 20.879-0.96094 31.32-0.25391 12.426 0.96875 12.855-12.797 13.277zm-47.016 85.789c0.73047-9.9727 0.3125-20.016 0.5625-30.035 0.13281-5.1719 0.82812-5.8906 6.2031-5.9297 15.695-0.12109 31.391-0.046875 47.102-0.046875v0.16797c11.34 0 22.68 0.19141 34.008-0.070313 7.8359-0.16797 15.637-1.1875 23.461-1.4297 16.547-0.50391 33.145-1.4766 49.645-0.74219 6.4688 0.28906 13.824 1.0664 19.586 5.9648 1.7383 1.4766 4.8008 1.7539 7.2969 1.9219 5.9141 0.40625 9.5508 3.0117 11.426 8.8555 1.2969 4.043 3.6836 7.7539 5.7227 11.531 1.2344 2.2812 2.9531 4.3086 4.1289 6.625 6.5742 13.02 5.4258 15.863-9.3359 18.168-12.383 1.9336-24.938 3.1094-37.465 3.6484-16.078 0.69531-32.137 0.89844-48.238 2.1484-22.535 1.7539-45.324 1.1523-67.969 0.38281-9.457-0.32422-19.078-1.6094-28.465-2.9414-13.012-1.8281-18.434-7.7812-17.668-18.219zm163.36 195.12c0.55078-0.96094 1.9062-1.7383 3.0234-2.0273 1.6445-0.42188 3.4219-0.45703 5.1367-0.42188 6.2031 0.15625 9.8281 6.5742 6.1445 11.797-1.3555 1.9219-5.1016 2.1719-5.8203 2.4375-8.4219-0.24219-11.664-6.1797-8.4844-11.785zm-0.92188-17.977c-0.058594-5.2305 1.2344-6.4805 6.8867-6.6484 7.3555-0.21484 9.4219 1.3438 9.3242 7.043-0.10938 5.3164-2.0391 6.8984-8.3398 6.8516-6.2148-0.058594-7.8008-1.5078-7.8711-7.2461zm16.258-23.148c-0.10937 4.9219-1.5703 6.2539-6.2773 6.5625-5.207 0.34766-10.441 0.26562-15.672 0.28906-8.7109 0.035156-17.426 0.011718-26.137 0.011718-0.023437 0.3125-0.046875 0.625-0.058594 0.9375-21.277-1.3086-42.602-2.0898-63.805-4.0781-18.145-1.6914-36.156-4.7773-53.484-10.895-6.9844-2.4727-8.7109-3.6953-7.3438-9.9375 4.6562-21.156 1.1992-42.469 2.1016-63.684 0.25391-6.0352 1.4141-12.035 1.8594-18.07 0.49219-6.4922 0.57422-13.02 0.96094-19.523 0.33594-5.7344 1.2734-6.9375 7.0938-7.0547 6.0586-0.12109 12.145 0.43359 18.215 0.82812 7.8008 0.52734 15.602 1.7383 23.387 1.6914 23.914-0.12109 47.809 0.33594 71.734-2.4727 13.645-1.6094 27.742 0.64844 41.641 1.2109 2.5664 0.10938 3.8398 1.8359 4.0547 4.1992 0.19141 2.1602 0.085937 4.3555 0.058594 6.5273-0.21484 17.426-0.48047 34.848-0.66016 52.262-0.10938 10.008 0.50391 19.895 1.9688 29.891 1.4922 10.246 0.59375 20.867 0.36328 31.305zm-28.727 26.535c-1.8711 1.3086-4.9688 0.88672-7.9336 1.2734-7.8125-1.2617-15.949-2.4961-24.035-4.0078-0.83984-0.15625-2.0898-2.0039-1.9453-2.8555 0.23828-1.4141 1.4141-3.793 2.2695-3.8164 10.402-0.32422 20.82-0.39453 31.223-0.21484 1.1406 0.023437 3.2773 2.1719 3.1445 3.1094-0.29688 2.3086-1.043 5.3359-2.7227 6.5117zm2.543 16.449c0.011719 5.3867-1.3555 6.8281-6.8281 7.1055-0.86328 0.046875-1.7266 0.011719-2.8906 0.011719-7.8242-0.99609-15.949-1.9062-24.012-3.1914-1.2109-0.19141-2.7852-1.9688-3.0703-3.2656-0.46875-2.0391-0.011719-4.3086 0.10937-6.4688 0.15625-2.5781 1.6562-3.8516 4.1523-3.9492 1.7266-0.070313 3.4805-0.12109 5.1836 0.070312 6.8516 0.76953 13.703 1.7266 20.566 2.4375 5.3398 0.56641 6.7773 1.9727 6.7891 7.25zm-69.082-14.316c2.9531 0.57422 5.8789 1.2969 7.1055 1.5703 3.5508 0 5.293-0.046875 7.0312 0.011719 9.1328 0.28906 9.7695 0.96094 9.3008 9.625-0.25391 4.668-2.0625 6-6.8047 4.7891-5.4609-1.3906-10.906-2.8438-16.309-4.3906-4.4297-1.2617-5.3398-2.7227-5.1719-7.6211 0.10547-3.4062 1.5352-4.6289 4.8477-3.9844zm-3.5508-12.789c-0.070312-0.19141 1.2109-1.3438 1.7891-1.2852 7.7383 0.83984 15.469 1.7773 23.184 2.8203 0.46875 0.058593 1.1172 1.2852 1.0664 1.9219-0.035157 0.625-0.79297 1.6211-1.3555 1.7148-2.5547 0.43359-5.1484 0.60156-9.9609 1.1055-3.0117-0.78125-8.0156-1.9805-12.938-3.4688-0.83984-0.26562-1.3789-1.7773-1.7852-2.8086zm-32.438 9.082c5.9766 0.34766 11.965 0.76953 17.844 1.8125 1.2734 0.22656 2.6523 3.1094 2.9141 4.9219 0.37109 2.6289-1.7656 3.5742-4.1992 3.5898-2.1602 0.011719-4.3203 0-8.4375 0-1.4883-0.13281-4.957-0.27734-8.3516-0.80469-3.0703-0.46875-4.1875-2.7617-4.0078-5.6523 0.15625-2.5703 1.8984-4.0117 4.2383-3.8672zm-1.4414-11.445c0.80469-0.81641 1.6797-2.4102 2.3984-2.3398 5.543 0.53906 11.039 1.3672 16.547 2.2422 0.625 0.097656 1.1055 1.0664 1.6562 1.6445-0.86328 0.5625-1.7148 1.5859-2.5938 1.5977-2.5938 0.046875-5.1719-0.3125-7.7656-0.50391 0 0.046875 0 0.10938-0.011719 0.15625-2.5938-0.13281-5.207-0.085937-7.7539-0.51562-0.91406-0.16016-1.6602-1.4922-2.4766-2.2812zm-15.516-1.7891c-7.1758-1.7539-14.676-3.5039-22.105-5.5078-0.79297-0.21484-1.7656-2.0273-1.6094-2.9023 0.14453-0.76953 1.9336-1.957 2.7109-1.7656 7.4883 1.8008 14.941 3.7812 22.344 5.9141 0.97266 0.27734 1.5859 1.7539 2.3633 2.6758-1.0625 0.45703-2.1172 0.90234-3.7031 1.5859zm2.5078 18.84c-0.48047 0.58984-1.5 1.2617-2.125 1.1406-7.2109-1.4297-14.449-2.7969-21.562-4.6328-3.1094-0.79297-4.8125-5.6641-2.9648-8.5312 0.89844-1.3906 3.3828-1.7539 4.6328-2.3398 6.8281 1.3672 12.84 2.4258 18.781 3.8164 3.9609 0.93359 5.8438 7.332 3.2383 10.547zm-44.352-33.938c1.5586-0.23828 3.3594-0.57422 4.7031-0.011719 1.2617 0.52734 2.0898 2.1484 2.9414 3.1094-0.74219 1.3438-0.96094 2.4102-1.5586 2.6875-2.3516 1.1172-6.0586-0.91016-6.8281-3.7305-0.16797-0.60156 0.37109-1.9805 0.74219-2.0547zm-0.74219 20.82c0.14453-2.4375-0.19141-5.543 3.625-5.3047 2.9297 0.19141 4.3672 2.3164 4.7266 5.0898 0.15625 1.2461 0.023438 2.5312 0.023438 3.8047h0.070312c0 0.43359 0.046875 0.85156-0.011719 1.2734-0.27734 2.207-0.91016 4.6094-3.6719 3.8281-1.7266-0.49219-3.4922-2.125-4.4297-3.707-0.76562-1.3008-0.44141-3.3164-0.33203-4.9844zm-18.637-25.285c0.74219-0.22656 1.6797 0.14453 3.8984 0.40625 0.74219 0.12109 2.8672 0.44531 4.9805 0.80469 2.0508 0.34766 3.2148 1.5586 1.9922 3.4805-0.80469 1.2617-2.543 2.9648-3.6016 2.7969-2.8906-0.45703-5.7227-1.6328-8.4258-2.8906-0.86328-0.40625-1.7656-2.0039-1.6328-2.9023 0.11328-0.71094 1.7305-1.3711 2.7891-1.6953zm9.8516 25.332c-0.035156 0.43359 0 2.1602-0.37109 3.8047-0.45703 2.0625-2.0039 2.5312-3.8047 1.7031-1.1289-0.51562-2.6641-1.1523-3.0469-2.125-1.5469-3.9102-2.8203-7.957-3.8984-12.023-0.13281-0.51562 1.4766-2.1602 2.2422-2.1367 6.0703 0.19141 8.6523 2.6992 8.8789 8.2188v2.5586zm-37.391 84.375c-0.43359-3.0703 1.9805-5.0391 4.7148-3.7695 11.184 5.2188 22.871 7.9219 35.23 8.2305 3.793 0.097656 8.0391 0.97266 11.219 2.9023 6.7305 4.0938 14.027 4.1992 21.395 4.9336 22.066 2.207 44.34 2.0898 66.203 6.7695 8.0273 1.7148 16.465 1.5859 24.707 2.207 12.156 0.92578 24.312 1.8008 36.469 2.6406 3.9102 0.27734 7.8359 0.51562 11.746 0.52734 15.707 0.058594 31.414-0.15625 47.113 0.12109 7.3789 0.13281 14.762 1.1055 22.129 1.7383 1.2969 0.12109 2.5781 0.63672 3.8633 0.625 27.023-0.20312 54.047-0.38281 81.07-0.78125 6.0977-0.085938 12.168-1.1289 18.254-1.4023 27.434-1.2617 54.875-2.3633 82.309-3.625 4.7773-0.21484 9.5391-0.99609 14.316-1.3438 7.8125-0.58984 15.637-1.0078 23.461-1.5469 11.723-0.80469 23.438-1.7539 35.16-2.4375 6.5273-0.38281 13.066-0.17969 19.598-0.57422 9.5508-0.57422 19.066-1.6445 28.621-2.1484 9.1445-0.46875 18.301-0.80469 27.445-0.61328 16.621 0.34766 32.941-1.8711 49.188-4.957 1.7031-0.32422 3.457-0.66016 5.1836-0.60156 19.285 0.66016 37.859-4.9453 56.93-6.2148 9.5391-0.64844 19.094-2.2188 28.609-2.0625 11.977 0.20312 23.426-1.4766 34.656-5.375 3.2891-1.1523 6.6133-2.3164 10.02-2.9023 1.0547-0.17969 3.6133 1.8125 3.4805 2.3633-1.4766 6.6953-3.168 13.367-5.2305 19.922-0.40625 1.2969-2.5195 2.1484-3.9844 2.9766-0.69531 0.39453-1.7031 0.27734-2.5664 0.32422-22.609 1.0195-45.227 2.0391-67.848 3.0586-0.023438-0.33594-0.058594-0.67188-0.085938-1.0195-11.688 1.1055-23.363 2.4375-35.074 3.2266-8.2578 0.55078-16.57 0.14453-24.84 0.57422-7.3555 0.38281-14.676 1.3555-22.02 2.0508-12.121 1.1406-24.238 3.0586-36.383 3.2383-22.32 0.34766-44.281 3.1914-66.301 6.4219-19.812 2.9141-39.816 4.5234-59.746 6.5039-39.949 3.9844-79.992 5.2422-120.16 4.8945-57.145-0.49219-114.3-0.38281-171.45 0.023437-13.223 0.097656-26.016-2.1602-38.902-4.0547-13.777-2.0273-27.395-5.2188-41.16-7.3555-10.703-1.6562-21.562-2.3398-32.316-3.7188-4.2617-0.53906-8.7734-1.0664-12.551-2.8906-10.754-5.1367-22.008-7.8125-33.73-9.2891-5.5938-0.70703-11.172-2.0898-16.559-3.793-6.6133-2.0977-11.172-6.5391-12.191-13.797zm930.98-154.07c-0.70703 2.5195-1.5352 5.0039-2.3516 7.4883-7.957 24.434-15.637 48.973-23.965 73.273-5.5078 16.066-12.035 31.801-17.914 47.734-2.7109 7.3438-5.0039 14.855-7.5234 22.273-0.83984 2.4727-1.3906 5.1836-2.7852 7.3203-7.9688 12.156-12.203 25.922-17.449 39.266-0.48047 1.2109-0.875 2.5312-1.6445 3.5508-8.8906 11.93-13.453 26.23-21.445 38.688-5.6523 8.8203-13.234 13.344-23.773 13.043-7.8477-0.22656-15.551 1.043-23.34 2.0039-10.309 1.2617-20.879 0.3125-31.332 0.3125-14.844 0.35938-29.652 0.23828-44.27 3.6016-3.3359 0.76953-6.9492 0.25391-10.43 0.39453-19.164 0.82812-38.316 2.1484-57.48 2.375-18.84 0.22656-37.391 2.2305-55.848 5.7227-0.85156 0.15625-1.7266 0.27734-2.6055 0.22656-20.711-0.91016-40.57 5.0508-60.875 7.2227-22.078 2.3633-44.328 3.4922-66.539 4.1406-23.531 0.68359-47.125 0.68359-70.656-0.035156-15.191-0.46875-30.324-2.8438-45.504-4.2227-6.9375-0.625-13.895-1.1172-20.855-1.3203-9.9961-0.28906-20.039 0.5625-29.879-2.3281-2.8438-0.82812-6.0586-0.43359-9.1094-0.44531-11.34-0.046874-22.703-0.39453-34.02 0.058594-21.059 0.85156-41.52-4.0664-62.305-5.832-1.2734-0.10938-2.543-0.5625-3.7422-1.0781-13.43-5.8203-27.648-7.1055-42.023-7.3203-11.34-0.17969-22.691-0.44531-34.02-0.14453-11.988 0.32422-23.352-2.2695-34.523-6.1094-9.0586-3.1094-17.977-6.7422-27.875-5.8438-3.9375 0.35938-6.8984-1.6211-8.5312-4.9336-2.6641-5.4492-6.0117-10.957-6.9258-16.766-0.96094-6.1562-2.9883-11.711-4.9219-17.473-2.0742-6.168-3.6367-12.516-5.207-18.84-1.5-5.9883 0.28906-8.3281 6.2148-6.9258 9.6719 2.293 19.402 4.8008 28.609 8.4492 7.8359 3.1094 15.562 4.5977 23.941 5.3516 14.676 1.3203 29.219 4.1992 43.789 6.5742 15.035 2.4609 30.035 5.1953 45.086 7.6211 3.4219 0.55078 6.9609 0.39453 10.441 0.39453 78.516-0.011718 157.04 0.33594 235.56-0.3125 23.039-0.19141 46.066-3.2656 69.109-4.8945 25.223-1.7773 50.23-5.1719 75.156-9.4453 9-1.5469 18.191-2.1484 27.312-2.7969 16.934-1.1992 34.152-0.57422 50.746-3.5391 21.227-3.793 42.707-0.27734 63.781-4.4141 5.9141-1.1641 12.168-0.76953 18.266-0.83984 14.375-0.16797 28.703-0.023438 43.043-2.125 9.8516-1.4414 20.016-0.82812 30.035-0.86328 9.8633-0.035157 13.895-0.5625 17.566-13.488 1.9805-6.9961 4.6562-14.102 3.5039-21.77-0.85156-5.6172-2.6641-7.9336-8.3633-7.8008-3.8164 0.085937-7.8125 0.81641-11.375 2.1953-12.395 4.7773-25.043 6.9727-38.375 6.4453-15.73-0.61328-31.176 2.2305-46.668 4.7773-11.102 1.8242-22.402 2.375-33.613 3.6484-11.207 1.2734-22.379 2.6992-33.562 4.1055-2.5938 0.32422-5.1367 1.2109-7.7148 1.2617-21.781 0.34766-43.512 0.13281-65.258 2.7461-12.887 1.5469-26.027 1.1055-39.086 2.3281-24.266 2.2812-48.684 2.8555-73.031 4.1641-15.672 0.83984-31.332 1.7656-47.004 2.543-9.5742 0.48047-19.234 0.15625-28.738 1.2617-28.715 3.3594-57.504 1.6211-86.27 2.0508-1.7383 0.023437-3.5391 0.19141-5.2188-0.14453-23.363-4.5352-46.98-1.8828-70.477-2.6875-7.3906-0.25391-14.746-1.0664-22.129-1.5352-9.1328-0.57422-18.277-0.88672-27.395-1.6211-10.836-0.86328-21.648-1.9922-32.473-3.0977-9.0859-0.92578-18.18-1.8359-27.227-2.9883-22.02-2.7852-44.363-2.207-66.18-7.4414-7.1172-1.7031-14.496-2.4844-21.527-4.8125-3.2148-1.0664-4.6328-3-5.2695-6.5156-3.1328-17.258-2.6758-34.668-2.8203-52.055-0.011719-2.1719-0.20312-4.5 0.51562-6.4688 0.45703-1.2734 2.293-2.5664 3.6953-2.832 1.5703-0.28906 3.4336 0.37109 5.0273 0.97266 13.598 5.0273 27.684 7.2227 42.098 8.2695 6.4688 0.46875 12.828 2.4258 19.285 3.3945 11.594 1.7383 23.281 2.8906 34.812 4.9336 11.508 2.0273 22.859 4.9922 34.344 7.2461 8.0898 1.5977 16.246 2.8906 24.422 3.9492 13.355 1.7266 26.746 3.1797 40.129 4.6797 5.6172 0.63672 11.23 1.5 16.859 1.6094 20.93 0.39453 41.82 0.46875 62.438-4.3789 5.8789-1.3789 12.121-1.2344 18.18-1.8359 5.6406-0.5625 11.41-0.60156 16.871-1.8945 14.555-3.4453 29.258-4.0664 44.125-3.9844 41.867 0.22656 83.746 0.058594 125.63 0.10938 17.461 0.011719 34.656-2.4844 51.863-5.0273 9.4336-1.3906 18.949-2.2188 28.441-3.3125 2.1602-0.25391 4.4414-0.19141 6.4453-0.91016 11.699-4.2227 23.832-4.5 36.086-5.0273 7.2227-0.3125 14.723-2.2578 21.395-5.125 9.5898-4.1289 19.066-8.1719 29.281-10.609 17.449-4.1641 33.312-12.359 49.309-20.137 4.6914-2.2812 9.1094-5.1016 14.629-5.1133 1.6562 0 3.4219-0.73047 4.9453-1.4883 10.094-5.0273 19.945-10.547 30.203-15.156 19.367-8.6992 38.617-17.652 59.977-21.012 12.434-1.957 24.672-5.3164 36.84-8.6172 16.367-4.4531 32.82-8.1602 49.848-8.7852 1.2852-0.046875 2.5664-0.44531 3.8398-0.69531 9.5508-1.957 10.211-1.332 7.75 7.4375zm13.922-35.508c-0.22656 0.37109-0.625 0.70703-0.69531 1.0938-2.0508 11.566-10.273 14.891-20.605 16.066-9.4688 1.0781-18.887 2.6641-28.246 4.4414-11.09 2.1133-22.078 4.7383-33.145 7.0195-12.695 2.6172-25.512 4.7266-38.09 7.7773-8.4258 2.0391-16.586 5.1953-24.781 8.0898-20.062 7.1172-39.023 16.68-57.938 26.363-1.5352 0.79297-3.1094 1.9805-4.7266 2.0898-10.906 0.70703-19.477 7.2461-28.922 11.508-11.902 5.3633-23.688 10.906-36.504 13.848-11.051 2.5195-21.434 6.8164-31.5 12.035-5.832 3.0234-12.289 4.4141-18.961 4.0781-11.438-0.57422-22.598 0.89844-33.504 4.4141-2.0508 0.66016-4.2734 1.043-6.4219 1.043-11.82 0.035157-23.258 2.6992-34.766 4.9219-1.2852 0.25391-2.5781 0.46875-3.875 0.60156-4.1641 0.40625-6.0859-1.4531-5.0508-5.207 3.2266-11.711 6.793-23.328 9.8398-35.09 1.7383-6.6953 2.7852-13.559 4.0547-20.375 1.1289-5.9766 2.0625-11.977 3.2148-17.941 0.74219-3.8633 3.3711-5.3164 7.1172-6.5156 13.738-4.4648 27.672-6.0352 42.133-6.4453 10.164-0.28906 20.508-2.7109 30.672-5.3398 11.688-3.0352 23.977-4.7148 36.059-5.0391 11.41-0.3125 22.402-2.7852 33.602-4.0312 7.7031-0.86328 15.289-2.8555 22.934-4.2852 2.125-0.39453 4.2969-0.55078 6.875-0.875 5.375 2.5195 10.379 1.0781 15.684-1.9219 2.7461-1.5586 6.7695-1.1758 10.211-1.2109 10.895-0.13281 21.805 0.14453 32.699-0.15625 4.7148-0.13281 9.4453-1.1406 14.125-2.0156 10.621-2.0039 21.191-4.2461 31.812-6.2539 5.5078-1.0312 11.09-1.7266 16.621-2.6289 16.234-2.6758 32.438-5.3633 48.961-6.1562 8.9883-0.43359 17.855-3.2383 26.762-5.0508 1.6914-0.34766 3.3359-1.6094 4.9453-1.5117 3.7695 0.22656 8.6758-0.22656 10.957 1.8945 3.0391 2.8594 0.60156 7.3359-1.5469 10.766zm17.258-40.645c-0.9375 3.3359-2.0039 6.6602-3.3477 9.8633-3.1797 7.5859-3.2539 7.5469-12.348 6.0586-5.4609 1.1055-10.934 2.1133-16.367 3.3711-2.5195 0.57422-4.8828 2.0898-7.4141 2.3398-2.9414 0.30078-6.875 0.79297-8.7734-0.75781-2.8789-2.3633 0.875-5.2695 1.6094-7.9922 2.5781-9.6133 8.0742-13.68 18.793-13.164 7.4531 0.35938 15.098-3.3242 22.668-5.1602 4.7109-1.1328 6.5117 0.70312 5.1797 5.4414zm14.098-32.613c-1.1289 4.9688-3.2266 9.7695-5.3516 14.426-0.55078 1.1875-2.8555 2.2812-4.332 2.2305-10.176-0.30078-19.668 2.5195-29.184 5.5664-2.0039 0.64844-4.2969 0.38281-6.457 0.53906-1.7539-0.14453-3.6953 0.15625-5.1367-0.55078-1.2227-0.60156-2.8789-2.6758-2.6172-3.5742 3.5039-11.555 1.1875-23.316 1.6562-34.969 0.15625-3.9375 2.1133-6.1797 5.543-5.5781 13.152 2.3281 26.508 3.707 38.844 9.707 5.582 2.7109 8.3438 6.4297 7.0352 12.203z"/>
  <path d="m632.62 641.62c7.3789 0.27734 15.07-1.0664 22.117 0.55078 10.379 2.3867 20.688 2.0898 29.652 2.2422 4.9062 0 8.3867 0.011719 11.867 0 15-0.058594 14.797-0.12109 18.59-14.809 2.8789-11.207 1.9688-22.453 1.0195-33.684-0.44531-5.3281-2.375-6.6602-7.5352-7.1992-1.2969-0.13281-2.6055-0.12109-3.9102-0.10938-18.277 0.058594-36.551-0.085937-54.816 0.33594-5.0898 0.12109-10.188 1.7148-15.168 3.0586-4.9805 1.3438-7.5859 4.8477-9.2656 9.8984-3.2539 9.7422-3.0352 19.656-2.7617 29.605 0.21484 8.0664 2.0391 9.7969 10.211 10.109zm0.19141-17.727c0.58984-7.2852 1.8359-14.629 3.8398-21.637 0.61328-2.125 4.4883-3.8867 7.2109-4.668 2.8203-0.81641 6.0469-0.25391 9.0977-0.26563 6.9727-0.011718 13.934 0 20.902 0v0.25391c8.7109 0 17.426-0.13281 26.125 0.046875 5.1016 0.10938 6.2148 1.0664 6.1445 6.2773-0.12109 7.7656-0.63672 15.551-1.5 23.281-0.46875 4.2227-2.9883 7.0664-7.8711 6.9492-12.602-0.32422-25.199 1.0195-37.766-1.5234-6.3242-1.2852-12.973-0.89844-19.465-1.3906-5.5898-0.42188-7.1875-1.5859-6.7188-7.3242z"/>
  <path d="m323.7 678.42c-2.1367-0.35938-4.332-0.37109-6.5039-0.42188-22.141-0.40625-44.27-0.23828-66.254 2.9883-6.1445 0.89844-7.8711 2.4102-7.9805 9.5898-0.22656 16.969-0.27734 33.938-0.058594 50.891 0.097656 7.8594 2.1367 9.7305 10.391 9.9375 9.9961 0.26562 20.004 0.058594 30.012 0.070312 10.871 0 21.758 0.27734 32.629-0.085937 7.332-0.23828 10.895-4.1406 11.398-11.508 0.30078-4.332 0-8.6992 0.15625-13.043 0.39453-11.219-1.4414-22.57 2.4844-33.59 0.82812-2.3164 0.27734-5.1719 0.14453-7.7773-0.22656-4.0273-2.5273-6.3945-6.418-7.0508zm-3.5391 14.352c-3.7188 11.988-1.3203 24.254-1.8125 36.371-0.51562 12.59-0.63672 13.031-13.512 13.199-6.9727 0.097656-13.957 0.011719-20.941 0.011719v-0.023438c-8.293 0-16.586 0.17969-24.863-0.058593-5.543-0.16797-6.9727-1.5977-7.0781-7.1641-0.21484-11.773-0.27734-23.555-0.035156-35.328 0.12109-6.1328 1.9062-7.4883 7.4766-8.7617 18.07-4.1172 36.434-2.5312 54.684-2.9414 0.86328-0.023437 1.7383 0.13281 2.5938 0.28906 2.4219 0.48047 4.293 1.8008 3.4883 4.4062z"/>
 </g>
</svg>
