<?xml version="1.0" encoding="UTF-8"?>
<svg width="1200pt" height="1200pt" version="1.1" viewBox="0 0 1200 1200" xmlns="http://www.w3.org/2000/svg">
 <path d="m1052.7 1164.1h-905.34c-13.367-0.011719-26.184-5.3281-35.637-14.777-9.4531-9.4492-14.773-22.262-14.793-35.629l-1.7188-638.45c-15.242-0.011718-29.855-6.0703-40.637-16.848-10.777-10.773-16.844-25.387-16.859-40.629v-134.57c0.015625-15.238 6.082-29.852 16.859-40.629 10.781-10.773 25.395-16.832 40.637-16.848h150.62c-25.961-31.312-33.793-73.863-20.691-112.37 49.82-124.15 227.62-75.211 313.11-19.555 17.809-13.16 39.371-20.25 61.512-20.223 22.141 0.023437 43.688 7.168 61.465 20.371 86.152-55.816 263.27-104.76 313.22 19.41v-0.003906c13.102 38.508 5.2695 81.059-20.691 112.37h151.1c15.242 0.015625 29.855 6.0742 40.637 16.848 10.777 10.777 16.844 25.391 16.859 40.629v134.57c-0.03125 15.539-6.3359 30.402-17.488 41.227-11.148 10.82-26.195 16.68-41.727 16.25v638.45c-0.019531 13.367-5.3398 26.18-14.793 35.629-9.4531 9.4492-22.27 14.766-35.637 14.777zm-352.84-37.5h352.84c7.1367 0.003906 12.922-5.7734 12.93-12.906v-638.42h-133.27l49.254 49.273v0.003906c4.582 4.5703 6.4805 11.184 5.0234 17.492-1.4609 6.3047-6.0742 11.414-12.199 13.508l-67.824 23.164-23.621 68.316 0.003906-0.003906c-2.1797 6.0469-7.2852 10.574-13.551 12.016-6.2617 1.4375-12.832-0.40234-17.434-4.8906l-152.16-152.14zm-162.78 0h125.28v-651.32h-125.28zm-402.65-651.32v638.42c0.007812 7.1328 5.7969 12.91 12.93 12.906h352.22v-624.44l-152.02 152c-4.6055 4.4844-11.172 6.3242-17.434 4.8828-6.2656-1.4375-11.367-5.9609-13.547-12.008l-23.621-68.281-68.301-23.18c-6.082-2.1445-10.645-7.25-12.105-13.531-1.4609-6.2812 0.38281-12.875 4.8945-17.484l49.293-49.273zm591.72 0 131.21 131.18c8.2578-19.062 14.629-57.984 28.453-60.262l48.012-16.406-54.492-54.512zm-460.88 54.473 48.449 16.426c13.848 2.2461 20.238 41.203 28.492 60.277l131.21-131.18-153.66 0.003906zm621.79-92.008h217.79c5.3008-0.003906 10.383-2.1094 14.129-5.8516 3.75-3.7461 5.8594-8.8242 5.8672-14.125v-134.57c-0.007812-5.2969-2.1172-10.375-5.8672-14.121-3.7461-3.7461-8.8281-5.8516-14.129-5.8555h-373.53v174.52zm-206.21 0h12.965v-174.52h-188.2v174.52zm-368.81 0h156.08v-174.52h-372.91c-5.3008 0.003907-10.383 2.1094-14.129 5.8555-3.75 3.7461-5.8594 8.8242-5.8672 14.121v134.57c0.007812 5.3008 2.1172 10.379 5.8672 14.125 3.7461 3.7422 8.8281 5.8477 14.129 5.8516zm401.7-212.02h190.83c15.051-11.312 26.379-26.867 32.523-44.664 6.1484-17.797 6.8359-37.027 1.9766-55.219-41.973-94.527-187.02-42.59-252.72-3.4766 18.414 26.465 13.109 72.75 13.734 103.33 0.60156 0.003907 13.438-0.03125 13.656 0.03125zm-418.73 0h190.69c0.30859-0.0625 13.117-0.027343 13.77-0.039062 0.63672-30.762-4.7109-76.746 13.77-103.38l0.003907 0.003906c-51.723-32.469-111.68-49.41-172.75-48.812-84.738 2.8398-113.92 91.949-45.48 152.23zm241.96-0.039062 125.61 0.003906v-52.844c-0.53516-16.652-7.5898-32.426-19.645-43.922-12.055-11.5-28.148-17.797-44.805-17.543-16.656 0.25781-32.547 7.0469-44.242 18.91-23.762 21.102-15.668 67.609-16.922 95.398z"/>
</svg>
