<?xml version="1.0" encoding="UTF-8"?>
<svg width="1200pt" height="1200pt" version="1.1" viewBox="0 0 1200 1200" xmlns="http://www.w3.org/2000/svg">
 <path d="m808.23 317.5c-7.3125 0-13.863-3.2734-18.27-8.4336l-87.621-88.242h-204.69l-87.621 88.242c-4.4062 5.1602-10.957 8.4336-18.27 8.4336h-210.39c-26.449 0-50.441 10.773-67.777 28.121-17.449 17.434-28.219 41.441-28.219 67.875v210.83h239.12c5.7383-66.672 35.223-126.68 79.965-171.44 52.043-52.043 121.91-81.102 195.54-81.102 76.223 0 145.36 30.953 195.44 81 46.09 46.09 74.465 106.57 80.066 171.54h239.12v-210.83c0-26.434-10.773-50.441-28.121-67.777-17.434-17.449-41.441-28.219-67.875-28.219h-210.39zm166.92 39.105c16.641 0 31.75 6.7617 42.66 17.676 10.914 10.914 17.676 26.023 17.676 42.66 0 16.668-6.7617 31.75-17.676 42.66-10.914 10.914-26.023 17.676-42.66 17.676-16.668 0-31.75-6.7617-42.66-17.676-10.914-10.914-17.676-25.992-17.676-42.66 0-16.641 6.7617-31.75 17.676-42.66 10.914-10.914 25.992-17.676 42.66-17.676zm25.684 34.652c-6.5625-6.5625-15.66-10.645-25.684-10.645-10.02 0-19.121 4.082-25.684 10.645s-10.645 15.66-10.645 25.684c0 10.02 4.082 19.121 10.645 25.684s15.66 10.645 25.684 10.645c10.02 0 19.121-4.082 25.684-10.645s10.645-15.66 10.645-25.684c0-10.02-4.082-19.121-10.645-25.684zm-915.46 281.06v210.87c0 26.449 10.773 50.441 28.121 67.777 17.434 17.449 41.43 28.219 67.875 28.219h837.25c26.434 0 50.441-10.773 67.777-28.121 17.449-17.434 28.219-41.43 28.219-67.875v-210.87h-239.12c-5.7383 66.688-35.223 126.68-79.965 171.44-52.031 52.031-121.92 81.102-195.54 81.102-76.238 0-145.36-30.953-195.44-81-46.09-46.09-74.465-106.55-80.066-171.54h-239.12zm80.789-402v-46.504c0-13.254 10.742-23.996 23.996-23.996h114.38c13.254 0 23.996 10.742 23.996 23.996v45.695h53.336l88.922-89.547c4.6758-4.707 10.812-7.0586 16.965-7.0586l224.48-0.070313c7.3281 0 13.875 3.2891 18.285 8.4492l87.605 88.23h200.5c39.488 0 75.488 16.188 101.61 42.277 27.043 27.043 42.379 63.41 42.379 101.71v469.69c0 39.488-16.188 75.488-42.277 101.61-27.043 27.043-63.41 42.379-101.71 42.379h-837.25c-39.488 0-75.488-16.188-101.61-42.277-27.043-27.043-42.379-63.41-42.379-101.71v-469.69c0-39.488 16.188-75.488 42.277-101.61 23.285-23.285 53.719-38.07 86.5-41.57zm114.38-0.80859v-21.699h-66.387v21.699zm319.45 202.88c6.6172 0 12.004 5.3867 12.004 12.004 0 6.6172-5.3867 12.004-12.004 12.004-41.953 0-79.953 17.023-107.43 44.504-27.48 27.48-44.488 65.465-44.488 107.42s17.008 79.953 44.488 107.43c27.48 27.48 65.48 44.488 107.43 44.488s79.938-17.008 107.42-44.488c27.48-27.48 44.504-65.48 44.504-107.43 0-6.6172 5.3867-12.004 12.004-12.004 6.6172 0 12.004 5.3867 12.004 12.004 0 48.586-19.715 92.594-51.535 124.41-31.82 31.82-75.812 51.52-124.4 51.52-48.57 0-92.594-19.699-124.41-51.52-31.82-31.82-51.52-75.84-51.52-124.41 0-48.586 19.699-92.582 51.52-124.4 31.82-31.82 75.828-51.535 124.41-51.535zm161.65 14.273c-41.316-41.328-98.477-66.883-161.65-66.883-63.184 0-120.33 25.555-161.61 66.84-41.387 41.371-66.941 98.531-66.941 161.7 0 63.184 25.555 120.33 66.84 161.61 41.371 41.387 98.52 66.941 161.7 66.941 63.172 0 120.33-25.555 161.61-66.84 41.387-41.371 66.941-98.52 66.941-161.7 0-63.172-25.555-120.33-66.898-161.66z"/>
</svg>
