<?xml version="1.0" encoding="UTF-8"?>
<svg width="1200pt" height="1200pt" version="1.1" viewBox="0 0 1200 1200" xmlns="http://www.w3.org/2000/svg">
 <g>
  <path d="m208.05 557.5c26.398 0 55.102-4.25 84.949-11.648 21.148 16.852 44.25 30.949 69.648 39.699-56.199 134.9-58.25 249.65-5.6992 332.95 65.398 103.7 210.95 156.3 432.5 156.3 231.85 0 406.65-171.05 406.65-397.85 0-65.852-12.551-103.9-40.699-123.45-37.602-26.102-86.352-7.9492-142.9 13.199-51.801 19.352-116.3 43.5-189.95 43.5-109.2 0-140.5-20.25-187.85-50.898-10.801-7-22.5-14.551-35.949-22.398 48.949-44.449 77.449-107.9 77.449-175.1 0-130.45-106.15-236.55-236.55-236.55-128.45 0-232.8 103-236 230.65-7.5 3.0508-20.75 4.8516-42.797-4.0977-61-24.699-109.1-44.051-143.25-9.8516-24.648 24.648-12.852 80.449 10.75 120.45 16.898 28.602 68.25 95.102 179.7 95.102zm-162.15-187.25c14.75-14.75 44.453-3.8516 103.9 20.25 23.199 9.3984 42 9.6016 56.25 6.5 2.3516 15.75 5.8516 31.25 11.352 46.25 3.75 10.398 15.5 15.648 25.648 11.852 10.398-3.8008 15.648-15.301 11.852-25.699-7.9023-21.602-11.902-44.352-11.902-67.602 0-108.4 88.199-196.6 196.6-196.6 108.4 0 196.55 88.199 196.55 196.6 0 64.648-31.699 125.15-84.801 161.8-5.8516 4-9.1484 10.75-8.6484 17.801 0.5 7.0508 4.6992 13.301 11 16.5 23.852 12 42.648 24.199 59.301 34.949 49.449 32 88.551 57.301 209.55 57.301 80.852 0 149.1-25.5 204.1-46.051 47.699-17.852 85.5-32.051 105.95-17.75 15.801 11 23.5 40.648 23.5 90.602 0 204-157.6 357.85-366.6 357.85-206.95 0-341.1-46.301-398.75-137.65-47.699-75.699-41.648-185.1 17.551-316.3 2.5-5.4492 2.3516-11.699-0.30078-17.102-2.6484-5.3516-7.5508-9.25-13.398-10.602-33.5-7.8008-64.551-24.551-89.801-48.301-8.0547-7.5508-20.656-7.25-28.305 0.84766-0.89844 0.94922-1.3516 2.1484-2 3.25-23.352 5.25-45.852 8.6016-66.398 8.6016h-0.050781c-87.602 0-128.6-47.301-145.25-75.449-20.5-34.703-21.102-66.602-16.902-71.852z"/>
  <path d="m397.6 312.6c0 19.328-15.672 35-35 35-19.332 0-35-15.672-35-35 0-19.332 15.668-35 35-35 19.328 0 35 15.668 35 35"/>
  <path d="m696.65 939.15c8.5 1.1484 17.602 1.75 26.949 2.3008l8.1484 0.5c29.949 2.0508 55.898 2.9492 78.5 2.9492 15.551 0 29.25-0.44922 41.75-1.25 0.25 0 0.44922 0.19922 0.64844 0.19922 0.35156 0 0.64844-0.19922 1-0.25 90.551-5.8008 105.3-29.852 112.7-41.898 8.8516-14.352 9.3516-32.301 1.8984-46.75-11.949-28.25-60.898-121.65-189.05-142.25-0.94922-0.25-1.8516-0.39844-2.8516-0.5-10.699-1.1992-20.199 6.8516-21.949 17.699-3.1484 19.102 16.352 21.898 16.352 21.898 109.45 16.699 150.7 95.148 161.3 120.05 0.80078 1.5 2.3516 5.4492 0.19922 8.8984-3.8984 6.3008-17.898 17.398-67.648 22.051l-32.699-66.051c-4.8516-9.8984-16.852-13.898-26.801-9.0508-9.8984 4.8984-13.898 16.898-9.0508 26.801l24.898 50.301c-12.5 0.14844-26.449 0-41.898-0.55078l-37.949-68.148c-5.3984-9.75-17.699-13.148-27.199-7.75-9.6484 5.3516-13.148 17.551-7.75 27.199l25.75 46.301-5.8516-0.39844c-8.3516-0.55078-16.449-1-24-2.0508-41.551-5.6992-94.25-20.398-109.55-57.852-13.102-32.148 6.3516-68.148 14.898-81.852 6.3516-7.9492 6.5-20-0.80078-27.25-7.75-7.8008-19.75-8.5508-27.5-0.69922-1.6992 1.3516-3.9492 4.1484-5.1484 6-12.352 19.051-38.898 68.852-18.5 118.95 18.109 44.355 65.609 72.055 141.21 82.453z"/>
 </g>
</svg>
