<?xml version="1.0" encoding="UTF-8"?>
<svg width="1200pt" height="1200pt" version="1.1" viewBox="0 0 1200 1200" xmlns="http://www.w3.org/2000/svg">
 <g>
  <path d="m230.3 703.26c27.73 0 50.219 22.488 50.219 50.23 0 27.742-22.488 50.219-50.219 50.219-27.742 0-50.23-22.477-50.23-50.219-0.003907-27.746 22.496-50.23 50.23-50.23m0-33.48c-46.164 0-83.711 37.547-83.711 83.711 0 46.152 37.547 83.711 83.711 83.711 46.152 0 83.699-37.559 83.699-83.711 0-46.164-37.535-83.711-83.699-83.711z"/>
  <path d="m955.16 703.26c27.742 0 50.23 22.488 50.23 50.23 0 27.742-22.488 50.219-50.23 50.219-27.742 0-50.23-22.477-50.23-50.219 0-27.746 22.488-50.23 50.23-50.23m0-33.48c-46.152 0-83.711 37.547-83.711 83.711 0 46.152 37.559 83.711 83.711 83.711 46.164 0 83.711-37.559 83.711-83.711-0.011719-46.164-37.559-83.711-83.711-83.711z"/>
  <path d="m1125.8 689.32c-0.33594-6.1328-1.6797-61.379-2.2422-69.203-4.5703-63.973-54.133-86.496-54.133-86.496s-83.711-122.21-93.191-132.82c-9.4922-10.598-22.32-20.09-44.09-23.438-61.391-9.4453-194.75-14.508-240.52-14.508-45.77 0-72.551-1.1172-163.5 6.1445-90.961 7.2461-99.887 25.668-99.887 25.668l-97.105 133.37c-16.188 1.1172-160.57 20.652-209.26 32.363-17.473 4.1992-31.812 14.508-38.508 18.973-6.6953 4.4648-12.84 12.277-12.84 36.266 0 24 5.0273 36.277 10.609 48.551 5.5781 12.277 17.305 15.07-4.4648 24.562-21.758 9.4805-13.957 11.723-13.957 29.016s-6.1328 27.898 0 35.711c6.1445 7.8008 16.738 17.305 45.203 17.305 4.9219 0 13.152 0.61328 23.746 1.6445-1.1758-6.1445-1.8242-12.48-1.8242-18.949 0-55.391 45.059-100.45 100.45-100.45 55.379 0 100.45 45.059 100.45 100.45 0 13.246-2.6055 25.895-7.2969 37.5 6.9375 0.28906 13.453 0.44531 19.402 0.44531 67.523 0 429.7-7.8008 495.54-7.8008 6.5898 0 13.547-0.20312 20.762-0.53906-2.8906-9.3594-4.4531-19.297-4.4531-29.605 0-55.391 45.059-100.45 100.44-100.45 55.391 0 100.45 45.059 100.45 100.45 0 3.7812-0.23828 7.5117-0.64844 11.195 0.92578-0.011719 1.8594-0.023437 2.7461-0.023437 51.336 0 75.336-17.293 80.363-40.738 8.082-37.582-11.695-24.551-12.258-34.594zm-729.64-148.57c43.945-65.711 69.059-107.98 79.512-112.59 10.465-4.6094-1.2461-5.8555 97.105-5.8555 98.352 0 95.426-2.0898 104.22 5.8555 8.7969 7.9453 7.1172 18.168 7.1172 53.242 0 35.074 0.13281 59.34 0.13281 59.34zm547.86-9.6211c-4.7383 7.7891-60.156 7.5977-117.37 7.5977-53.988 0-103.38 3.4219-109.46-4.668-6.1094-8.1016-4.3672-23.219-4.3672-52.609 0-29.375-1.0664-43.656 6.875-50.773 9.625-8.6172 24.469-6.1562 88.129-4.5352 61.957 1.5859 77.617 1.6094 85.152 6.2148 7.5352 4.6094 18 22.598 28.871 44.363 10.883 21.758 27.527 45.613 22.176 54.41z"/>
 </g>
</svg>
