<?xml version="1.0" encoding="UTF-8"?>
<svg width="1200pt" height="1200pt" version="1.1" viewBox="0 0 1200 1200" xmlns="http://www.w3.org/2000/svg">
 <path d="m598.83 1200c-330.71 0-598.83-268.12-598.83-598.83s268.12-598.83 598.83-598.83c330.71 0 598.83 268.12 598.83 598.83 0.003906 330.71-268.12 598.83-598.83 598.83zm55.113-622.82c-15.797-36.285-62.672-47.34-93.285-22.477l-207.04-191.73 39.754-11.23-108.98-41.723 49.996 105.41 8.1289-40.516 207.05 191.75c-27.328 39.328-0.125 94.617 49.238 94.617 39.438 0 68.035-37.391 58.141-75.445l302.53-106.1-4.7188 22.727 49.066-43.492-65.508-2.4375 18.086 14.566zm-405.24-183.58-4.5156 7.8164 57.328 33.102 4.5234-7.8164zm-56.48 202.58v9.0234h66.203v-9.0234zm52.121 204.71 4.5156 7.8164 57.328-33.094-4.5156-7.8164zm147.18 150.09 7.8203 4.5156 33.102-57.336-7.8203-4.5156zm202.18 56.992h9.0273v-66.199l-9.0273 0.003906zm0.75391-747.41h9.0273v-66.203h-9.0273zm203.71 695.16 7.8164-4.5156-33.094-57.336-7.8164 4.5156zm150.56-147.12 4.5078-7.8164-57.328-33.102-4.5156 7.8164zm56.699-203.07v-9.0234h-66.199v9.0234zm-52.227-203.54-4.5078-7.8203-57.336 33.102 4.5078 7.8203zm-146.71-150.54-7.8164-4.5156-33.102 57.328 7.8164 4.5156zm-415.35-0.36328 33.102 57.328 7.8164-4.5156-33.102-57.328zm207.68 819.42c259.22 0 469.36-210.12 469.36-469.36s-210.13-469.36-469.36-469.36c-259.23 0-469.36 210.12-469.36 469.36 0.007812 259.23 210.13 469.36 469.36 469.36z" fill-rule="evenodd"/>
</svg>
