<?xml version="1.0" encoding="UTF-8"?>
<svg width="1200pt" height="1200pt" version="1.1" viewBox="0 0 1200 1200" xmlns="http://www.w3.org/2000/svg">
 <g>
  <path d="m125.88 947.79c0.046875 13.512 5.3398 26.242 14.93 35.809l76.512 76.512c9.5742 9.5898 22.297 14.879 35.809 14.914h0.16797c13.488 0 26.148-5.2422 35.664-14.746l355.73-355.73c52.848 9.2891 94.234 6.1211 134.53-34.188l45.023-45.023 4.3906 4.3906c2.3398 2.3398 5.4102 3.5156 8.4844 3.5156 3.0703 0 6.1445-1.1758 8.4844-3.5156l41.09-41.09c4.6914-4.6914 4.6914-12.277 0-16.969l-255.77-255.76c-4.6914-4.6914-12.277-4.6914-16.969 0l-41.09 41.09c-4.6914 4.6914-4.6914 12.277 0 16.969l4.3906 4.3906-45.023 45.023c-42.973 42.961-41.484 88.355-34.535 131.52l-357.06 357.06c-9.5508 9.5508-14.797 22.281-14.762 35.82zm496.56-606.42 238.8 238.8-24.121 24.121-238.8-238.8zm184.84 267.01-28.656 28.656-213.06-213.04 28.668-28.668zm-258.66-167.4 213.01 213c-32.988 32.594-65.438 35.242-112.11 27.035l-127.75-127.74c-7.7539-47.328-5.3398-79.742 26.844-112.3zm-38.066 135.01 114.38 114.38-298.14 298.13-114.38-114.38zm-352.94 352.95 37.836-37.836 114.38 114.38-37.836 37.836c-4.9805 4.9805-11.617 7.7266-18.695 7.7266h-0.085937c-7.1406-0.023438-13.859-2.8203-18.926-7.8828l-76.512-76.512c-5.0742-5.0742-7.8711-11.785-7.8945-18.926-0.023437-7.1133 2.7266-13.785 7.7305-18.789z"/>
  <path d="m299.36 892.54c1.4023 2.0898 3.0117 4.0547 4.8242 5.8672s3.7812 3.4336 5.8672 4.8242c6.4336 4.3555 14.016 6.6953 21.961 6.6953 10.512 0 20.398-4.0938 27.828-11.531l57.168-57.168c15.348-15.348 15.348-40.309 0-55.668-15.348-15.359-40.309-15.348-55.668 0l-57.168 57.168c-7.4414 7.4297-11.531 17.316-11.531 27.828 0.023438 7.9805 2.3633 15.555 6.7188 21.984zm42.215-11.098c-5.4609 5.4609-14.953 5.4609-20.41 0-1.3672-1.3672-2.3867-2.9766-3.1445-4.6914-0.71875-1.7266-1.0938-3.5898-1.0938-5.5078 0-3.8516 1.5117-7.4766 4.2461-10.211 2.8086-2.8086 6.5156-4.2227 10.211-4.2227 3.6953 0 7.3906 1.4023 10.211 4.2227 5.6094 5.625 5.6094 14.781-0.019531 20.41zm36.746-78.891c3-2.9883 6.9258-4.4883 10.859-4.4883 3.9375 0 7.8594 1.5 10.859 4.4883 5.9883 5.9883 5.9883 15.742 0 21.73l-32.941 32.941c-1.8711-4.7891-4.7031-9.3008-8.5664-13.164-3.8633-3.8633-8.3633-6.6953-13.152-8.5664z"/>
  <path d="m821.06 126.19-125.03 177.47c-3.8164 5.4258-2.5195 12.898 2.8906 16.727 2.1133 1.4766 4.5117 2.1953 6.8984 2.1953 3.7695 0 7.4883-1.7656 9.8164-5.0898l125.03-177.47c3.8164-5.4258 2.5195-12.898-2.8906-16.727-5.4336-3.8125-12.91-2.5273-16.715 2.8945z"/>
  <path d="m898.95 506.57 177.47-125.03c5.4102-3.8164 6.7188-11.293 2.8906-16.727-3.8047-5.4141-11.305-6.6953-16.715-2.8906l-177.47 125.03c-5.4102 3.8164-6.7188 11.293-2.8906 16.727 2.3281 3.3125 6.0469 5.0898 9.8164 5.0898 2.3867-0.011719 4.7969-0.72266 6.8984-2.1992z"/>
 </g>
</svg>
