<?xml version="1.0" encoding="UTF-8"?>
<svg width="1200pt" height="1200pt" version="1.1" viewBox="0 0 1200 1200" xmlns="http://www.w3.org/2000/svg">
 <path d="m872.49 660.36c3.2852-4.3555 6.457-8.793 9.5234-13.312 2.0469-3.0312 3.9805-6.125 5.9102-9.2227 1.6836-2.7031 3.3164-5.4414 4.9023-8.2109 3.0391-5.2227 5.9102-10.52 8.6133-15.891 1.1758-2.3633 2.3477-4.7109 3.4727-7.1133 2.5273-5.4062 4.9023-10.879 7.125-16.422 1.1602-2.918 2.3477-5.8242 3.4219-8.8438 1.2617-3.6133 2.5273-7.2617 3.7148-10.926 1.1875-3.6641 2.1602-7.0977 3.1719-10.688 1.2617-4.4219 2.3867-8.8438 3.4102-13.328 1.0234-4.4844 1.957-8.8438 2.793-13.375 0.45312-2.5273 0.93359-4.9531 1.2617-7.4531 1.0469-6.6055 1.8555-13.289 2.5273-20.02 0.16406-1.8203 0.27734-3.6523 0.41797-5.4688 0.53125-7.3633 0.91016-14.777 0.91016-22.281 0-7.5039-0.35547-14.59-0.87109-21.789-0.125-1.707-0.23828-3.4102-0.39062-5.0508-0.60547-6.8594-1.3906-13.68-2.4492-20.398-0.26562-1.707-0.60547-3.3711-0.91016-5.0508-0.89453-5.1367-1.9219-10.234-3.082-15.297-0.53125-2.3867-1.0469-4.7891-1.6562-7.1484-1.3984-5.5586-2.9609-11.031-4.6875-16.422-1.0859-3.4609-2.2852-6.8711-3.4844-10.293-0.79687-2.2227-1.6289-4.4336-2.5273-6.6445v-0.007812c-25.59-67.371-74.426-123.37-137.68-157.89-0.54297-0.30469-1.0859-0.61719-1.6289-0.91016-3.6133-1.9453-7.2734-3.8242-10.977-5.6328-3.9414-1.9336-7.9219-3.7891-11.949-5.5078-3.1328-1.3633-6.293-2.6797-9.4844-3.9414-4.7812-1.9023-9.6289-3.6875-14.539-5.3555-1.2617-0.42969-2.5273-0.97266-3.7891-1.3906-0.20313-0.0625-0.42969 0-0.63281-0.10156l-0.003906 0.003906c-52.645-16.957-108.93-19.141-162.73-6.3164h-0.74609c-0.66797 0.15234-1.2617 0.40234-1.9844 0.57031-7.5781 1.8555-14.957 4.0156-22.27 6.4297-2.0312 0.66406-4.0586 1.3516-6.0898 2.0586-6.668 2.3672-13.227 4.9414-19.668 7.7305-2.6797 1.1602-5.3164 2.375-7.957 3.6016-5.6953 2.6797-11.367 5.4961-16.84 8.5156-3.1953 1.7422-6.3164 3.5859-9.4609 5.4453-4.2109 2.5273-8.3711 5.1445-12.48 7.8555s-8.0859 5.4844-11.926 8.3242c-2.9922 2.1992-5.9258 4.4727-8.8438 6.7812-4.5352 3.5859-8.9805 7.2773-13.301 11.129-2.9062 2.5273-5.7461 5.2305-8.5508 7.9219-3.7891 3.6992-7.5781 7.4766-11.266 11.367-3.2852 3.5039-6.4844 7.0781-9.6016 10.723-2.7695 3.25-5.4727 6.5547-8.1094 9.9141-3.6133 4.6055-7.0977 9.3125-10.457 14.121-0.92187 1.3516-1.9961 2.5273-2.9062 3.9297-0.19141 0.28906-0.25391 0.63281-0.42969 0.93359h0.007813c-43.594 65.289-60.188 144.93-46.289 222.2 13.898 77.266 57.203 146.14 120.82 192.14 63.617 46.008 142.59 65.562 220.32 54.562 77.734-11 148.18-51.703 196.52-113.55 0.38672-0.31641 0.74609-0.66016 1.0898-1.0234 0.95703-1.3906 1.8164-2.7148 2.7266-3.9766zm28.801-156.78c-0.20312 2.1719-0.51953 4.3086-0.76953 6.4531-0.78125 6.6445-1.7539 13.227-3.0195 19.707-0.35547 1.8828-0.73438 3.7891-1.1367 5.6211-1.6055 7.4141-3.4609 14.727-5.6445 21.902-0.21484 0.70703-0.39062 1.4258-0.61719 2.1328h-0.003906c-7.75 24.586-18.961 47.945-33.297 69.371-0.74609 1.0977-1.5156 2.1836-2.2617 3.2734-2.2734 3.2852-4.7734 6.4023-7.1758 9.5859l-15.941 5.2188 27.02-47.836c0.52734-0.9375 0.95312-1.9297 1.2656-2.957l23.457-74.285h-0.003906c1.2617-3.9961 0.86328-8.332-1.1094-12.027l-21.586-40.332c-1.3281-2.4805-3.3047-4.5547-5.7188-6-2.4141-1.4453-5.1758-2.2109-7.9883-2.2109-1.7695-0.003906-3.5273 0.30469-5.1914 0.91016l-36.934 13.098-36.973-26.941 2.957-54.746 11.367-23.531 53.547-8.1719-0.003906-0.003906c5.4844-0.83203 10.105-4.5234 12.129-9.6875 2.0195-5.1641 1.1328-11.012-2.3242-15.348l-42.129-52.812c-1.5742-1.9805-3.6055-3.543-5.9219-4.5586l-33.93-14.805-14.25-31.578c33.32 16.227 62.996 39.055 87.227 67.094 24.234 28.039 42.516 60.711 53.742 96.031 0.10156 0.35547 0.23828 0.69531 0.33984 1.0469 2.5273 8.168 4.6719 16.5 6.4414 24.996 0.20313 0.97266 0.33984 1.9688 0.53125 2.9414 1.375 7.0234 2.4375 14.148 3.2734 21.336 0.23828 2.1094 0.48047 4.207 0.66797 6.3164 0.75781 8.2344 1.2617 16.547 1.2617 24.984 0.015624 8.7578-0.48828 17.32-1.2969 25.809zm-395.37-238.85v-0.003906c1.875 2.6953 4.5508 4.7266 7.6484 5.8086 3.0977 1.082 6.4609 1.1562 9.6055 0.21875l40.711-12.277 4.0547 5.9883v9.4727l-25.984 5.8359c-2.8086 0.63672-5.3867 2.0352-7.4531 4.0391l-39.598 38.719-55.086 8.7422v-0.003906c-2.8633 0.44922-5.543 1.6875-7.7383 3.5742-2.1953 1.8867-3.8203 4.3516-4.6914 7.1133l-5.875 18.695c-0.78516 2.4883-0.93359 5.1328-0.42969 7.6914l12.973 65.457-2.5273-3.6875c-1.5742-2.3438-3.7578-4.2109-6.3125-5.4062l-16.043-7.4023-2.8164-94.66c28.539-41.02 67.758-73.449 113.41-93.777l-13.391 17.598v-0.003906c-1.9883 2.6133-3.1016 5.7852-3.1719 9.0703-0.074219 3.2812 0.89453 6.5 2.7656 9.1953zm57.547 433.8-12.113-13.492-15.523-79.641c-0.83203-4.2422-3.3906-7.9492-7.0625-10.234l-23.039-14.285-21.574-49.477 10.473-24.469c0.73438-1.6875 1.1602-3.4922 1.2617-5.3281l0.97266-18.949 9.7656-10.887 14.25 4.0156 69.184 35.367 3.1836 12.746h-0.003906c1.2148 4.8359 4.668 8.8008 9.2969 10.66l63.992 25.59-2.7773 12.316-19.543 44.504-8.5781 2.7539c-1.1602 0.375-2.2734 0.88672-3.3203 1.5156l-15.246 9.2734v-0.003906c-2.3555 1.4258-4.2891 3.4531-5.5977 5.875l-9.8281 18.164-8.5625 8.5781h-7.1758c-3.3086 0-6.5352 1.0547-9.2031 3.0156-2.668 1.9609-4.6367 4.7227-5.625 7.8828zm10.246 45.828c5.3438-1.2461 9.6328-5.2227 11.277-10.461l12.391-39.75h2.1875c4.1211-0.003906 8.0742-1.6445 10.988-4.5625l14.703-14.664c1.0664-1.0625 1.9688-2.2734 2.6797-3.6016l8.8438-16.422 10.105-6.125 13.516-4.332h-0.003906c4.2422-1.3672 7.6953-4.4844 9.4883-8.5625l22.914-52.297c0.39453-0.90625 0.70312-1.8516 0.92187-2.8164l6-26.691c0.80859-3.6055 0.30859-7.3789-1.4141-10.648s-4.5508-5.8164-7.9844-7.1875l-68.855-27.586-2.9688-11.91c-1.0977-4.375-4.0312-8.0586-8.0469-10.105l-76.738-39.156 0.003906-0.003906c-0.92578-0.47266-1.8945-0.85156-2.8945-1.1367l-25.062-7.0859h0.003906c-2.7969-0.78125-5.7578-0.76953-8.5508 0.042969-2.7891 0.80859-5.2969 2.3828-7.2383 4.543l-19.961 22.18c-2.3711 2.6484-3.7656 6.0273-3.9531 9.5742l-1.0977 21.664-12.062 28.219c-1.6992 3.9844-1.6641 8.5 0.10156 12.457l15.535 34.773 10.473 24.859c1.2461 2.9688 3.3867 5.4766 6.125 7.1758l21.473 13.328 15.07 77.176c0.54297 2.75 1.8164 5.3008 3.6875 7.3906l33.234 37.062v-0.003906c0.55859 0.46484 1.1484 0.88672 1.7695 1.2656-49.797-13.035-94.863-39.953-129.95-77.613-35.086-37.664-58.746-84.523-68.223-135.11-9.4766-50.594-4.3828-102.84 14.695-150.65l1.4922 50.25h-0.003906c0.085937 2.8867 0.97656 5.6953 2.5703 8.1016 1.5938 2.4102 3.8281 4.3281 6.4492 5.5391l20.844 9.6133 21.371 31.668c2.8945 4.2773 7.7227 6.8398 12.883 6.832 1.0391 0 2.0781-0.10156 3.0977-0.30078 3.0078-0.61328 5.7695-2.1055 7.9336-4.2852 2.1602-2.1797 3.6289-4.9531 4.2148-7.9688l7.5781-39.059 0.003907 0.003906c0.39062-1.9844 0.39062-4.0195 0-6l-12.988-65.785 1.793-5.7109 20.969-3.2852h0.074219l29.531-4.7734h0.003906c3.1602-0.51172 6.0859-1.9844 8.375-4.2188l40.031-39.07 33.816-7.5781h-0.003906c3.4453-0.77734 6.5195-2.6992 8.7227-5.4531 2.2031-2.7539 3.4062-6.1797 3.4062-9.707v-26.715c0-3.1055-0.92578-6.1406-2.668-8.7148l-13.137-19.391c-1.8594-2.7422-4.543-4.8203-7.6641-5.9258-3.125-1.1094-6.5195-1.1953-9.6914-0.23828l-5.7969 1.7539 11.734-15.438v0.003907c44.934-10 91.684-8.2891 135.77 4.9766l29.887 66.141c1.582 3.5039 4.4141 6.2969 7.9453 7.832l35.875 15.664 22.953 28.801-35.078 5.3555-0.003906-0.003906c-5.0703 0.76562-9.4336 3.9844-11.66 8.6016l-16.27 33.715c-0.89453 1.8477-1.4141 3.8594-1.5273 5.9102l-3.6016 66.277v0.003906c-0.28516 5.2422 2.0898 10.281 6.3164 13.398l50.426 36.734c4.1445 3.0273 9.5156 3.8086 14.352 2.0859l32.098-11.367 12.215 22.812-20.992 66.48-45.93 81.285-0.003906-0.003906c-2.7266 4.8086-2.6875 10.707 0.097656 15.48 2.7891 4.7734 7.9023 7.707 13.434 7.6992 1.3086-0.039063 2.6055-0.24609 3.8633-0.62109-31.477 25.758-68.336 44.113-107.86 53.707-39.523 9.5938-80.699 10.18-120.48 1.7227zm250.11-3.7148c-3.082-4.6211-8.3945-7.2422-13.938-6.8828-5.5391 0.35938-10.469 3.6484-12.93 8.625-2.457 4.9805-2.0742 10.895 1.0078 15.512l3.3711 5.0508 0.003907 0.003907c-47.555 28.75-101.6 45.02-157.12 47.289h-0.41797c-27.379 0.125-54.715-2.1758-81.688-6.8711-84.301-17.582-158.5-67.176-206.97-138.35-48.477-71.172-67.457-158.38-52.945-243.26 14.512-84.883 61.379-160.83 130.75-211.86l4.5469 6.8086c2.2617 3.4844 5.8242 5.918 9.8906 6.7578 4.0703 0.83984 8.3047 0.015625 11.758-2.2852 3.457-2.3047 5.8477-5.8945 6.6406-9.9727 0.78906-4.0781-0.085937-8.3008-2.4297-11.73l-13.363-20.035v0.003906c-2.2812-3.4375-5.8359-5.8242-9.8789-6.6367-4.043-0.80859-8.2461 0.023437-11.672 2.3164-78.734 52.445-133.93 133.5-153.89 225.98-19.953 92.473-3.0898 189.08 47.016 269.32 50.105 80.246 129.5 137.81 221.35 160.48v99.094h-105.25c-4.1211 0-8.0742 1.6367-10.988 4.5508-2.9141 2.9141-4.5508 6.8672-4.5508 10.984v66.406c0 4.1211 1.6367 8.0703 4.5508 10.984 2.9141 2.9141 6.8672 4.5508 10.988 4.5508h326.74c4.1211 0 8.0742-1.6367 10.988-4.5508 2.9141-2.9141 4.5508-6.8633 4.5508-10.984v-66.406c0-4.1172-1.6367-8.0703-4.5508-10.984-2.9141-2.9141-6.8672-4.5508-10.988-4.5508h-105.22l0.003907-89.531c61.688-4.8945 121.09-25.531 172.52-59.938 3.4297-2.2852 5.8125-5.8398 6.6211-9.8828 0.80859-4.0391-0.015624-8.2344-2.3008-11.668zm-74.957 255.76h-295.67v-35.367h295.67zm-174.88-159.27c17.906 2.8203 35.996 4.3047 54.125 4.4453v88.422h-54.125z"/>
</svg>
