<?xml version="1.0" encoding="UTF-8"?>
<svg width="1200pt" height="1200pt" version="1.1" viewBox="0 0 1200 1200" xmlns="http://www.w3.org/2000/svg">
 <g fill-rule="evenodd">
  <path d="m745.44 1020c-6.0938 2.1719-31.605 7.6758-40.938 10.535-44.906 13.773-260.55 76.488-290.03 79.914 1.8438-5.1016 2.9297-5.5977 1.3711-10.844-3.0938-10.441-1.3711 4.7734-4.6523-10.723 19.773-9.3789 254.77-74.148 297.07-85.371 20.008-5.3164 23.527-13.039 39.922 1.3008l-2.7383 15.188zm2.2422-27.59c9.2344 2.293 3.7812-1.6523 6.4492 7.0391-13.465-6.1641-0.51953-0.78125-6.4492-7.0391zm-641.24-5.6211 14.316-9.0703c21.309-9.875 20.504-6 55.348 10.418l216.88 89.668c4.8438 22.254 12.094 11.008 10.133 37.914-21.117-5.3164-280.28-118.11-296.67-128.93zm574.82-30c-20.031 9.3789-217.2 65.219-240.02 68.598l3.0938-140.22c36.262-5.0078 188.39-57.117 242.1-65.883zm-544.91-48.047c-0.046875-18.805 4.7734-10.324 18.188-14.27 7.0391-2.0781 12.969-5.8359 15.047-14.621 4.6055-19.488-0.63672-27.637 9.2109-47.789 12.355-4.1562 40.605-6.332 51.566 1.6055-20.836 14.883-53.078-11.48-52.512 29.977 0.37891 27.805-10.797 48-41.504 45.094zm97.348-87.426 168.92 50.883c-0.16406 24.234-1.2031 48.355-2.0312 72.543-0.85156 25.746-3.0234 49.039-2.7383 76.844-18.543-3.0234-137.39-53.363-166.42-64.254l-42.566-14.789c-12.426-5.8594-2.0781 1.6758-8.2188-11.434l-14.598-3.543c0.28516-20.031 10.844-22.629 17.598-36.73 4.4648-9.3086 8.5508-32.125 11.363-41.906l57.496-4.8906c-2.668-13.203-1.418-6.7812-12.332-15.496-9.707-7.7227-1.1328-1.8672-6.4727-7.2266zm-55.82-20.668 7.9609-2.125c-0.046876 0.96875-0.42578 1.3242-0.51953 2.2422-0.58984 6-6.6602 4.1797-1.6055 9.1406 8.668 8.5039 3.0469-3.8516 30.707 4.8672 2.6211 0.82812 4.5586 1.2773 6.8516 2.2422l8.6445 4.9141c-33.59-0.66016-25.723 1.5352-53.293-5.2422 0.070312-1.7734 0.16406-5.5508 0.16406-7.4883l1.0859-8.5508zm272.86 75.66c-0.51953-0.68359-1.1328-2.6914-1.3242-2.1953-1.7227 4.1094 1.7227-8.5508-10.676-10.039-2.6914 7.3242-6.543 157.25-4.3242 167.77 3.1875 1.3945 0.96875 2.3633 7.8672 2.3398 0.80469 0 5.7383-1.0859 6.8047-1.3711l45.637-13.938c21.52-5.7383 40.723-11.812 60.969-17.41 24.496-6.8047 104.08-25.676 120.14-34.723 20.078 5.8594-15.59-6.543 5.5273 2.6445 1.7734 0.78125 1.6055 1.4648 6.4961 2.5039l5.6914-155.6 17.598-4.2031c0.44922 32.219-0.73047 62.242-1.3477 93.66-0.68359 36.922-8.5742 63.285 17.363 80.316-8.8125 8.9531-63.52 22.133-76.984 26.219-26.219 7.9609-53.766 15.379-79.418 22.844l-119.57 33.211c-14.527 4.0625-33.875 4.2539-39.496 6.6836 11.645-40.156 11.668 17.715 14.715-97.227 1.0156-38.766 0.875-75.285 1.6992-114.09 0.70703-0.49609 1.7734-2.1953 2.125-1.5586 0.33203 0.61328 1.5352-1.2031 2.0078-1.5117 15.262-10.465 246.19-78.211 262.56-80.055 16.914-1.8906 22.395 9.2617 31.867 16.699-7.3477 5.4336-22.559 7.9609-31.512 10.535-12.117 3.4961-22.676 6.6836-34.891 10.395l-138.8 38.598c-20.812 6.0234-52.914 12.66-70.723 19.512zm-255.12-101.62c0.35547 12 95.387 35.102 109.63 39.355 29.27 8.7148 97.156 25.227 119.32 37.652-16.395 38.621 10.465 169.32-22.109 218.41-11.738-2.1016-50.293-17.668-65.008-23.812l-126.99-53.363c-22.512-9-45.781-16.844-66.379-25.82 7.0156-25.723 10.746-17.836 19.559-24.047 0.54297-0.40234 1.3008-1.0859 1.7734-1.4648l3.2344-3.4492c15.852 10.867 37.82 18.707 58.465 25.984l149.95 60.285c5.3398 2.0547 10.938 4.0625 14.715 6.6133 10.418 7.0625 14.715 11.363 13.914-14.125-0.23438-7.0156 0.23438-14.031 0.21094-21.094-0.16406-28.582 1.6758-109.82 7.1094-129.12-5.8125-3.4258 4.3477 0.42578-6.5898-3.4727l-181.11-53.574c-5.1484-1.6055-8.293-2.3398-13.844-3.9453-32.93-9.4258 13.109-12.262-49.254-13.133l33.402-17.883zm201.16-3.8516c7.0391 0.875 12.945-0.21094 17.125 0.61328 9.9453 2.0078-3.0938 4.8438 15.117 3.9453 15.426-0.75781 17.316-2.5742 35.34-0.54297-5.6445 8.1484-6.0938 8.4336-33.781 6.3789-13.512-1.0156-25.039-3.5898-38.527-6.2852 6.7305-1.0156 2.8359-1.7969 4.7227-4.1094zm-58.324 2.0781c17.27 1.6992 64.773 9.875 73.559 17.715-20.551 0.94531-53.789-4.9609-71.457-16.109-0.54297-0.35547-1.3945-1.0625-2.1016-1.6055zm58.324-2.0781c-11.859-1.8438-12.473 0.66016-21.141-0.09375-18.707-1.6289 6.9688-4.9844-36.094-7.2773-22.699-1.2266-14.41-2.3398-17.195-4.8672 11.316-8.5508 22.746-5.3398 36.684-1.3242 8.5742 2.4805 35.434 9.3555 37.746 13.559zm83.27 9.5898 7.5117-7.8438c2.2695-0.80469 29.504 2.1953 41.691-1.2773 17.621-5.0078 21.637-16.133 47.172-16.156-10.844 17.598-68.93 26.34-96.379 25.277zm-161.24-25.18-14.27 0.70703c8.5039-4.9844 7.8672-3.9453 14.27-0.70703zm92.836-2.6445-15.969 1.0156c4.1094-3.7305-6.1641-4.3008 7.2773-4.8438 18.047-0.70703 4.1328-0.40234 8.6914 3.8281zm139.02-8.0781c-10.723 4.9375-6 5.5273-16.535 3 4.9141-3.2852-1.2773-2.2422 7.418-3.4023 4.8672-0.66016 4.7734 0.046875 9.1172 0.40234zm-50.48 3.5898c15.945-1.7734 22.465-4.582 35.551 0.58984-13.605 14.055-5.9531 0.92188-30.211 7.4883-31.867 8.6211-18.73-0.28516-30.758-1.5586-10.605 1.8906-22.371 4.9609-35.148 2.3633-3.2344-0.66016-9.7578-1.9141-15.426-3.1172-6.3789-1.3711-2.1484 1.1328-5.5039-1.8438l-1.9844-3.3555c-5.2422-9.4727 2.2422 5.0078-1.4883-4.5586 24.852 4.0625 24.637-8.5977 36.141-3.5195-9.8047 5.9297-9.875 1.0859-20.102 9 13.82 9.9688 49.773 3.0703 69.094 0.58984l-6.0938-4.9844c-5.0781-4.418-0.42578 1.4414-2.7383-2.7148 14.812-3.1875 19.652-6.3789 36.164-3.8281-14.953 3.7305-14.34-3.4492-27.496 9.4492zm-79.938-13.535c2.9531-1.8906-5.3164-2.9766 6.7578-3.332 15.898-0.44922 5.0781 0.56641 8.4336 3.332-12.023 6.707-11.148 2.3398-15.188 0zm-117.88-3.9922 2.3398 5.5742zm245.1-3.8984c9.4492 1.2266 17.078 0.58984 22.914 4.8906-7.6992 14.527-16.324 3.9922-22.914-4.8906zm-29.527 0.40234 6.8281 3.1875c-12.684-0.47266-4.3008-0.80469-6.8281-3.1875zm-175.23 9.0234c28.676-4.7227 0 4.3477 40.652 5.9062l-51.449 0.070313c8.6211-13.82-13.652-10.652 12.379-11.906l-2.4805 1.0625c-0.046875 0.35547 1.3242 3.9688 0.89844 4.8672zm-24.613-5.5273-2.7656 2.125c-4.7227-0.61328-0.70703 0.54297-4.5117-1.582zm259.23-4.3945 8.0547 4.4414c-8.7656-1.3242-3.707 1.7461-8.0547-4.4414zm-168.59 15.52-2.1953-4.4648c-6.7812-11.457-3.8984-5.3867-11.527-11.668l21.613-2.3633c-6.9688 6.9453-3.9922 9.4492-7.8906 18.496zm-40.984-15.141c5.9766-4.0859 5.0781-3.6133 14.906-4.4648-5.8359 4.5117 6.8984 0.94531-8.2188 4.9141-5.5273 1.4414-2.9766 0.61328-6.6836-0.44922zm-52.062-3.9922c0.16406-4.7227 6.5195-7.6055 4.5586-0.73047-1.7461 6.1172-4.6523 3.0469-4.5586 0.73047zm113.15-3c19.891-9.7305 24.234 2.5742 27.922 6.9219 11.457-0.94531 12.473-2.5508 21.141 2.0781-36.402 2.1016-28.039 5.6914-49.062-9zm43.582-2.5508 29.148 1.5586c-10.109 6.6836-19.984 3.4961-29.148-1.5586zm20.953-9.4492c8.9297-5.6211 34.133 4.7969 45.332 8.6445-4.4648 2.5508 9.9453 7.0859-23.27-1.0859-9.1172-2.2422-16.039-3.0703-22.062-7.5586zm-150.02 10.914c33.117-21.188 42.426-8.3398 52.465-8.8359 7.3477-0.35547 14.316-4.1328 20.125-4.2031 11.457-0.14062 3.4492 6.5195 32.691-3.3789 0.51953-0.16406 1.2539-0.63672 1.7461-0.80469l26.148 4.4648c9.5195 3.9219 4.0391 1.9141 7.6758 5.2188-16.488-3.9453-24.707-8.2422-31.652-4.418-1.6523 0.92188 9.1406 3.1172-21.094 5.1953-14.715 0.99219-12.613-2.8594-30.023 0.14062-8.5508 1.4648-21.707 5.4805-29.008 5.3633-7.7227-0.11719-19.156 1.9375-29.078 1.2539zm98.789-44.598c-2.4805-10.18 0.14062-59.574 15.379-45.355 5.9062 5.5039 1.8438 21.094 0 29.34-2.4336 10.699-4.0156 15.234-15.379 16.016zm34.773-27.164c9-2.6445 5.2188 0.63672 5.7891 1.6758l-14.031 3.0703c3.6367-3.4023-1.9375-1.7734 8.2422-4.7461zm67.891-162.09c10.582-4.3477 31.723-9.7812 44.172-13.961 15.758-5.293 26.598-11.102 40.867-16.301 4.0391-1.4883 81.234-26.738 82.891-31.676 0.33203-0.96875 1.418-0.70703 2.125-1.0391 13.062 12 31.133 36.449 35.668 57.188-38.836-0.33203-66.141-3.7812-106.35-0.070312-28.062 2.5742-70.746 8.2188-99.379 5.8594zm140.05-103.75c12.188 19.938-2.8125 23.434 24.52 34.676-2.6445 2.4336-1.5586 2.0312-5.8125 4.6055-16.699 10.039-150.83 57.73-162.19 58.227l143.48-97.512zm-197.62 116.08c22.016-18.141 41.055-25.18 77.598-56.574 38.715-33.234 79.133-70.348 103.28-115.37 12.07 11.172 15.992 32.293 15.07 50.574-18.828 9.4023-21.969 19.039-45.047 36.094-14.41 10.652-29.195 21.188-47.953 30.117-31.797 15.117-72.758 51.875-102.95 55.156zm180.05-179.71c-2.9766 2.0078-12.805 3.8281-13.512 8.6445-4.3008 29.27-35.219 54.379-54.73 73.676-8.5273 8.4336-13.418 15.543-23.859 24.141-17.102 14.078-32.434 28.938-52.277 40.746-21.969 13.109-37.086 31.488-60.141 34.227-5.5742 7.7969 0.046875-7.5586 0.21094 1.3945 0.11719 7.1328-20.953 14.738-23.316 23.148 10.301-3.1406 17.41-10.254 27.781-15.07 50.434-23.457 187.61-25.676 247.49-24.828 19.984 0.28516 25.465 4.4414 41.766 5.1719l19.914 49.512-86.738-21.566c-48.707-11.738-141.9-23.906-188.5-4.3242-24.188 10.18-55.301 15.613-71.195 33.117l-12.473-4.9844c-10.797 18.637-23.668 122.15-21.969 148.18-36.992 8.8359-111.07-0.26172-110.88 52.348 0.09375 26.93 13.133 18.781 12.188 41.574 23.766 1.6289 41.293 8.3633 69.309 12.758 46.039 7.2031 48.07 4.6055 84.684 5.9531 23.691 0.875-3.0938 8.8125 65.766-0.23437 33.496-4.3711 41.598-20.316 53.172-22.203 10.156-1.6523 12.73-4.5352 19.016-14.031l5.2422-11.148c0.070313-0.21094 0.35547-0.96875 0.58984-1.418 16.699 1.0391 74.34 9.5664 88.723 22.961-33.852 8.457-216.26 68.434-239.2 70.535-11.316 1.0391-228.64-64.133-240.21-70.984 5.5039-10.227 44.195-23.008 57.781-24.473 13.227-1.3945 12.898 2.6211 17.148-9.4727-14.789-7.6758-86.93 24.332-105.78 34.652-5.0312 2.7656-10.062 6.7305-14.48 9.4727-10.371 6.3555-9.3086 1.6055-15.07 12.922 8.2422 5.7148 8.0078 7.6523 20.102 7.8906-2.1719 26.668 2.8594 43.723-3.5195 67.395-6.6836 24.73-48.758 14.766-72.59 18.285-3.5664 5.8828-8.7891 11.316-5.668 22.844 3.5195 13.016 9.4258 9.2109 22.605 7.9844l50.766-3.3555c0.14062 18.379-10.652 27.047-18.566 41.953-6.4492 12.141-28.891 17.645-40.301 26.148 5.457 13.773 62.621 32.527 75.66 38.457 54.426 24.781 104.74 50.078 160.68 70.512 26.621 9.7305 55.844 27.496 81.852 35.27 0.49609-0.61328 1.1094-2.5039 1.3008-2.0312 0.1875 0.47266 0.94531-1.6055 1.2031-2.0312 0.37891-0.61328 1.5117-3.0938 2.1484-3.8984 4.0156-5.0078 0.28516-2.3867 9-5.8359 6.6836-2.6445 13.418-4.7227 19.984-6.6367 90.262-26.574 217.7-63.234 304.11-82.867 4.6758-12.566 8.293-33.758 3.3555-45.992-12.449-0.85156-6.543 1.9141-20.93 2.8359-19.441-29.031-18.023-7.6992-18.117-57.828l-0.99219-93.426c3.8047-23.836-0.42578 4.6758 5.2188-10.348 1.2031-3.2109-0.78125-5.0781-1.7227-14.148 12.332-2.1719 16.629 2.3633 28.844-1.418-4.3711-9.0938-17.598-18.898-26.457-25.582-17.055-12.875-12.309-11.859-36.164-17.48-30.188-7.0859-57.945-14.387-86.977-21.211-1.1094-19.086-7.6992-21.922-23.41-27.758-13.133-4.8672-27.332-10.441-37.418-13.938-19.062-6.5664-46.984-5.5977-67.82-9.8984l-22.418-4.9844c2.2188-2.4102 1.5352-1.6055 4.8906-4.2266 7.1328-5.5742 9.5664-11.34 13.488-22.629 18.828-2.9766 30.164-0.1875 28.914-20.434l-22.961-2.0547-10.984-19.605c-18.473-0.33203-21.758 8.9297-26.363 19.301-12.332-4.3242-17.008-7.4648-20.668 8.7656l19.535-5.9062c-2.9531 32.008-7.1328 15.262 3.4727 43.891l-31.961 3.543c-4.3945-14.668-2.3398-13.629-1.1562-27.449 3.6602 0.30859 7.6055 1.0391 11.242 0.80469l11.977-4.0156c-10.203-5.4805-11.031-3.1406-22.938-1.2539 1.6055-24.66 5.3867-34.629 9.543-56.953 5.1953-27.805-1.9375-33.945 19.82-46.371 14.27-8.1719 24.164-16.961 41.219-21.402 74.789-19.559 44.457-26.574 174.38-14.691 31.699 2.8828 123.4 24.285 148.91 42.613 19.203 13.797 36.234 26.859 48.211 47.977 10.441 18.473 10.441 26.031 27.379 38.598 8.9531 6.6133 6.6602 9.7305 18.707 14.387 18.543 7.1562 56.645 21.66 76.156 15.898l24.496-8.0781c28.891-7.6055 61.18-44.715 63.449-56.715 1.1562-6.0469-0.33203-4.6992-0.875-6.5898-14.766-1.0391-15.59 44.527-74.598 57.566-26.125 5.7891-34.465 4.7461-58.961-1.6523-30.875-8.0547-25.418-5.4805-44.953-24.309-22.062-21.262-13.773-18.188-28.652-40.371-12.262-18.262-25.039-27.262-43.371-40.629-11.102-8.1016-20.102-15.211-24.707-29.48-3.0703-9.4961-2.0312-17.195-7.2031-25.746-10.844-17.906-24.211-49.699-37.395-67.676-9.4492-12.898-33.023-25.844-36.426-32.738-6.4258-13.086-6.4727-41.316-12.332-56.668-12.707-33.379-35.34-72.309-16.512-108.64 14.148-27.379 14.34-19.559 13.699-54.566-0.56641-32.715 15.613-88.535 33.898-104.91 6.9922-3.5195 10.605-0.40234 16.535-2.1484 5.8828-1.7461-2.7148-0.16406 5.668-2.8359 16.371-5.2188 59.621-0.21094 71.102 7.6055 17.434 11.883 29.859 22.676 42.805 38.27 6.3086 7.6055 8.4336 7.8672 14.551 15.496l25.039 29.055c41.078 43.324 52.773 39.402 70.109 94.82 11.953 38.148-3.4961 37.82 21.898 86.242 14.906 28.418 33.023 33.141 40.039 71.125 9.5664 51.969-5.1953 73.535 21.758 140.17l6.9922 35.668c2.8359 18.52-1.3242 5.3867 5.6445 12.262-1.5586-37.652 2.457-30.262-10.156-62.195-29.242-74.078 6.0938-121.46-44.527-183.73-32.34-39.758-24.023-43.277-29.953-84.094-3.9219-27.211-18.969-61.324-37.016-77.031-10.227-8.9062-11.766-9.5898-20.316-18.758l-53.34-60.758c-9.332-10.676-29.27-29.859-38.715-36.332-24.262-16.582-24.613-15.164-60.234-16.039-28.18-0.68359-42-5.3164-57.496 15.426-34.109 45.707-25.723 73.441-30.355 123.16-1.5352 16.371-17.363 29.668-21.566 52.844-4.8672 26.859 3.6133 42.805 10.961 64.891z"/>
  <path d="m922.2 635.5c0.56641-0.30859 1.4414-1.582 1.6758-0.94531l7.6055 0.070312c4.5352 1.582 8.9766 5.2188 11.316 6.9219-11.551-0.49609-12.73-0.23438-20.598-6.0469zm-42.379-39.023c28.676-12.426 85.488-0.80469 119.12 1.1797 0.33203 15.613-25.441 43.227-60.66 33.473-45.449-12.566-8.3867 15.73-46.867-19.133-12.023-10.891-8.1484-11.219-11.598-15.52zm-162.33-282.97c9.4258-4.8906 35.219-23.715 42.285-29.457 42.164-34.371 54.805-68.078 80.055-111.97 3.0234-5.2188 2.3633-3.6133 3.875-5.5977 0.28516-0.40234 1.3242-0.66016 1.5586-1.6992 0.23438-1.0625 1.0391-1.1797 1.6289-1.6758 9.7578 6.9219 14.906 16.039 25.652 26.363 45.613 43.867 50.668 27.73 60.898 91.961 8.4805 53.172 42.402 89.387 49.203 104.22 5.0547 10.984 10.723 26.434 14.102 37.844l-10.746 1.2539c15.262 11.527 15.898 59.102 18.781 79.109 3.5664 24.828 20.293 62.883 3.6836 83.148-15.309 9-50.668 0.73047-69.922-1.4883-25.371-2.9297-49.961 3.8516-70.559 2.0312-19.395-49.227-35.812-44.27-40.18-64.062 18.707-9.1875 61.18-12.992 84.332-17.691 16.914-3.4492 81.285-7.9375 87.922-10.867-6.332-9.8516-7.0391-6.1406-21.707-4.8203l-118.02 17.34c-55.797 10.418-16.254-0.68359-40.867 14.34-15.262-22.441-26.836-38.457-32.387-75.707 42.094-17.598 39.59-18.285 88.465-34.039 16.301-5.2422 32.715-7.6523 49.062-11.242 8.0547-1.7734 15.426-4.418 23.195-6.6367 3.6836-1.0391 8.5273-1.8438 11.738-2.8125l11.102-5.0547c-14.457-6.9688-32.27 5.125-49.18 8.8828-39.875 8.8125-56.504 12.402-95.812 26.977-13.961 5.1719-31.348 15.828-41.789 18.285l-24.023-24.094c-23.668-20.148-38.504-75.426-42.355-102.83zm-9.3086-4.3477c-12.684-31.133-1.2031-75.094 7.7227-83.738 61.535-59.527 40.254-85.891 55.914-120.88 27.402 8.0078 59.148 26.172 68.883 47.551l-36.094 71.715c-15.992 24.355-75 81.188-96.426 85.348zm12.66-100.87c-0.68359-2.6914-0.16406-1.582 0.54297-5.0547 8.125-40.18-9.1641-101.34 44.195-104.53-7.1094 38.148-16.465 93.852-44.738 109.58zm-26.363 54.898c0.16406 49.039 1.9609 30.379 9.875 64.629 4.3711-1.7461 5.457-4.8906 8.6914-1.582 11.977 12.234-1.6758 52.961 45.543 97.254 10.582 9.9453 19.512 13.797 13.039 29.836 18.309 0.070313 4.6289 0.99219 20.836 38.527 7.4648 17.27 12 22.254 24.637 35.316 32.527 33.684 21.922 20.316 38.41 51.637 6.5898 12.473 8.8125 6.4023 4.2539 19.699 18.613 0.28516 14.457 6.6133 24.969 17.195 7.9609 8.0312 25.133 26.27 35.668 30.211 44.078 16.488 95.859-31.512 102.43-44.645 15.309-30.707 2.6914-47.195 0.80469-76.867-13.961-6.8516-11.715-13.746-15.188-57.164-10.605-132.76-43.133-62.434-73.254-220.98-3.1406-16.535-13.891-24-23.34-33.047-20.598-19.773-17.598-14.195-32.977-27.023-25.699-21.473-35.766-50.645-53.551-63.52-17.078-12.332-21.117-10.18-38.387-18.52-14.219-6.875-19.371-22.535-44.078-8.0078-29.078 17.125-27.094 49.844-28.039 89.195-0.49609 20.41-8.3398 28.395-16.418 40.441-11.078 16.512-15.758 22.652-7.2266 34.109l3.3086 3.3086z"/>
  <path d="m372.71 687.45c2.668-3.9219 2.2188 0.33203 3.1172-6.9219 0.046875-0.33203-0.35547-10.582-0.40234-11.93-0.89844-36.094 1.6758-100.23 20.008-127.49 10.559-15.684 12.684-29.387 39.875-44.125 27.117-14.668 12.449-1.6758 53.953-30.094 37.891-25.938 37.039-17.34 71.574-54.496 14.645-15.758 17.883-14.766 41.41-42.66 5.6211-6.6836 11.387-17.031 17.148-24.898 8.1484-11.148 32.551-39.094 35.078-50.883-10.488 1.7227-4.3711-1.4414-10.844 8.9062-24.07 38.504-71.293 97.016-106.37 124.94-17.504 13.914-32.48 21.426-52.914 34.203-10.371 6.4727-14.242 11.41-24.73 17.242l-40.699 22.254c-18.66 11.598-12.309 4.4414-30.473 35.645-19.418 33.332-19.488 88.961-20.34 128.41-0.046875 2.3398-0.28516 10.277 0.046875 12.141 2.9062 15.922 0.70703 4.5352 4.5586 9.7578z"/>
  <path d="m743.2 387.71c13.891-2.457 89.363-45.992 103.18-55.984 8.3633-6.0469 80.504-65.93 76.395-81.234-15.52-3.9922-5.1719 12.73-37.109 39.426-89.504 74.766-32.125 29.766-120.05 81.332-7.9609 4.6758-19.914 8.668-22.418 16.465z"/>
 </g>
</svg>
