<?xml version="1.0" encoding="UTF-8"?>
<svg width="1200pt" height="1200pt" version="1.1" viewBox="0 0 1200 1200" xmlns="http://www.w3.org/2000/svg">
 <g>
  <path d="m130.83 155.79c-6.6953 0.007813-12.457 4.7461-13.758 11.312-1.3008 6.5703 2.2148 13.145 8.4023 15.707s13.324 0.39844 17.047-5.168c3.7227-5.5664 3-12.984-1.7305-17.727-2.6484-2.6328-6.2266-4.1172-9.9609-4.125z"/>
  <path d="m192.68 213.38c-6.7227-0.011719-12.512 4.7305-13.832 11.32-1.3164 6.5898 2.2031 13.195 8.4102 15.77 6.207 2.5781 13.371 0.41016 17.109-5.1758 3.7344-5.5898 3.0039-13.035-1.75-17.789-2.6406-2.625-6.2109-4.1094-9.9375-4.125z"/>
  <path d="m184.38 130.36c0.011719-6.7227-4.7305-12.512-11.32-13.832-6.5898-1.3164-13.195 2.2031-15.77 8.4102-2.5781 6.207-0.41016 13.371 5.1758 17.109 5.5898 3.7344 13.035 3.0039 17.789-1.75 2.6367-2.6367 4.1172-6.2109 4.125-9.9375z"/>
  <path d="m237.84 182.25c-4.7383-4.7266-12.156-5.4453-17.715-1.7227-5.5625 3.7266-7.7188 10.859-5.1523 17.039 2.5664 6.1797 9.1406 9.6914 15.703 8.3828 6.5625-1.3086 11.289-7.0703 11.289-13.762-0.007812-3.7266-1.4883-7.3008-4.125-9.9375z"/>
  <path d="m964.92 692.3c-6.3086-0.070313-12.262-0.14063-17.734-0.32422-21.84-0.73828-42.066-8.8711-55.504-22.305-17.738-17.738-21.621-42.355-22.324-55.879 0.26172-6.9062-0.20312-41.75-32.957-74.504-23.043-22.738-54.48-34.906-86.828-33.609-33.402 1.2383-66.562 15.977-96.562 42.707l-330.49-307.66-20.375-56.141c-0.62891-1.7383-1.5977-3.3359-2.8438-4.6992l-13.66-14.922 26.891-26.887 6.2852 6.2852c5.4922 5.4922 14.395 5.4961 19.887 0.003906s5.4922-14.398 0-19.891l-32.461-32.461c-5.4922-5.4922-14.398-5.4922-19.891 0-5.4883 5.4922-5.4883 14.398 0.003907 19.887l6.2852 6.2852-26.016 26.016-48.215-52.676 29.195-29.191 6.2891 6.2852c2.6289 2.6719 6.2188 4.1836 9.9648 4.1992 3.75 0.015625 7.3516-1.4648 10.004-4.1172 2.6484-2.6523 4.1328-6.25 4.1172-10s-1.5273-7.3398-4.1992-9.9688l-32.465-32.465c-5.4922-5.4922-14.395-5.4922-19.887 0-5.4922 5.4922-5.4922 14.398 0 19.891l6.2891 6.2852-28.316 28.328-37.969-41.484c-2.5938-2.832-6.2266-4.4805-10.062-4.5625-3.8398-0.085937-7.543 1.4023-10.258 4.1133l-111.8 111.8c-2.7109 2.7148-4.1992 6.418-4.1133 10.258 0.082031 3.8359 1.7305 7.4688 4.5625 10.062l41.484 37.969-29.238 29.227-6.2852-6.2891c-5.4922-5.4922-14.395-5.4922-19.887 0-5.4961 5.4922-5.4961 14.395-0.003906 19.887l32.465 32.461c5.5039 5.4141 14.344 5.3789 19.805-0.082031 5.4609-5.457 5.4961-14.301 0.082031-19.805l-6.2852-6.2891 30.109-30.105 52.672 48.219-26.926 26.93-6.2852-6.2891c-5.4922-5.4922-14.398-5.4922-19.891 0-5.4922 5.4922-5.4922 14.395 0 19.887l32.465 32.457c5.5039 5.4141 14.344 5.3789 19.805-0.082031 5.4609-5.457 5.4961-14.301 0.082032-19.805l-6.2852-6.2891 27.801-27.801 14.922 13.66c1.3594 1.2461 2.9531 2.2109 4.6875 2.8438l56.145 20.375 307.7 330.53c-56.512 64.414-50.094 142.46-9.168 183.39 32.75 32.75 67.578 33.207 74.504 32.957 13.523 0.70312 38.141 4.5859 55.879 22.324 13.438 13.438 21.562 33.664 22.305 55.504 0.18359 5.4727 0.25391 11.43 0.32422 17.734 0.54688 47.867 1.2969 113.42 51.629 166.29 34.383 36.121 83.539 56.383 138.42 57.059 1.0039 0.015625 1.9961 0.019531 3.0039 0.019531 74.176 0 150.39-33.75 209.55-92.879v-0.011719l0.015626-0.019531 0.019531-0.015625c59.941-59.961 93.785-137.43 92.863-212.55-0.67578-54.879-20.938-104.04-57.059-138.42-52.852-50.34-118.41-51.09-166.27-51.641zm-260.67-8.418-404.1-404.09 11.109-11.105 409.84 381.52c-5.0898 11.305-11.418 24.242-16.852 33.676zm-644.66-533.75 91.012-91.012 126.05 137.7 17.762 48.934-48.191 48.191-48.934-17.762zm220.67 149.55 404.11 404.09c-9.4336 5.4297-22.371 11.754-33.676 16.855l-381.54-409.85zm795.22 775.37c-53.156 53.145-123.93 84.668-189.82 84.668-0.84375 0-1.6875-0.003906-2.5273-0.015625-47.922-0.58984-88.859-17.301-118.39-48.324-42.699-44.855-43.379-104.02-43.875-147.22-0.074219-6.4648-0.14453-12.574-0.33984-18.359-0.99219-29.312-11.832-55.75-30.527-74.441-18.324-18.324-45-29.184-75.117-30.562v-0.003907c-0.5625-0.03125-1.1211-0.023437-1.6797 0.023438-1.1094 0.074219-27.438 1.4062-53.586-24.738-38.938-38.938-26.484-100.37 8.6094-142.73l68.672 73.77h0.003906c4.0312 4.332 10.348 5.6719 15.793 3.3555 6.5625-2.793 34.344-14.852 52.094-26.25l28.945 28.945c-16.113 22.465-20.555 51.262-11.961 77.539 8.5977 26.273 29.203 46.875 55.477 55.473 26.273 8.5977 55.07 4.1562 77.535-11.957l124.22 124.22-54.098 54.098v-0.003906c-5.4883 5.4922-5.4883 14.398 0 19.887l38.473 38.477c5.4922 5.4922 14.398 5.4922 19.887 0l128.05-128.05c5.4922-5.4922 5.4922-14.395 0-19.887l-38.473-38.477v0.003906c-2.6367-2.6406-6.2148-4.1211-9.9453-4.1211-3.7266 0-7.3047 1.4805-9.9414 4.1211l-54.051 54.051-124.22-124.22c16.113-22.461 20.555-51.258 11.961-77.527-8.5938-26.273-29.199-46.879-55.473-55.473-26.27-8.5938-55.066-4.1523-77.527 11.961l-28.961-28.961c11.41-17.746 23.465-45.52 26.25-52.094 2.3164-5.4453 0.97266-11.762-3.3594-15.797l-73.828-68.727c41.262-34.953 100.08-51.191 142.77-8.5156 26.148 26.148 24.809 52.477 24.746 53.438v-0.003906c-0.046875 0.60547-0.058594 1.2148-0.03125 1.8203 1.3789 30.109 12.238 56.785 30.562 75.117 18.695 18.695 45.133 29.531 74.441 30.527 5.7891 0.19531 11.898 0.26562 18.363 0.33984 43.199 0.49609 102.36 1.1719 147.22 43.875 31.027 29.531 47.738 70.473 48.324 118.39 0.82031 66.617-30.828 138.52-84.652 192.36zm-221.09-241.01-80.496-80.5c15.066-9.0781 33.414-10.91 49.98-4.9961 16.566 5.9141 29.602 18.949 35.516 35.516 5.9141 16.566 4.0781 34.914-4.9961 49.98zm-19.895 19.879c-15.066 9.0977-33.422 10.945-50 5.0352-16.578-5.9141-29.621-18.957-35.531-35.535-5.9141-16.578-4.0664-34.934 5.0312-50zm202.87 163.09-18.586-18.586 44.117-44.117 18.586 18.59zm-19.887 19.887-44.152 44.152-18.586-18.59 44.156-44.148z"/>
 </g>
</svg>
