<?xml version="1.0" encoding="UTF-8"?>
<svg width="1200pt" height="1200pt" version="1.1" viewBox="0 0 1200 1200" xmlns="http://www.w3.org/2000/svg">
 <g>
  <path d="m1046.7 396.67v68.332h68.332c-6.668-33.332-33.332-61.668-68.332-68.332z"/>
  <path d="m945 465h68.332v-68.332c-33.332 6.6641-61.664 35-68.332 68.332z"/>
  <path d="m1046.7 566.67c35-6.668 61.668-33.332 68.332-68.332h-68.332z"/>
  <path d="m320 646.67v-186.67c-126.67 8.332-228.33 111.67-235 238.33h183.33c30 0 51.668-23.332 51.668-51.664z"/>
  <path d="m1013.3 566.67v-68.332h-68.332c6.668 34.996 35 61.664 68.332 68.332z"/>
  <path d="m910 481.67c0-8.332 1.668-15 1.668-23.332h-383.33l-111.67-0.003907h-61.668v188.33c0 46.668-38.332 85-85 85l-185 0.003907v33.332c0 33.332 26.668 60 60 60h81.668v80h-86.668l-21.668-28.332c-5-6.668-16.668-8.332-23.332-3.332-6.668 5-8.332 16.668-3.332 23.332l26.668 35c3.332 3.332 8.332 6.668 13.332 6.668h405c5 0 10-1.668 13.332-6.668l26.668-35c5-6.668 5-18.332-3.332-23.332-6.668-5-18.332-5-23.332 3.332l-21.668 28.332h-88.332v-80h18.332c66.668 0 80-30 93.332-58.332 58.332-125 171.67-215 308.33-246.67l53.332-11.668c-1.6641-8.332-3.332-16.664-3.332-26.664v0zm-501.67 423.33h-148.33v-80h148.33zm280-365c-78.332 50-140 121.67-180 206.67-3.332 6.668-8.332 10-15 10-1.668 0-5 0-6.668-1.668-8.332-3.332-11.668-13.332-8.332-21.668 43.332-90 110-166.67 193.33-220 8.332-5 18.332-3.332 23.332 5 3.3359 6.668 1.6719 16.668-6.6641 21.668z"/>
  <path d="m276.67 326.67c10 0 73.332-10 170-26.668 1.668 11.668 11.668 18.332 21.668 20l-31.668 106.67h68.332l-31.668-106.67c11.668-1.668 20-10 23.332-20 93.332 16.668 160 26.668 170 26.668 18.332 0 31.668-13.332 31.668-31.668 0-18.332-15-33.332-31.668-33.332-10 0-73.332 10-170 26.668-1.668-11.668-13.332-21.668-25-21.668-13.332 0-23.332 8.332-25 21.668-83.332-15-158.33-26.668-170-26.668-18.332 0-31.668 13.332-31.668 31.668 0.003906 18.332 13.336 33.332 31.672 33.332z"/>
 </g>
</svg>
