<?xml version="1.0" encoding="UTF-8"?>
<svg width="1200pt" height="1200pt" version="1.1" viewBox="0 0 1200 1200" xmlns="http://www.w3.org/2000/svg">
 <g>
  <path d="m1005.4 268.32h-810.88c-11.227 0-20.363 9.1289-20.363 20.355v484.49c0 9.582 7.7617 17.348 17.348 17.348h816.91c9.5898 0 17.348-7.7695 17.348-17.348v-484.48c0-11.23-9.1367-20.359-20.363-20.359zm-14.332 487.51h-782.22v-452.82h782.22z"/>
  <path d="m35.02 976.42c7.8086 15.203 23.281 24.648 40.375 24.648h1049.2c17.09 0 32.562-9.4492 40.375-24.648 7.7891-15.215 6.4336-33.281-3.5312-47.152l-66.266-92.301-0.003906-548.29c0-49.488-40.262-89.75-89.742-89.75h-810.89c-49.48 0-89.742 40.262-89.742 89.75v548.28l-66.266 92.293c-9.9648 13.887-11.32 31.949-3.5312 47.164zm393.5-10.039 19.023-35.891h283.21l19.023 35.891zm-289.01-677.7c0-30.363 24.699-55.059 55.055-55.059h810.88c30.355 0 55.055 24.699 55.055 55.059v536.52l-920.99 0.003906zm-72.77 660.81 64.316-89.59h937.9l64.316 89.598c3.4375 4.7812 1.7305 9.3438 0.83203 11.082-0.88281 1.7422-3.6133 5.8008-9.4922 5.8008h-335.59l-32.512-61.363c-3.0156-5.6758-8.9141-9.2266-15.332-9.2266h-304.08c-6.418 0-12.32 3.5508-15.332 9.2266l-32.527 61.363h-313.85c-5.8789 0-8.6094-4.0586-9.4922-5.8008-0.89453-1.7383-2.6016-6.3008 0.83594-11.09z"/>
 </g>
</svg>
