<?xml version="1.0" encoding="UTF-8"?>
<svg width="1200pt" height="1200pt" version="1.1" viewBox="0 0 1200 1200" xmlns="http://www.w3.org/2000/svg">
 <g>
  <path d="m1103.3 370.8c-0.35938-4.6797-4.1992-8.3984-9-8.3984h-37.801l-3-55.441c-0.23828-3.3594-2.2812-6.3594-5.3984-7.8008-10.559-4.5586-24.602-8.0391-41.398-10.32l-1.5586-30.238c-0.23828-3.3594-2.2812-6.4805-5.3984-7.8008-73.328-31.801-326.65-9.9609-399.73 96.598-72.961-106.56-326.4-128.4-399.72-96.602-3.1211 1.3203-5.2812 4.3203-5.3984 7.8008l-1.6797 30.238c-16.801 2.3984-30.719 5.7617-41.398 10.32-3.1211 1.3203-5.2812 4.3203-5.3984 7.8008l-3 55.441h-37.688c-4.6797 0-8.6406 3.7188-9 8.3984l-36.359 537c-0.12109 2.5195 0.71875 4.9219 2.3984 6.7188 1.6797 1.8008 4.0781 2.8789 6.6016 2.8789h477.24c4.3203 25.68 26.52 45.238 53.398 45.238s49.078-19.68 53.398-45.238h477.24c2.5195 0 4.9219-1.0781 6.6016-2.8789s2.5195-4.3203 2.3984-6.7188zm-67.441-57.121 26.398 493.8c-145.92-13.922-284.28 25.199-423.96 74.398 65.762-44.879 186.36-109.44 384.84-103.8 2.6406 0.35938 4.9219-0.96094 6.7188-2.7617 1.8008-1.8008 2.6406-4.1992 2.5195-6.7188l-24.719-461.64c11.043 1.8047 20.645 4.082 28.203 6.7227zm-48.359-48.359 26.52 494.64c-218.4-3.7188-343.8 76.078-404.88 120.6v-513.72c55.801-103.92 302.04-128.64 378.36-101.52zm-396.48 101.52v513.72c-59.762-43.441-180.36-120.72-389.76-120.72-4.9219 0-10.078 0-15.121 0.12109l26.52-494.64c76.324-27.121 322.44-2.3984 378.36 101.52zm-398.64-59.762-24.719 461.64c-0.12109 2.5195 0.83984 4.9219 2.5195 6.7188 1.8008 1.8008 4.1992 3 6.7188 2.7617 198.6-5.6406 319.08 58.922 384.84 103.8-139.68-49.199-278.16-88.32-423.96-74.398l26.398-493.8c7.6836-2.7617 17.164-5.0391 28.203-6.7227zm-78.238 73.32h28.559l-23.52 436.68c-0.12109 2.6406 0.83984 5.1602 2.7617 7.0781 1.9219 1.8008 4.5586 2.7617 7.1992 2.3984 147.12-16.559 282.36 21.48 427.92 72.961l-478.08 0.003906zm485.88 564.24c-16.922 0-31.078-11.641-35.16-27.238h70.199c-3.9609 15.598-18.117 27.238-35.039 27.238zm42.961-45.242c145.56-51.48 280.8-89.52 427.92-72.961 2.6406 0.35938 5.2812-0.60156 7.1992-2.3984 1.9219-1.8008 3-4.4414 2.7617-7.0781l-23.402-436.56h28.441l35.039 519z"/>
  <path d="m648.96 423.36c1.3203 0.71875 2.7617 0.96094 4.0781 0.96094 3.2383 0 6.4805-1.8008 8.0391-4.9219 40.199-78.961 230.28-96.359 281.64-74.039 4.5586 1.9219 9.8398-0.12109 11.879-4.6797 2.0391-4.5586-0.12109-9.8398-4.6797-11.879-57-24.719-259.92-5.8789-304.92 82.441-2.2773 4.4375-0.47656 9.8359 3.9648 12.117z"/>
  <path d="m648.96 544.32c1.3203 0.71875 2.7617 0.96094 4.0781 0.96094 3.2383 0 6.4805-1.8008 8.0391-4.9219 40.199-78.961 230.28-96.359 281.64-74.039 4.5586 2.0391 9.8398-0.12109 11.879-4.6797 2.0391-4.5586-0.12109-9.8398-4.6797-11.879-57-24.719-259.92-5.8789-304.92 82.441-2.2773 4.4375-0.47656 9.8359 3.9648 12.117z"/>
  <path d="m648.96 665.28c1.3203 0.71875 2.7617 0.96094 4.0781 0.96094 3.2383 0 6.4805-1.8008 8.0391-4.9219 40.199-78.961 230.28-96.359 281.64-74.039 4.5586 2.0391 9.8398-0.12109 11.879-4.6797 2.0391-4.5586-0.12109-9.8398-4.6797-11.879-57-24.719-259.92-6-304.92 82.441-2.2773 4.4375-0.47656 9.8359 3.9648 12.117z"/>
  <path d="m648.96 786.24c1.3203 0.71875 2.7617 0.96094 4.0781 0.96094 3.2383 0 6.4805-1.8008 8.0391-4.9219 40.199-78.961 230.28-96.359 281.64-74.039 4.5586 2.0391 9.8398-0.12109 11.879-4.6797 2.0391-4.5586-0.12109-9.8398-4.6797-11.879-57-24.719-259.92-6-304.92 82.441-2.2773 4.4375-0.47656 9.957 3.9648 12.117z"/>
  <path d="m257.4 345.36c51.48-22.32 241.44-4.9219 281.64 74.039 1.5586 3.1211 4.8008 4.9219 8.0391 4.9219 1.3203 0 2.7617-0.35937 4.0781-0.96094 4.4414-2.2812 6.2383-7.6797 3.9609-12.121-45-88.32-247.92-107.16-304.92-82.441-4.5586 1.9219-6.6016 7.3203-4.6797 11.879 2.043 4.5625 7.3242 6.6055 11.883 4.6836z"/>
  <path d="m257.4 466.32c51.48-22.32 241.44-4.9219 281.64 74.039 1.5586 3.1211 4.8008 4.9219 8.0391 4.9219 1.3203 0 2.7617-0.35938 4.0781-0.96094 4.4414-2.2812 6.2383-7.6797 3.9609-12.121-45-88.32-247.92-107.16-304.92-82.441-4.5586 1.9219-6.6016 7.3203-4.6797 11.879 2.043 4.5625 7.3242 6.7227 11.883 4.6836z"/>
  <path d="m257.4 587.28c51.48-22.32 241.44-4.9219 281.64 74.039 1.5586 3.1211 4.8008 4.9219 8.0391 4.9219 1.3203 0 2.7617-0.35938 4.0781-0.96094 4.4414-2.2812 6.2383-7.6797 3.9609-12.121-45-88.32-247.92-107.16-304.92-82.441-4.5586 1.9219-6.6016 7.3203-4.6797 11.879 2.043 4.5625 7.3242 6.7227 11.883 4.6836z"/>
  <path d="m257.4 708.24c51.48-22.32 241.44-4.9219 281.64 74.039 1.5586 3.1211 4.8008 4.9219 8.0391 4.9219 1.3203 0 2.7617-0.35938 4.0781-0.96094 4.4414-2.2812 6.2383-7.6797 3.9609-12.121-45-88.32-247.92-107.16-304.92-82.441-4.5586 1.9219-6.6016 7.3203-4.6797 11.879 2.043 4.5664 7.3242 6.7266 11.883 4.6836z"/>
 </g>
</svg>
