<?xml version="1.0" encoding="UTF-8"?>
<svg width="1200pt" height="1200pt" version="1.1" viewBox="0 0 1200 1200" xmlns="http://www.w3.org/2000/svg">
 <g>
  <path d="m803.69 837.71h-240.59c-42.496 0-77.078 34.582-77.078 77.078s34.582 77.078 77.078 77.078h109.91c30.867 0 55.961 25.098 55.961 55.961 0 30.867-25.098 55.961-55.961 55.961l-474.34 0.003906 9.2266-22.594c3.7227 1.1758 7.5156 1.9219 11.289 1.9219 11.562 0 22.797-5.3047 30.07-14.902 0.066406-0.089844 0.10938-0.15625 0.17578-0.24219l87.957-120.35c0.33594-0.46484 0.37109-1.0508 0.65625-1.5391 0.42188-0.70703 1.0391-1.2734 1.3555-2.043l171.03-418.51c1.1641-0.23047 2.3555-0.23828 3.4648-0.71484 4.1797-1.8359 7.4727-5.2617 9.1094-9.5312l91.508-239.84 48.652 19.879c3.3398 1.3711 4.4453 4.0898 4.7969 5.5938 0.375 1.5039 0.61719 4.3984-1.7266 7.1406-49.949 58.195-83.801 128.77-97.906 204.15l-5.5508 29.605c-1.7266 9.1992 4.3555 18.086 13.555 19.812 1.0625 0.19922 2.1211 0.28906 3.1602 0.28906 8.0039 0 15.145-5.6836 16.672-13.863l5.5508-29.605c13-69.496 44.223-134.61 90.277-188.25 8.7773-10.215 12.141-24.121 9-37.211-3.1602-13.113-12.492-23.992-24.984-29.098l-49.391-20.176 0.28516-0.74219c5.2891-13.801 4.6953-28.477-0.25391-41.453 0.28516-0.52734 0.75391-0.92578 0.98437-1.4883l15.633-38.297c7.2969-17.844 7.207-37.457-0.26562-55.211-7.4531-17.777-21.402-31.574-39.227-38.871-17.867-7.2969-37.477-7.207-55.211 0.26562-17.777 7.4531-31.598 21.402-38.871 39.227l-15.656 38.297c-0.1875 0.45703-0.12891 0.95703-0.27344 1.4219-12.609 5.7461-23.277 15.883-29.309 29.73l-116.52 267.14c-1.8359 4.1797-1.8789 8.9336-0.17578 13.18 0.45312 1.1094 1.2852 1.9609 1.9453 2.9375l-171.02 418.47c-0.3125 0.76953-0.25 1.5586-0.44531 2.3438-0.14453 0.57422-0.55078 1.0391-0.63672 1.6367l-21.559 147.86c-1.9922 15.852 6.4922 30.852 20.508 37.992l-18.781 45.992c-0.007813 0.015624-0.011719 0.027343-0.019531 0.042968l-0.070313 0.17188c-0.40625 0.99609-0.36719 2.0195-0.57812 3.0352-0.23438 1.1289-0.68359 2.1797-0.68359 3.3789 0 0.03125 0.019532 0.066406 0.019532 0.097656 0.015625 2.2109 0.45703 4.3711 1.2891 6.3828 0.49219 1.1875 1.3398 2.1328 2.0781 3.168 0.54688 0.77734 0.90625 1.668 1.5859 2.3477 1.5664 1.5664 3.4414 2.8086 5.5195 3.6719 0.027344 0.011719 0.046875 0.039063 0.074219 0.050782 2.1016 0.86328 4.2656 1.2617 6.4141 1.2617h499.62c49.594 0 89.926-40.332 89.926-89.926s-40.332-89.926-89.926-89.926h-109.91c-23.77 0-43.117-19.348-43.117-43.117 0-23.77 19.348-43.117 43.117-43.117h240.59c9.375 0 16.98-7.6055 16.98-16.98s-7.6055-16.984-16.98-16.984zm-581.56 210.05c-1.0156 1.3047-2.7852 1.8125-4.2891 1.1289l-25.848-10.57c-1.5469-0.64062-2.4766-2.2344-2.3008-3.582l18.371-126.04 89.098 36.418zm157.83-572.16 97.855 39.992-163.41 399.86-31.641-12.922-66.215-27.07zm161.19-355.61c3.8477-9.4414 11.164-16.805 20.562-20.762 9.418-3.9141 19.812-3.957 29.23-0.13281 9.4414 3.8477 16.828 11.164 20.762 20.562 3.957 9.418 4.0039 19.789 0.13281 29.23v0.023437l-9.2188 22.555-8.1016-3.3125-0.011718-0.007812-54.461-22.266c-0.0625-0.023437-0.12109-0.03125-0.18359-0.054687l-7.9297-3.2383zm-45.547 70.18c5.3359-12.238 19.184-17.902 31.496-12.867l54.598 22.312c12.133 4.9883 18.195 18.98 13.492 31.238l-97.707 256.08-21.23-8.6719-90.23-36.891z"/>
  <path d="m954.39 837.71h-59.082c-9.375 0-16.98 7.6055-16.98 16.98s7.6055 16.98 16.98 16.98h59.082c9.375 0 16.98-7.6055 16.98-16.98 0-9.3711-7.6055-16.98-16.98-16.98z"/>
  <path d="m1027.3 837.71h-3.8906c-9.375 0-16.98 7.6055-16.98 16.98s7.6055 16.98 16.98 16.98h3.8906c9.375 0 16.98-7.6055 16.98-16.98 0-9.3711-7.6055-16.98-16.98-16.98z"/>
 </g>
</svg>
