<?xml version="1.0" encoding="UTF-8"?>
<svg width="1200pt" height="1200pt" version="1.1" viewBox="0 0 1200 1200" xmlns="http://www.w3.org/2000/svg">
 <g>
  <path d="m396.48 715.36 13.461 126.66c0.44141 4.1523 3.9414 7.3008 8.1172 7.2969h15.176c4.3789 0.003906 7.9805-3.4492 8.1602-7.8281l3.5664-87.23 31.164 25.004v79.141l-45.281 36.801c-1.8086 1.4727-2.9062 3.6484-3.0039 5.9805-0.10156 2.332 0.80078 4.5977 2.4766 6.2188l107.61 104.16 0.20312 0.15234 0.74219 0.59766 0.66406 0.42578 0.67578 0.35156 0.82031 0.32031 0.38281 0.14844 0.42188 0.085937 0.39062 0.078125 1.3828 0.13281 2.6172-0.4375h0.027344l92.438-31.699c2.5586-0.875 4.5195-2.9648 5.2305-5.5781 0.71094-2.6094 0.082031-5.4062-1.6836-7.457l-38.086-44.543-1.2695-114 42.406-11 12.961 157.41 0.003906-0.003906c0.34766 4.2344 3.8828 7.4961 8.1328 7.4922h15.176c4.3164 0.003906 7.8828-3.3516 8.1484-7.6562l10.629-171.52 107.44-27.875c3.5508-0.91797 6.0508-4.0938 6.1133-7.7617l1.2344-72.379c9.2227-9.9805 20.719-17.582 33.512-22.16 26.812-7.4844 53.992-13.594 81.43-18.297l1.8047-0.34375 13.34 162.02 0.003906-0.003907c0.34766 4.2344 3.8867 7.4922 8.1328 7.4922h15.176c4.3125 0.003906 7.8828-3.3516 8.1484-7.6562l10.734-173.22c46.32-10.695 83.395-24.227 92.711-48.859l0.52734-2.8789v-152.46l-0.20703-1.7773c1.2031-13.137-3.1719-26.172-12.059-35.918-27.535-26.445-63.258-42.711-101.28-46.117-33.895-5.2227-68.234-6.9297-102.48-5.0898 39.234-11.34 77.578-25.555 114.72-42.531 72.59-34.078 92.375-61.895 96.191-79.219h0.003906c1.3867-6.3164 0.79688-12.906-1.6914-18.875-2.4844-5.9688-6.7461-11.031-12.207-14.496-2.1836-1.5469-4.6406-2.6719-7.2383-3.3203l-39.262-32.59c-1.6602-1.375-3.793-2.0391-5.9375-1.8516-0.67969 0.058593-68.734 6.2148-130.52 18.238-47.605 9.2539-93.223 14.988-111.24 17.082l-22.762-30.555c-1.8438-2.4766-4.9258-3.6992-7.9648-3.1641l-222.12 39.238c-1.4453 0.25781-2.8008 0.89844-3.9141 1.8594l-240.14 207.39v0.003906c-1.5469 1.3359-2.5352 3.2031-2.7734 5.2344l-4.8906 42h0.003906c-0.25 2.1484 0.36328 4.3086 1.707 6.0078 1.3398 1.6953 3.3047 2.7891 5.4531 3.043l0.96094 0.054688 2.5117-0.42578 1.0742 0.082032h56.367l-0.94922 47.277-62.859 15.121-0.61719 0.20703-0.35156 0.10547-1.1406 0.55078-0.35156 0.19141-1.1602 0.90234-0.23828 0.26953-0.75781 0.87109-0.12891 0.14844-0.10547 0.20312-0.54687 0.96094-0.23828 0.53516-0.28125 0.875-0.14453 0.57031-0.10938 0.96094-0.042969 0.35156v87.801l-0.003906-0.003906c0 2.4727 1.125 4.8164 3.0547 6.3633zm28.918 117.63-10.969-103.23 14.711 11.805zm114.02 157.28-91.141-88.211 35.605-28.938 69.84 65.691zm15.34-72.906-62.316-58.609-0.003906-66.402 40.539 32.523 0.83203 0.55469 0.37891 0.23828 0.94531 0.42188 0.28125 0.125 2.6602 0.45312 1.6367-0.18359 0.16406-0.027344 0.23828-0.054687 14.625-3.793zm67.273 52.801-66.41 22.773 13.922-50.031 23.648-6.4805zm-50.957-44.609v-107.17l15.531-4.0312 1.1875 106.63zm102.82 22.078-12.57-152.65 22.387-5.8086zm123.78-204.89-103.98 26.973-0.58203-0.10938c-1.9336-0.10938-3.8438 0.47266-5.3828 1.6484l-34.527 8.957-1.2773-0.027344v-0.003906c-1.3555 0.12109-2.6602 0.58203-3.7891 1.3438l-53.066 13.766-0.41797-0.039063h-0.10156c-1.5039 0.019532-2.9727 0.46094-4.2383 1.2734l-44.082 11.434v-90.621l61.875-19.34c3.4102-1.0664 5.7266-4.2227 5.7266-7.793v-44.965l186.32-47.145zm163.19 46.387-12.867-156.22c7.7344-1.5117 15.359-3.0391 22.828-4.6094zm103.46-217.83c-11.438 24.879-78.262 37.711-137.33 49.055-28.031 4.8086-55.793 11.059-83.18 18.734-10.273 3.3945-19.859 8.5938-28.301 15.359l1.1406-66.75-0.027344-0.3125-0.058594-0.69531-0.17969-1.0781-0.18359-0.61719-0.44531-1.0664-0.14844-0.35938h-0.003906c-8.1445-14.902-10.129-32.402-5.5195-48.75 7.1875-14.648 20.719-25.168 36.688-28.52 26.812-7.4844 53.992-13.59 81.434-18.297 47.77-4.7695 94.078-19.18 136.12-42.363zm-95.93-217.91c0.96484 0.95703 2.1523 1.6523 3.457 2.0273 61.723 17.336 69.816 36 70.434 43.219 0.89063 10.453-10.59 19.77-20.688 24.574-3.6641 1.6367-7.4375 3.0117-11.297 4.1094-0.25781-5.8906-2.3867-11.539-6.0703-16.141-26.539-34.043-129.7-26.113-172.82-21.121v0.003906c-46.332 6.1602-92.301 14.785-137.71 25.836l-7.4219-42.824 69.805-12.941h0.003907c69.992-13.25 141.62-15.523 212.31-6.7422zm-215.84 206.9-32.43 8.1602-5.0664-29.242 40.988-12.336h0.003906c-3.1719 10.836-4.3594 22.156-3.5 33.418zm-40.305-37.273-2.0977-12.094 68.5-19.969v-0.003906c-5.3906 4.6992-10.051 10.172-13.828 16.242zm-4.9062-28.281-1.9961-11.52 257.07-74.688 1.9844-0.91797 0.003907 0.003907c6.3906 1.4727 12.566 3.7617 18.379 6.8086zm-374.05 84.434 159.38 122.43v14.348l-159.38-121.94zm-10-24.512-0.39453 0.12891-0.62109 0.20313-0.79297 0.35156-0.54297 0.28516-0.82812 0.58594-0.375 0.28516-1.0352 1.0977-0.039062 0.042969-0.14453 0.23828-0.62109 1-0.16016 0.34375-0.39453 1.0352-0.16016 0.60547-0.13281 0.84766-0.054688 0.64062-0.023438 0.26172 0.003907 18.906-5.2695-4.0312v-32.062l58.609-13.105 11.863 8.7031zm20.516 12 55.734-12.898 3.2891 2.3984-31.113 7.1211c-4.0625 0.91406-6.7812 4.7344-6.3164 8.8711 0.46484 4.1367 3.9648 7.2578 8.1289 7.25l1.8242-0.19922 44.879-10.258 3.7305 2.7383-32.691 7.9492c-4.0234 0.96484-6.6836 4.7891-6.1953 8.8984 0.49219 4.1094 3.9805 7.2031 8.1172 7.1953l1.9336-0.23828 46.031-11.191 5.2422 3.8398-32.082 7.8008 0.003906-0.003906c-4.0273 0.96875-6.6875 4.793-6.1992 8.9023 0.49219 4.1094 3.9805 7.1992 8.1172 7.1914l1.9336-0.23828 45.422-11.039 4.7383 3.4766-33.004 8.0391c-4.0234 0.96484-6.6875 4.7891-6.1953 8.8984 0.48828 4.1094 3.9766 7.2031 8.1172 7.1953l1.9336-0.23828 46.34-11.27 3.0508 2.2383-32.91 8h-0.003906c-4.0234 0.96875-6.6875 4.793-6.1953 8.9023 0.48828 4.1094 3.9766 7.1992 8.1172 7.1953l1.9336-0.23828 46.25-11.242 3.9766 2.918-33.07 8.0391v-0.003906c-4.0234 0.96484-6.6875 4.793-6.1953 8.9023 0.48828 4.1094 3.9766 7.1992 8.1172 7.1914l1.9336-0.23828 46.41-11.281 4.2227 3.0977-32.477 9.4766c-3.9062 1.1328-6.3828 4.9648-5.8086 8.9922 0.57422 4.0273 4.0234 7.0156 8.0898 7.0078l2.3086-0.30859 44.484-12.98 3.1523 2.3125-52.668 17.641-2.1992 1.1367zm2.4727-72.227 0.99609-50.355 238.74 158.16-18.203 4.5859v-0.003907c-3.5508 0.89453-6.0742 4.043-6.168 7.7031l-0.97266 37.23zm14.473-61.016 49.164-9.0977 249.73 159.38-52.215 13.137zm241.36 91.996-1.9922 0.92578-13.508-8.6211 82.426-23.945 1.3789 11.73zm70.234-3.4766 1.4844 12.633-41.324 12.438-14.473-9.2344zm-104.04-15.898-13.16-8.3984 110.55-32.27 1.4062 11.965zm-31.441-20.07-13.789-8.8008c26.312-7.5117 80.48-22.629 139.64-37.113l1.043 8.8789zm-32.137-20.504-71.32-45.516 222.09-41.172 5.2812 44.945c-74.402 18.168-141.36 37.461-156.05 41.742zm145.92 93.133 25.117-7.5586 2.9961 25.496zm23.977-157.09 29.625 170.95-9.2461 2.3281zm21.84 30.496c33.168-7.6797 62.703-13.844 88.375-18.422l-87.16 25.441zm6.0703 35.039-2.0508-11.824 174.38-50.898 3.2148-1.8516 0.003906 0.003906c15.75-0.88281 31.539-0.9375 47.297-0.16797zm291.43-38.867v0.003906c0.027343 1.1914-0.09375 2.3828-0.36719 3.5469-12.395 2.9453-27.32 6-43.148 9.1406zm-112.19-255.23c53.195-10.348 111.2-16.297 125.52-17.68l19.734 16.379c-10.492 0.58984-24.141 2.0742-42.113 4.8516-35.012 5.4141-76.574 14.098-113.24 21.75-26.363 6.4141-53.086 11.234-80.027 14.441-14.031-1.9102-14.949-20.895-15.012-23.32 21.531-2.6406 62.547-8.1367 105.14-16.422zm-598.18 226.12 236.04-203.85 214.95-37.977 17.727 23.805-0.23828 2.1602-234.48 34.02v-0.003906c-1.543 0.22266-2.9922 0.88281-4.1719 1.9062l-232.27 201zm12.871 29.398 225.83-195.42 238.97-34.668c0.78516 7.4375 3.9531 14.426 9.0273 19.918 5.0781 5.4961 11.793 9.2031 19.148 10.574 28.914-2.2539 57.562-7.1562 85.582-14.641 36.48-7.6211 77.805-16.254 112.4-21.602 53.922-8.3359 63.262-3.9531 64.582-2.9883 2.918 1.5586 5.2422 4.0352 6.6133 7.0508 1.3711 3.0117 1.7109 6.3906 0.96875 9.6172-4.1562 18.863-36.75 44.266-87.191 67.953h-0.003906c-76.902 33.512-157.44 57.961-240 72.852l-3.1797 1.4062-45.738 8.4805-19.023-109.78c-0.75781-4.3906-4.8984-7.3594-9.3008-6.668l-7.8438 1.2266c-4.3359 0.67578-7.3594 4.6602-6.8438 9.0156l13.141 111.74-241.38 44.754c-1.7812-0.26172-3.5977 0.078125-5.168 0.95703l-69.152 12.812-0.066406 0.019531-0.48828 0.12891-0.94531 0.28906-0.51172 0.23828-0.81641 0.43359-0.49609 0.35156-0.69922 0.57031-0.42578 0.42578-0.62891 0.76953-0.23828 0.28125-0.050781 0.10547-0.57422 1.0781-0.16406 0.33984-0.42188 1.4414-0.046875 0.42187-0.054687 0.50781zm39.785 78.871 16.586 12.168-48.062 10.746-16.258-11.426zm-59.039 23.492 18.168 12.766v37.93c0 2.543 1.1836 4.9375 3.2031 6.4805l197.28 150.94h-0.003906c1.4258 1.0898 3.168 1.6797 4.9609 1.6836l3.6133-0.84375v-0.003906c2.7773-1.3711 4.5391-4.1992 4.5469-7.2969v-36.398l62.031-20.773 0.84375-0.35938 0.16797-0.070313 1.4648-0.94141 0.32031-0.25781 1.1797-1.2578 0.011719-0.015625 0.066406-0.10938 0.67969-1.1523 0.19922-0.46094 0.32031-0.92578 0.13281-0.49609 0.14453-1.0781 0.035156-0.35156v-0.054687l1.2188-46.641 185.76-46.801h-0.003907c4.1875-1.0547 6.8281-5.1914 6.0234-9.4336-2.6289-14.137-0.60156-28.746 5.7812-41.629 6.3789-12.887 16.77-23.355 29.605-29.832 43.348-15.156 87.969-26.383 133.32-33.555 30.684-4.6484 60.898-11.988 90.297-21.941 8.5273-2.9453 15.961-8.418 21.305-15.688 5.3477-7.2695 8.3594-15.992 8.6328-25.012l-0.058593-0.52734c5.5664 7.0391 7.2578 16.387 4.5117 24.93-9.7266 25.707-77.797 38.785-137.86 50.32h0.003907c-28.031 4.8086-55.797 11.062-83.184 18.734-20.746 4.668-38.133 18.742-47.02 38.062-5.8789 17.414-5.1289 36.387 2.1094 53.281l-193.36 48.93v-0.003906c-3.625 0.91797-6.1602 4.1836-6.1562 7.9219v45.32l-61.875 19.34v0.003906c-3.4062 1.0625-5.7266 4.2188-5.7266 7.7891v90.16l-252.72-202.75z"/>
  <path d="m341.17 1021.1c0.23047 4.3359 3.8203 7.7344 8.1602 7.7266h15.18c4.2305 0 7.7617-3.2344 8.1289-7.4531l12.215-140.32h0.003907c1.1953-1.0898 2.0391-2.5078 2.4219-4.0781 4.8555-16.992 8.2422-34.367 10.125-51.938l-0.035156-0.38281-0.046876-0.53906-0.035156-0.13672-0.35938-1.4023-0.078125-0.17188-0.52734-1.1094-0.16406-0.28125-0.71875-0.96094-0.23828-0.28516-0.85547-0.80078-0.23828-0.19531-122.02-97.41c-1.8711-1.4961-4.3008-2.0898-6.6484-1.6367l-139.6 27.121-0.32031 0.082031-0.45703 0.11328-1.4375 0.57422-0.085938 0.054688-1.1016 0.71875-0.33203 0.27734-0.76172 0.73438-0.23828 0.26953-0.79297 1.1406-0.125 0.25391-0.45312 1.0312-0.14453 0.45703-0.12891 0.36328-0.11328 0.68359-0.066406 0.37109-0.027344 1.4414v0.12109l4.9531 59.648c0.19531 2.3359 1.3828 4.4766 3.2656 5.875l12.672 9.4258 12.52 139.4-0.003906 0.003906c0.375 4.2109 3.9023 7.4375 8.1289 7.4375h15.18c4.375 0.003906 7.9727-3.4375 8.1602-7.8047l4.5117-102.96 47.324 35.207 10.219 151.99 0.003906 0.003906c0.28906 4.2852 3.8477 7.6133 8.1445 7.6133h15.176c4.2344 0 7.7656-3.2383 8.1328-7.457l12.812-147.58 44.031-11.316zm15.875-8.9141-6.4414-121.32 17.395-4.4688zm-188.85-51.934-10.484-116.71 15.102 11.238zm79.902-69.824-107.92-80.277-3.0898-37.199 111.01 87.977zm-101.72-130.95 118.48-23.008 106.23 84.812-112.86 26.844zm115.64 285.56h-0.058594l-8.7969-130.83 0.33594 0.15234 0.78516 0.21484 0.67188 0.16406 0.69922 0.058594 0.59766 0.050782 1.75-0.19531 0.11719-0.019531 0.16797-0.035156 15.398-3.957zm2.3984-148.88v-32.734l115.22-27.402c-1.6172 8.4453-4.3359 20.754-7.0859 32.348z"/>
 </g>
</svg>
