<?xml version="1.0" encoding="UTF-8"?>
<svg width="1200pt" height="1200pt" version="1.1" viewBox="0 0 1200 1200" xmlns="http://www.w3.org/2000/svg">
 <g>
  <path d="m1017.7 485.4h-836.8c-19.898 0-36.148 15.449-36.148 34.352v472.2c0 18.898 16.199 34.352 36.148 34.352h836.8c19.898 0 36.148-15.449 36.148-34.352v-472.2c0.003906-18.949-16.199-34.352-36.148-34.352zm-3.8984 40v335.05c-97.051-80.398-222.05-127.9-227.95-130.15-4.6016-1.6484-9.5508-1.6992-14.051 0.050781-6.5 2.3984-158.35 60-246.25 129.55-55.75-31.801-95.449-43.898-98.398-44.75-4.0508-1.1992-8.6992-1.0508-12.801 0.55078-4.5 1.75-107.65 42.949-229.55 157.65v-447.95zm-384.4 460.8h-399.8c91.848-82.199 170.4-120.6 192.75-130.5 24.5 8.6523 114.15 44.652 207.05 130.5zm57.551 0c-42.898-44.551-86-78.301-124.55-103.65 73.648-53.852 187.05-100.5 216.4-112.05 30.449 12.25 153.65 65.199 235 143.7v71.949h-326.85z"/>
  <path d="m417.8 754.85c46.301 0 84-37.699 84-84 0-46.301-37.699-84-84-84s-84 37.699-84 84c0 46.297 37.75 84 84 84zm0-127.9c24.199 0 43.949 19.75 43.949 43.949 0 24.199-19.75 43.949-43.949 43.949s-43.949-19.75-43.949-43.949c0-24.199 19.75-43.949 43.949-43.949z"/>
  <path d="m1196.4 1124.1v-736.35c0-24.602-20-44.648-44.602-44.648h-18.148c-0.35156 0-0.69922-0.050782-1.0508-0.050782l-57.949-0.050781h-0.050782c-0.39844 0-0.80078 0.050781-1.1992 0.050781l-144-0.050781-229.05-220.05c-6.0508-51.5-49.449-91.75-102.55-91.75-54.602 0-99 42.602-102.9 96.352l-224.1 215.35-222.55-0.050781c-24.602 0-44.648 20-44.648 44.648v736.6c0 24.602 20 44.648 44.648 44.648h1103.6c11.898 0 23.148-4.6992 31.602-13.148 8.3984-8.4492 12.996-19.699 12.996-31.5zm-598.6-1052.9c35.148 0 63.699 28.551 63.699 63.699 0 35.102-28.551 63.648-63.699 63.648-35.102 0-63.602-28.551-63.602-63.648 0-35.098 28.5-63.699 63.602-63.699zm-95.301 104.45c15.852 37 52.602 63 95.301 63 43.898 0 81.352-27.5 96.449-66.102l177.4 170.5-543.2-0.14844zm653.85 948.45-4.5508 4.6016h-1103.6c-2.5508 0-4.6016-2.0508-4.6016-4.6016v-736.65c0-2.5508 2.0508-4.6016 4.6016-4.6016l1103.5 0.30078c2.5508 0 4.6016 2.0508 4.6016 4.6016z"/>
 </g>
</svg>
