<?xml version="1.0" encoding="UTF-8"?>
<svg width="1200pt" height="1200pt" version="1.1" viewBox="0 0 1200 1200" xmlns="http://www.w3.org/2000/svg">
 <g>
  <path d="m1200 600c0-90.75-212.62-192.38-368.44-227.06-5.8125-28.125-27.188-114.38-77.438-163.5-1.875-1.875-4.5-2.8125-6.9375-2.625-73.312 3.75-341.81 102-419.62 180-3.1875 3.1875-3.5625 8.0625-1.125 11.625 13.125 19.688 23.812 37.5 33 54.375-72.562 42.562-123.19 86.438-141.19 103.12-18.188-30.938-80.438-121.12-205.5-171.38-3.9375-1.5-8.625-0.1875-11.062 3.5625s-1.875 8.4375 1.125 11.625c26.625 26.625 56.438 159.75 56.438 229.88 0 68.438-30.188 203.62-56.438 229.69-3 3-3.5625 7.6875-1.3125 11.438 1.6875 2.8125 4.6875 4.3125 7.875 4.3125 0.9375 0 1.875-0.1875 3-0.5625 84.75-28.312 175.12-115.88 206.06-168.56l18.188 13.125c98.812 71.062 218.44 156.94 373.69 179.62-18.75 19.688-42.188 46.5-52.5 66-1.3125 2.625-1.3125 5.625-0.1875 8.25 1.3125 2.625 3.75 4.5 6.5625 5.0625 6.375 1.3125 12.188 2.4375 18 3.75 28.312 6 53.625 11.438 115.5 11.438 16.125 0 34.875-0.375 56.812-1.125 3.375-0.1875 6.375-2.0625 7.875-5.0625 12.938-25.312 26.25-63 34.125-97.5 29.25-7.5 58.688-17.438 87.75-29.438 141.38-56.438 315.75-172.88 315.75-260.06zm-308.44 237c-5.25 2.25-10.5 4.3125-15.75 6.5625-7.875 3.1875-15.562 6.1875-23.25 8.8125-2.625-4.6875-5.0625-9.5625-7.5-14.25-2.0625-4.125-4.3125-8.0625-6.1875-12.188-2.8125-6-5.4375-12-8.0625-18.188-1.875-4.3125-3.9375-8.625-5.625-13.125-2.4375-6-4.5-12-6.75-18-1.6875-4.5-3.375-9.1875-5.0625-13.688-2.0625-6-3.75-12-5.4375-18-1.3125-4.6875-2.8125-9.375-4.125-14.062-1.6875-6.1875-3-12.375-4.3125-18.562-1.125-4.6875-2.25-9.375-3.1875-14.062-1.3125-6.375-2.25-12.938-3.1875-19.5-0.75-4.5-1.5-8.8125-2.25-13.312-0.9375-7.3125-1.5-14.438-2.25-21.75-0.375-3.75-0.75-7.5-1.125-11.062-0.75-11.062-1.125-21.938-1.125-33 0-9.1875 0.1875-18.375 0.75-27.562 0.1875-3 0.5625-6 0.75-9.1875 0.375-6 0.75-12.188 1.5-18.188 0.375-3.5625 0.9375-7.3125 1.3125-10.875 0.75-5.4375 1.3125-10.875 2.0625-16.312 0.5625-3.75 1.3125-7.6875 2.0625-11.438 0.9375-5.25 1.875-10.312 2.8125-15.562 0.75-3.9375 1.875-7.875 2.625-11.812 1.125-4.875 2.25-9.9375 3.5625-14.812 1.125-3.9375 2.25-7.875 3.375-12 1.3125-4.6875 2.625-9.5625 4.125-14.25 1.3125-3.9375 2.625-8.0625 4.125-12 1.5-4.5 3.1875-9.1875 4.875-13.5 1.5-3.9375 3.1875-8.0625 4.6875-12 1.3125-3.1875 2.625-6.1875 3.9375-9.375 174.75 42 352.5 145.69 352.5 208.5 0 3.375-0.75 6.9375-1.5 10.5-14.438 60.75-144.75 164.81-287.62 226.31 0 0.75-0.375 0.9375-0.75 0.9375zm-89.062 31.125c-3 0.75-6 1.5-9 2.4375-43.312-82.5-66-175.88-66-270.38 0-74.812 14.812-148.69 44.062-219.75 4.875 0.75 12 1.875 19.5 3.1875 6.5625 1.125 13.125 2.625 19.688 3.9375-1.125 2.625-2.0625 5.4375-3.1875 8.25-1.6875 3.9375-3.1875 7.875-4.6875 12-1.6875 4.6875-3.375 9.375-5.0625 14.062-1.3125 4.125-2.8125 8.0625-4.125 12.188-1.5 4.875-3 9.75-4.3125 14.625-1.125 4.125-2.4375 8.0625-3.375 12.188-1.3125 5.0625-2.4375 10.125-3.5625 15-0.9375 4.125-1.875 8.0625-2.8125 12.188-1.125 5.25-1.875 10.5-2.8125 15.562-0.75 3.9375-1.5 8.0625-2.0625 12-0.9375 5.4375-1.5 11.062-2.25 16.688-0.375 3.75-0.9375 7.5-1.5 11.25-0.5625 6.1875-1.125 12.375-1.5 18.562-0.1875 3.1875-0.5625 6.375-0.75 9.5625-0.5625 9.375-0.75 18.75-0.75 28.125 0 11.25 0.375 22.688 1.125 33.938 0.1875 3.9375 0.75 7.6875 1.125 11.625 0.75 7.5 1.3125 14.812 2.25 22.312 0.5625 4.6875 1.5 9.1875 2.25 13.688 1.125 6.5625 2.0625 13.312 3.375 19.875 0.9375 4.875 2.25 9.75 3.375 14.625 1.5 6.1875 2.8125 12.562 4.3125 18.75 1.3125 5.0625 3 10.125 4.5 15.188 1.6875 6 3.375 12 5.4375 17.812 1.6875 5.25 3.75 10.312 5.625 15.562 2.0625 5.625 4.125 11.25 6.375 16.875 2.0625 5.25 4.5 10.5 6.75 15.75 2.4375 5.4375 4.6875 10.688 7.125 15.938 2.625 5.4375 5.25 10.688 8.0625 15.938 1.875 3.5625 3.375 7.125 5.4375 10.688-1.125 0.375-2.25 0.75-3.375 1.125-9.75 3.5625-19.5 6-29.25 8.625zm-426.94-424.88c-8.4375-15.375-18-31.312-29.438-48.75 78.938-71.625 324.75-162.38 398.06-169.12 40.312 41.812 60.375 112.31 67.5 142.88-5.625-1.125-11.438-2.25-16.875-3.1875-3.375-0.5625-6.5625-1.125-9.9375-1.6875-3.5625-0.5625-7.125-1.125-10.688-1.6875-8.4375-1.3125-16.875-2.625-25.312-3.5625-2.0625-0.1875-3.9375-0.375-6-0.5625-7.125-0.75-14.25-1.3125-21.188-1.875-2.625-0.1875-5.25-0.375-7.6875-0.5625-8.4375-0.375-16.875-0.75-25.125-0.75-11.25 0-22.5 0.5625-33.562 1.3125-3.1875 0.1875-6.375 0.375-9.5625 0.75-10.312 0.9375-20.625 1.875-30.938 3.375-4.125 0.5625-8.25 1.3125-12.562 2.0625-6.375 1.125-12.75 2.25-18.938 3.375-9 1.6875-18 3.75-27 6-4.125 0.9375-8.25 2.0625-12.375 3-21 5.625-42 12.375-63 20.25-0.75 0.1875-1.3125 0.5625-2.0625 0.75-12.375 4.6875-24.938 9.75-37.312 15.375-2.8125 1.3125-5.4375 2.4375-8.25 3.75-9.5625 4.3125-19.125 8.8125-28.5 13.688-7.5 3.75-14.812 7.6875-21.938 11.438-2.4375 1.3125-4.875 2.4375-7.3125 3.75zm-343.31 403.31c25.5-53.812 45.188-160.69 45.188-217.12 0-56.062-19.5-161.62-44.625-215.81 104.25 50.625 156.94 129.94 170.81 153.75l-81.562 54.375c-2.4375 1.6875-4.125 4.5-4.125 7.5s1.3125 5.8125 3.9375 7.6875l81 58.125c-23.062 40.875-95.438 116.25-170.62 151.5zm111.38-216.75 76.125-51c0.1875 0 0.1875 0 0.375-0.1875 0.5625-0.1875 0.9375-0.75 1.5-1.125l0.9375-0.5625c1.125-1.125 62.438-61.5 159.94-116.25 9.375-5.25 18.75-10.312 28.125-15.188 4.3125-2.25 8.8125-4.5 13.312-6.5625 7.875-3.9375 15.938-7.6875 23.812-11.062 5.4375-2.4375 11.062-4.875 16.875-7.3125 7.3125-3 14.625-6 21.938-8.625 6-2.25 12.188-4.5 18.375-6.5625 5.25-1.875 10.5-3.375 15.562-5.0625 7.875-2.4375 15.938-4.875 24.188-7.125 5.8125-1.5 11.438-3 17.25-4.5 6.75-1.6875 13.688-3.1875 20.625-4.6875 7.3125-1.5 14.438-2.8125 21.75-3.9375 3.75-0.5625 7.5-1.3125 11.438-1.875 10.312-1.5 20.625-2.625 30.938-3.375 2.8125-0.1875 5.8125-0.375 8.625-0.5625 11.25-0.75 22.5-1.3125 33.562-1.3125 8.8125 0 18 0.375 27.375 0.9375 2.0625 0.1875 4.125 0.1875 6.1875 0.375 8.8125 0.5625 18.188 1.5 27.562 2.625 0.9375 0.1875 1.875 0.1875 2.8125 0.375-29.062 72-43.875 146.81-43.875 222.75 0 96.375 23.062 191.25 66.562 275.44-30 6.75-59.25 10.688-87 10.688-188.62 0-328.88-100.88-441.38-182.06zm604.31 344.06c-98.625 3.5625-128.06-2.8125-162.19-10.125-1.6875-0.375-3.5625-0.75-5.25-1.125 10.688-15.75 29.062-37.125 52.5-61.125 18 1.875 36.562 3.1875 55.5 3.1875 27.938 0 57.375-3.75 87.375-10.125-7.125 28.125-17.438 57.562-27.938 79.312z"/>
  <path d="m924.94 472.5c-37.688 0-68.25 30.562-68.25 68.25s30.562 68.25 68.25 68.25 68.25-30.562 68.25-68.25-30.562-68.25-68.25-68.25zm0 118.12c-27.562 0-49.875-22.312-49.875-49.875s22.312-49.875 49.875-49.875 49.875 22.312 49.875 49.875-22.312 49.875-49.875 49.875z"/>
  <path d="m924.94 502.12c-21.375 0-38.812 17.438-38.812 38.812s17.438 38.812 38.812 38.812 38.812-17.438 38.812-38.812-17.438-38.812-38.812-38.812zm0 59.062c-11.25 0-20.25-9.1875-20.25-20.25s9.1875-20.25 20.25-20.25 20.25 9.1875 20.25 20.25-9 20.25-20.25 20.25z"/>
 </g>
</svg>
