<?xml version="1.0" encoding="UTF-8"?>
<svg width="1200pt" height="1200pt" version="1.1" viewBox="0 0 1200 1200" xmlns="http://www.w3.org/2000/svg">
 <path d="m1144.2 480c18.719-13.078 29.039-27.602 29.039-43.441v-60c0-84.84-295.32-130.56-573.24-130.56s-573.24 45.719-573.24 130.44v60c0 16.801 12 32.039 32.398 45.602l-8.6406 13.559c-15.891 24.629-26.02 52.527-29.637 81.613-3.6133 29.086-0.62109 58.613 8.7578 86.387l26.398 78.719c7.7109 22.961 10.453 47.301 8.0391 71.398l-12 127.44c-0.33984 3.3828 0.77344 6.7539 3.0625 9.2734 2.2891 2.5156 5.5391 3.9453 8.9375 3.9258h28.562c5.9453 0.078125 11.047-4.2109 12-10.078l20.52-128.28c4.5117-27.465 3.0781-55.578-4.1992-82.441l-17.52-64.801v0.003907c-7.1953-26.449-7.9336-54.242-2.1484-81.035 5.7852-26.793 17.922-51.801 35.387-72.926 101.64 30.84 260.52 48 419.16 51l12 253.2c0 3.1836 1.2656 6.2344 3.5156 8.4844s5.3008 3.5156 8.4844 3.5156h24c3.1836 0 6.2344-1.2656 8.4844-3.5156s3.5156-5.3008 3.5156-8.4844l12-252.96c166.56-1.6797 336-19.68 441-52.441v0.003906c17.82 21.168 30.242 46.344 36.199 73.367 5.957 27.023 5.2695 55.09-2 81.793l-17.52 64.801v-0.003906c-7.7188 26.77-9.6016 54.883-5.5195 82.441l20.398 127.92c0.95312 5.8672 6.0586 10.156 12 10.078h28.801c3.4023 0.015625 6.6523-1.4102 8.9414-3.9297 2.2891-2.5156 3.3984-5.8867 3.0586-9.2695l-12-127.44c-2.418-24.102 0.32422-48.441 8.0391-71.398l26.398-78.719 0.003906-0.003907c9.3789-27.77 12.371-57.297 8.7539-86.383-3.6133-29.09-13.746-56.984-29.633-81.617zm-544.2-210c340.32 0 549.24 62.039 549.24 106.44-1.5156 8.4414-6.4141 15.895-13.559 20.637-61.32 49.801-286.68 85.922-535.68 85.922s-474.36-36-535.68-85.801c-7.1719-4.7695-12.074-12.273-13.559-20.758 0-44.52 208.92-106.44 549.24-106.44zm-549.24 147 2.8789 2.0391 3.1211 2.2812 4.1992 2.7617 3.3594 2.1602 4.8008 2.7617 3.7188 2.0391 5.3984 2.7617 3.9609 1.9219 6.1211 2.7617 4.0781 1.8008 6.8398 2.7617 4.1992 1.6797 7.4414 2.7617 4.4414 1.5586 8.0391 2.7617 4.4414 1.4414 8.7617 2.6406 4.5586 1.4414 14.039 3.9609 9.9609 2.6406 4.8008 1.1992 10.559 2.5195 4.9219 1.1992 11.039 2.3984 5.0391 1.0781 12 2.3984 4.9219 0.96094 12 2.2812 5.0391 0.96094 12.84 2.1602 5.1602 0.83984 13.32 2.1602 5.1602 0.83984 13.801 2.0391 5.1602 0.71875 13.68 1.8008 6 0.83984 13.438 1.668 6.2383 0.71875 14.281 1.5586 6.2383 0.71875 14.52 1.4414 6.3594 0.60156 14.641 1.3203 6.7188 0.60156 14.641 1.1992h7.0781l15.238 1.0781h6.8398l14.398 0.83984h8.1602l14.281 0.71875h8.3984l14.762 0.60156h230.88l12.84-0.60156h9.6016l12.84-0.71875 9.2383-0.60156 12.84-0.83984 9.4805-0.71875 12-0.96094 9.6016-0.83984 12-1.0781 9-0.83984 12-1.1992 8.8789-0.96094 12-1.3203 8.5195-1.0781 12-1.4414 7.9219-1.0781 12-1.5586 7.5586-1.0781 11.281-1.6797 7.6797-1.1992 10.801-1.6797 7.3203-1.1992 10.68-1.8008 7.0781-1.3203 10.199-1.9219 6.9609-1.4414 9.7188-1.9219 6.7188-1.4414 9.4805-2.0391 6.3594-1.4414 9.1211-2.1602 6-1.5586 8.7617-2.2812 5.7617-1.5586 8.3984-2.3984 5.3984-1.6797 8.0391-2.3984 12.598-4.1992 4.8008-1.6797 7.0781-2.6406 4.4414-1.8008 6.6016-2.6406 4.1992-1.8008 6-2.7617 3.8398-1.9219 5.5195-2.7617 3.6016-1.9219 4.9219-2.7617 3.2383-2.0391 4.4414-2.8789 2.8789-2.0391 3-2.1602v19.32c0 44.398-208.92 106.44-549.24 106.44-340.31 0.003906-550.91-62.398-550.91-106.8zm29.398 258.48 17.52 64.801c6.3555 23.461 7.6211 48.008 3.7188 72l-19.078 117.72h-5.3984l11.156-114c2.7305-27.469-0.42188-55.203-9.2383-81.359l-26.398-78.719c-8.2344-24.383-10.859-50.305-7.6797-75.84 3.1758-25.535 12.078-50.023 26.039-71.641l9.3594-14.641c10.512 5.0547 21.285 9.543 32.281 13.438-17.832 23.738-30.012 51.23-35.605 80.387s-4.457 59.203 3.3242 87.855zm511.08 132h-0.60156l-10.922-240h22.441zm560.76-151.68-26.398 78.719c-8.7188 26.223-11.746 53.996-8.8828 81.48l11.281 114h-5.5195l-19.078-117.48h-0.003906c-3.9023-23.992-2.6328-48.539 3.7227-72l17.52-64.801c7.8789-28.934 8.9805-59.297 3.2148-88.723-5.7656-29.43-18.242-57.133-36.457-80.957 10.98-4.0586 21.719-8.75 32.16-14.039l10.559 16.441h0.003906c13.859 21.641 22.668 46.125 25.762 71.637 3.0977 25.512 0.40234 51.395-7.8828 75.723z"/>
</svg>
