<?xml version="1.0" encoding="UTF-8"?>
<svg width="1200pt" height="1200pt" version="1.1" viewBox="0 0 1200 1200" xmlns="http://www.w3.org/2000/svg">
 <g>
  <path d="m365.72 30c-66.164 0-119.99 53.836-119.99 120.01v899.98c0 66.176 53.828 120.01 119.99 120.01h468.55c66.172 0 120-53.832 120-120.01v-899.98c0-66.176-53.828-120.01-120-120.01zm556.32 1020c0 48.402-39.367 87.777-87.773 87.777h-468.55c-48.402 0-87.77-39.375-87.77-87.777v-127.05h644.09zm0-159.27h-644.09v-685.05h644.09zm0-740.71v23.441h-644.09v-23.441c0-48.41 39.367-87.789 87.77-87.789h468.55c48.402 0 87.773 39.383 87.773 87.789z"/>
  <path d="m648 95.965h-77.859c-8.9062 0-16.109 7.2148-16.109 16.109 0 8.8984 7.2031 16.113 16.109 16.113h77.859c8.9062 0 16.113-7.2148 16.113-16.113 0-8.8945-7.207-16.109-16.113-16.109z"/>
  <path d="m603.99 1102.9c40.141 0 72.805-32.656 72.805-72.805 0-40.148-32.664-72.812-72.805-72.812s-72.812 32.664-72.812 72.812c0 40.148 32.672 72.805 72.812 72.805zm0-113.39c22.375 0 40.582 18.207 40.582 40.582s-18.207 40.582-40.582 40.582-40.582-18.207-40.582-40.582 18.207-40.582 40.582-40.582z"/>
 </g>
</svg>
