<?xml version="1.0" encoding="UTF-8"?>
<svg width="1200pt" height="1200pt" version="1.1" viewBox="0 0 1200 1200" xmlns="http://www.w3.org/2000/svg">
 <g fill-rule="evenodd">
  <path d="m816.06 280.52c29.754 5.668 100.59 25.5 100.59 59.504v86.422 245.1c0 36.836-77.922 55.254-104.84 60.922-62.336 14.168-140.26 21.25-219.6 21.25v318.77l124.68 100.59c2.832 1.418 2.832 4.25 1.418 7.082l-9.918 11.336c-2.832 2.832-5.668 2.832-7.082 1.418l-109.09-89.258v85.008c0 2.832-1.418 4.25-4.25 4.25h-15.586c-2.832 0-4.25-1.418-4.25-4.25v-85.008l-109.09 89.258c-2.832 1.418-5.668 1.418-7.082-1.418l-9.918-11.336c-1.418-2.832-1.418-5.668 1.418-7.082l124.68-100.59v-318.77c-79.34 0-157.26-7.082-219.6-21.25-26.918-5.668-104.84-24.086-104.84-60.922v-245.1-86.422c0-36.836 77.922-55.254 104.84-60.922l29.754 19.836c-8.5 1.418-17 2.832-24.086 5.668-52.422 11.336-85.008 24.086-85.008 35.418 0 12.75 32.586 25.5 85.008 36.836 127.51 26.918 323.02 26.918 451.95 0 52.422-11.336 85.008-24.086 85.008-36.836 0-11.336-32.586-24.086-85.008-35.418-5.668-1.418-12.75-2.832-19.836-4.25l29.754-19.836zm-374.03-15.586c89.258-9.918 191.26-8.5 280.52 0l-32.586 22.668c-69.422-5.668-144.51-5.668-215.35 0zm119.01 240.85-68.004 102.01-75.09-111.93c45.336 5.668 93.508 8.5 143.09 9.918zm-168.59-14.168-68.004 100.59-43.918-128.93c17 7.082 39.668 15.586 68.004 21.25 14.168 2.832 28.336 5.668 43.918 7.082zm-124.68 14.168 32.586 92.09c-14.168-5.668-24.086-9.918-28.336-15.586-2.832-2.832-2.832-5.668-4.25-8.5zm76.504 104.84 59.504-90.672 73.672 109.09c-45.336-2.832-87.84-8.5-123.26-17zm164.34 19.836h-1.418l72.254-109.09 73.672 109.09c-48.172 2.832-97.758 2.832-144.51 0zm175.68-1.418 72.254-107.68 59.504 89.258c-2.832 0-5.668 1.418-9.918 1.418-35.418 7.082-77.922 12.75-121.84 17zm175.68-31.168 32.586-92.09v66.59c-1.418 4.25-2.832 9.918-11.336 15.586-4.25 2.832-12.75 7.082-21.25 9.918zm19.836-134.59-45.336 128.93-66.59-100.59c15.586-1.418 29.754-4.25 43.918-7.082 28.336-5.668 51.004-14.168 68.004-21.25zm-136.01 32.586-75.09 111.93-69.422-102.01c49.586-1.418 99.172-4.25 144.51-9.918zm148.76 113.34c-25.5 15.586-63.754 24.086-80.754 28.336-131.76 28.336-331.52 28.336-463.28 0-17-4.25-55.254-12.75-80.754-28.336v53.836c0 5.668 0 9.918 4.25 15.586 9.918 9.918 39.668 19.836 82.172 29.754 127.51 26.918 323.02 26.918 451.95 0 35.418-8.5 62.336-17 75.09-25.5 12.75-7.082 11.336-17 11.336-19.836v-53.836zm-624.79-182.76c12.75 11.336 69.422 29.754 86.422 32.586 127.51 28.336 323.02 28.336 451.95 0 15.586-2.832 72.254-19.836 86.422-32.586v-52.422c-18.418 11.336-46.754 19.836-80.754 28.336-131.76 28.336-331.52 28.336-463.28 0-34.004-8.5-62.336-17-80.754-28.336v52.422z"/>
  <path d="m449.11 335.77c8.5 28.336 52.422 46.754 70.84 19.836 17-26.918-17-60.922-45.336-58.086-198.35-140.26-185.6-128.93-409.45-286.19-31.168-21.25-63.754 28.336-34.004 48.172 114.76 77.922 300.36 199.77 417.95 276.27zm-408.03-290.44c-11.336-7.082 2.832-28.336 14.168-19.836l410.86 286.19c1.418 2.832 4.25 2.832 7.082 2.832 17-2.832 41.086 18.418 32.586 31.168-9.918 14.168-38.254-1.418-41.086-17-1.418-2.832-2.832-5.668-5.668-7.082z"/>
  <path d="m716.88 335.77c-8.5 28.336-52.422 46.754-70.84 19.836-17-26.918 15.586-60.922 45.336-58.086 198.35-140.26 185.6-128.93 409.45-286.19 31.168-21.25 63.754 28.336 34.004 48.172-114.76 77.922-300.36 199.77-417.95 276.27zm408.03-290.44c11.336-7.082-2.832-28.336-14.168-19.836l-410.86 286.19c-1.418 2.832-4.25 2.832-7.082 2.832-17-2.832-41.086 18.418-32.586 31.168 9.918 14.168 38.254-1.418 41.086-17 1.418-2.832 2.832-5.668 5.668-7.082z"/>
  <path d="m1178.8 796.22c-1.418-2.832-1.418-5.668-2.832-8.5h4.25v8.5z"/>
 </g>
</svg>
