<?xml version="1.0" encoding="UTF-8"?>
<svg width="1200pt" height="1200pt" version="1.1" viewBox="0 0 1200 1200" xmlns="http://www.w3.org/2000/svg">
 <g>
  <path d="m673.77 337.61c1.1289 3.7422 5.2578 14.258 2.6289 18.742-2.6289 4.4883-18 26.629-2.6289 25.129s32.629-8.2578 26.258-21c-6.3711-12.742-13.871-23.258-16.5-30.371-2.6289-7.1172-2.3984-13.871-2.3984-13.871s-8.4727-9.3711-12.973-8.6289c0 0-8.6289 7.5-7.1289 14.258 1.4961 6.7539 11.625 11.984 12.742 15.742z"/>
  <path d="m657.65 361.23c4.5-4.8711 11.629-26.258-3.7422-22.129 0 0-16.129 18.371-16.129 22.129s15.371 4.875 19.871 0z"/>
  <path d="m1085.4 568.75c-10.477-136.38-76.094-257.52-174.64-341.11-3.9375-3.3477-7.9453-6.625-12-9.8398-24.203-19.262-50.195-36.336-77.746-50.902-45.949-24.277-96.121-41.555-149.12-50.449-26.879-4.5117-54.457-6.9844-82.621-6.9844-32.426 0-64.105 3.2266-94.812 9.168-25.945 5.0273-51.215 11.988-75.562 20.891-13.621 4.9688-26.914 10.609-39.949 16.715-14.566 6.8164-28.754 14.328-42.516 22.477-1.2969 0.76953-2.6523 1.4883-3.9375 2.2695-8.3281 5.0391-16.477 10.344-24.48 15.852-3.0469 2.1016-6.0352 4.2617-9.0352 6.4336-22.094 15.91-42.898 33.516-62.074 52.754-89.758 90.082-145.36 214.25-145.36 351.18 0 0.99609 0.070313 1.9688 0.070313 2.9648 1.0195 172.51 90.254 324.42 224.76 412.99 16.906 11.137 34.535 21.266 52.789 30.301 66.406 32.891 141.12 51.48 220.12 51.48 274.45 0 497.75-223.29 497.75-497.75 0-12.938-0.66016-25.742-1.6328-38.438zm-24 0.8125c-2.6875-0.5625-5.0625-0.14453-6.7578 1.7891-6.9961 8.0039-28.992-0.49219-39.996-15.996-11.004-15.504-9.7422-28.754 6-19.008 10.164 6.2891 23.207 18.133 40.199 25.789 0.21875 2.4727 0.36328 4.957 0.55469 7.4258zm-40.953-158.29c-0.63672 1.2344-1.2461 2.1602-1.2969 2.3281-0.25391 0.74219-5.2578 3.9961-8.9414 8.0039-3.6836 4.0078 2.9414 10.5 9.6953 15.492 6.7578 4.9922 3.7422 16.5 10.754 24 7.0078 7.5 1.2461 27-4.2461 29.746-5.5078 2.7461-11.508-3-22.5-6.5039-11.016-3.5039-2.0039-28.992-2.5078-30.996-0.49219-2.0039-6.7422-11.004-12.254-18.254-5.5078-7.2461-0.74219-8.0039 0-16.246 0.74219-8.2422 22.246-18.254 22.246-18.254 1.7266-0.097656 3 0.035156 4.2461 0.19141 1.6719 3.4727 3.207 6.9883 4.8047 10.492zm-904.37 216.92c16.094 6.8047 34.188 8.7969 42.816 7.1641 15.742-3 10.5 9.7422 25.5 14.258 15 4.5117 27 19.5 45 38.258 18 18.758 37.246 10.008 37.246 10.008s-2.0039 20.004-7.0078 26.004c-4.9922 6-31.992-12-7.9922 69s60 68.988 67.992 74.988c8.0156 6 1.0078 80.004-1.9922 115-0.33594 3.9844-0.625 7.7773-0.85156 11.52-116.23-82.094-194.07-215.02-200.71-366.2zm473.21 452.74c-75.023 0-145.99-17.605-209.1-48.781 0.50391-0.82812 0.99609-1.6211 1.4531-2.293 8.0039-12 24-11.004 28.703-17.004s17.293-21.996 33.301-34.129c15.984-12.133 18-44.867 21-56.867s31.992-21 43.992-27.996c12-6.9961 8.0039-44.004 9-56.004 1.0078-12 23.004-30 27-47.004 4.0078-17.004-22.992-25.992-39-31.992-15.984-6-27.996-12-55.992-15-28.008-3-14.004-37.008-40.008-40.008-25.992-3-12.996-1.9922-25.992-13.992-13.008-12-16.008-17.004-36-17.785-20.016-0.78125-29.004-3.2148-40.008-7.2227-10.992-4.0078-31.992 15-31.992 15s-6.6953 6.3125-8.5664 6.875c-1.8711 0.5625-7.8711-2.6289-10.871-5.6289s-8.0625 6-12.371 4.5c-4.3086-1.5-8.8086-12.371-14.062-15.742-5.2578-3.3711 2.2578-15-2.6289-28.5-4.8828-13.5-21.742-2.2578-31.5-4.8711-9.7578-2.6172 6.3711-23.258 10.871-31.129 4.5-7.8711-5.6289-7.8711-14.258-7.1289s-13.129 19.129-26.629 17.629-17.629-6.7422-16.871-17.629c0.75781-10.883-10.871-13.5-0.74219-40.5 10.129-27 42.371-15.371 49.871-19.129 7.5-3.7578 19.5-3 35.258 1.5s12.742 21 13.5 27 6-21 4.5-37.5 24.742-18.742 36.742-29.258c12-10.512 19.5-33.742 25.5-43.5 6-9.7578 20.258-11.258 24-22.5 3.7422-11.242 21.562-14.809 24-16.691s6.1914 0.9375 3.7422 6.7422c-2.4492 5.8086 5.2578 4.6914 11.258 0 6-4.6914 27.996-17.555 23.746-21.059-4.2617-3.5039-6.2539 3.5039-10.754 2.5078s-8.2578-5.0039-10.246-9.7422c-2.0156-4.7539 3-6.5039-1.2461-12-4.2461-5.4961-8.7461-7.7539-3.2539-11.746 5.4961-3.9961 30.492 2.0039 40.992-0.50391 10.5-2.5078 12-4.5 11.508 0.50391-0.49219 5.0039-8.7461 16.992-11.746 20.746-3 3.7578 27.742 7.5 35.258 7.5 7.5117 0-2.2578-17.258-12-22.5-9.7422-5.2422 0.74219-22.5-2.2578-33.551-3-11.051-23.258-24.707-25.246-31.199-1.9922-6.4922-4.5-27-8.4961-34.008-3.9961-7.0078-7.5 4.0078-11.496 9-4.0078 4.9922-11.004 1.0078-13.5-1.9922-2.5078-3-2.5078-3.5039-3.5039-18-0.99609-14.496-27.996-27.504-38.004-28.008-9.9844-0.50391 2.5078 19.008-0.99609 26.508s-11.496 6-6.9961 21.996c4.5 15.996-17.004 30.996-24.504 36-7.5 5.0039 3.9961 32.004-5.4961 30.504-9.5156-1.5-14.004-16.5-16.5-23.508-2.5078-7.0078 6.4922-9.4922 5.4961-13.5-0.99609-4.0078-3.9961 0-9.5039-3.4922-5.4844-3.4922-5.4961-5.0039-13.5-7.5-7.9922-2.4961-3.9961-7.0078-8.4961-11.508s-12.996-4.5-17.496-4.5c-0.55078 0-0.97266-0.10938-1.2969-0.3125 23.281-25.934 49.43-49.234 77.867-69.527 1.5117-1.0781 3.0117-2.1719 4.5352-3.2383 20.375-14.195 41.867-26.902 64.402-37.812-0.64844 4.6445-2.375 8.6172-6.0117 9.8984-8.5078 3-4.0078 14.496-11.004 15.492-6.9961 0.99609-19.5 4.5-21.504 11.004-1.9922 6.5039 23.004 6.9961 27 6.5039 4.0078-0.49219 17.004 21.996 23.508 28.992 6.4922 6.9961 18-7.5 21-15.996 3-8.4961-10.5-26.496-10.008-31.5 0.51563-5.0039 18 11.496 18 11.496s11.004-11.496 14.004-15.492c3-3.9961-8.4961-11.508-15-18.504-6.5039-6.9961-6.5039-3-7.5-15.504-0.011719-0.16797 0-0.3125-0.011719-0.48047 25.223-9.9492 51.434-17.891 78.539-23.41 8.4727 7.3789 0.39453 34.129-7.0312 49.906-7.9922 16.992-3.9844 22.992-1.9922 28.992s25.008 79.992 39.492 63.996c14.508-15.996 30-68.508 45-69.504s17.004-14.508 30.504-18c13.5-3.4922 21.504 0.99609 35.496-9 10.668-7.6211 15.527-32.891 22.992-50.711 47.844 7.1055 93.383 21.324 135.48 41.664-3.0234 2.7734-6 5.8789-8.9648 9.5508-14.508 18-19.008 31.008-26.508 47.004-7.5 15.996-28.367 30.254-34.367 39.625-6 9.3711-6 38.258 3.3711 38.258 9.3711 0 22.871-12 24.742-9s13.129 26.258 21 24.742c7.8711-1.5117 22.871-33.371 20.258-47.629-2.6172-14.258-1.5-18 1.8711-22.129 3.3711-4.1289 1.8711-19.5 13.5-20.258 11.629-0.75781 22.129-10.129 13.5 5.6289-8.6289 15.758-11.629 18.742-8.6289 25.5s0 18.371 15.742 15.371c15.742-3 26.258-1.8711 26.258 0s-24 6.7422-29.629 20.258c-5.6289 13.512-5.6289 14.629-7.1289 22.871s-10.129 13.129-10.129 13.129l-44.258 7.1289s-9.3594-9.5039-14.375-6c-4.9922 3.5039-11.258 5.2422-18 9.9961s-21.254 17.258-24.254 23.508c-3 6.2539-10.5 12.254-22.5 15.254s-22.5 3.4922-17.258 6.9961c5.2422 3.5039 17.746 8.7617 17.746 19.008 0 10.246 3.4922 18.742-2.0039 20.258-5.4961 1.5117-32.004-3.4922-36.996 7.0078-5.0039 10.5-7.5 21.984-8.0039 30.492-0.50391 8.5078-1.5 16.512 15 16.008s27.504-3.5625 33-7.0312 3.9961-10.465 13.5-19.969 12.504-5.4961 12.996-13.5c0.50391-8.0039-1.5-16.5 4.5-15s11.508-5.5078 18-2.5078c6.5039 3 10.5-7.5 20.508 3.5039 9.9961 11.004 21.492 18.012 24.492 24.504 3 6.4922 13.5 10.5 10.008 18.996-3.5039 8.4961 10.5-15.254 9.7422-21.996-0.75781-6.7422-14.258-16.5-16.008-19.246-1.7539-2.7461-10.754-17.746-0.49219-14.258 10.246 3.5039 25.246 17.746 25.992 23.258 0.74219 5.5078 7.7539 24 13.754 31.5s14.258 10.246 15 9.9961c0.74219-0.25391-4.2461-18-0.50391-25.754s12.254-11.004 15.742-9c3.4922 2.0039 3.9961 5.4961 8.0039 3 3.9961-2.4961 9.2539-5.0039 8.4961-12.504-0.75781-7.5 1.4883-16.754 3.5039-21 1.9922-4.2461 8.7461-18 12.492-12.254 3.7422 5.7461 7.7539 12.742 13.5 12.996 5.7461 0.25391 4.7539-6.7422 18.504-1.7539 13.754 4.9922 41.004 14.508 32.258 22.246s-14.746 13.992-22.754 10.754c-8.0039-3.2539-16.754-9.2539-26.508-7.2461-9.7578 2.0039-43.992 5.4961-42.996 18 0.99609 12.504 12.504 31.5 32.004 26.004 19.5-5.4961 25.754-4.2461 27.996 0 2.2422 4.2461 4.5117 32.004-17.746 35.258 0 0-67.992-10.992-75-12.996-12.996-2.0039-6 15-6 18.996s-55.992-10.32-55.992-19.164 21-32.832-37.008-23.832c-57.996 9-73.992 20.375-88.992 43.691-15 23.316-51 31.309-49.008 74.305 2.0039 42.996-7.9922 47.004 17.004 69.996 24.996 22.992 24.996 42.984 96 22.992 71.004-19.992 27.996-1.5977 35.004 8.207 6.9961 9.793 19.992 0.79297 21.996 9.793s-14.004 27 2.0039 45c15.996 18 24.996 63 15.996 75s11.004 38.004 8.0039 64.008 19.5 29.004 23.496 48.504 14.496 36.996 63.504 12c48.996-24.996 24-48.504 37.5-54.504s5.5078-33.492 22.5-43.992c16.992-10.5 39-16.008 25.992-66.012-12.996-50.004 13.008-49.992 34.008-71.496s52.992-68.004 34.5-63.504c-18.504 4.5-33 16.512-52.5-9.4922s-76.008-112.5-56.004-102 67.5 69 67.5 100.5c0 0 14.496 5.0039 49.5-21 10.754-7.9805 19.715-13.883 27.168-18.77-4.7188 257.11-215.22 464.83-473.46 464.83z"/>
 </g>
</svg>
