<?xml version="1.0" encoding="UTF-8"?>
<svg width="1200pt" height="1200pt" version="1.1" viewBox="0 0 1200 1200" xmlns="http://www.w3.org/2000/svg">
 <g>
  <path d="m985.08 918-65.641-84-38.039-66c-3.8789-3.9922-9.9922-4.7891-14.766-1.9297-4.7773 2.8594-6.957 8.625-5.2734 13.93l32.762 56.039-20.762 12-202.56-346.92 20.762-12 142.44 243.84c3.8789 3.9883 9.9922 4.7891 14.77 1.9297 4.7734-2.8594 6.957-8.625 5.2695-13.93l-148.32-252.96c-3.3516-5.3477-10.277-7.1836-15.84-4.1992l-40.68 24c-5.3047 3.3906-7.0859 10.305-4.0781 15.84l213.72 365.28 41.16 98.52c1.3906 2.9961 3.957 5.2852 7.0898 6.3281 3.1328 1.0469 6.5586 0.75391 9.4688-0.80859l64.922-37.922c2.8047-1.7227 4.7812-4.5234 5.4609-7.7461 0.68359-3.2227 0.007813-6.582-1.8633-9.293zm-68.641 28.441-32.641-77.879 23.16-13.559 51.84 66.719z"/>
  <path d="m747.24 759.72-202.8-347.04c-4.6758-8.0195-11.07-14.902-18.723-20.16v-59.039c-1.418-5.2266-6.1641-8.8516-11.578-8.8516-5.418 0-10.16 3.625-11.582 8.8516v218.52c0 6.6289-5.3711 12-12 12-6.625 0-12-5.3711-12-12v-293.16c0-6.6289 5.375-12 12-12 6.6289 0 12 5.3711 12 12v23.281c1.4219 5.2266 6.1641 8.8516 11.582 8.8516 5.4141 0 10.16-3.625 11.578-8.8516v-23.281c0-44.52-70.199-44.398-70.199 0v133.68c-7.6797 5.2227-14.082 12.113-18.719 20.16l-90.84 156c-1.582 5.2539 0.59766 10.906 5.2969 13.738 4.6992 2.832 10.719 2.1133 14.621-1.7383l90.121-154.32v69l-166.8 300.72c-4.7422 8.8398-4.5234 19.516 0.58203 28.152 5.1016 8.6367 14.348 13.98 24.379 14.09h321.84c6.2266 0.50391 11.781 4.1211 14.758 9.6133 2.9805 5.4922 2.9805 12.121 0 17.613-2.9766 5.4922-8.5312 9.1094-14.758 9.6133h-374.4c-13.949-0.29297-26.719-7.9023-33.609-20.035-6.8906-12.133-6.8867-26.996 0.007812-39.125l111.6-190.92c1.5781-5.25-0.60156-10.906-5.3008-13.734-4.6992-2.832-10.719-2.1172-14.621 1.7344l-111.84 190.92c-10.93 19.316-10.867 42.965 0.16406 62.227 11.035 19.258 31.402 31.273 53.598 31.613h374.4c14.832 0 28.539-7.9141 35.957-20.762 7.418-12.844 7.418-28.672 0-41.52-7.418-12.844-21.125-20.758-35.957-20.758h-321.84c-1.8984 0.007813-3.6602-0.98047-4.6406-2.6016-0.98438-1.6211-1.043-3.6406-0.16016-5.3203l146.64-263.76v8.8789c-0.56641 9.6641 2.8789 19.137 9.5234 26.18 6.6406 7.043 15.895 11.035 25.578 11.035 9.6797 0 18.934-3.9922 25.574-11.035 6.6445-7.043 10.09-16.516 9.5234-26.18v-9.2383l143.64 261.24c28.082 50.281 106.68 5.7617 77.398-44.281zm-19.922 33.121h0.003906c-3.8711 6.6367-10.977 10.719-18.66 10.719s-14.789-4.082-18.66-10.719l-164.28-297.48v-69l201.6 345c5.2812 2.6406 1.0781 19.562 0 21.48z"/>
 </g>
</svg>
