<?xml version="1.0" encoding="UTF-8"?>
<svg width="1200pt" height="1200pt" version="1.1" viewBox="0 0 1200 1200" xmlns="http://www.w3.org/2000/svg">
 <path d="m1060.4 300.96h-339.84l151.2-151.2c15.863-15.863 22.059-38.984 16.25-60.652-5.8047-21.668-22.73-38.594-44.398-44.402-21.668-5.8047-44.789 0.39062-60.652 16.254l-183 183-183-183c-15.863-15.863-38.984-22.059-60.652-16.254-21.668 5.8086-38.594 22.734-44.398 44.402-5.8086 21.668 0.38672 44.789 16.25 60.652l151.8 151.2h-340.44c-37.012 0-72.512 14.703-98.684 40.875-26.172 26.172-40.875 61.672-40.875 98.684v577.32c0 37.023 14.699 72.535 40.867 98.727 26.172 26.191 61.668 40.922 98.691 40.953h920.88c37.023-0.03125 72.52-14.762 98.691-40.953 26.168-26.191 40.867-61.703 40.867-98.727v-577.32c0-37.012-14.703-72.512-40.875-98.684-26.172-26.172-61.672-40.875-98.684-40.875zm-82.562 623.04c0.066406 27.117-10.621 53.156-29.719 72.406-19.094 19.254-45.043 30.156-72.16 30.312h-648c-27.23 0-53.348-10.824-72.59-30.094-19.246-19.266-30.043-45.395-30.012-72.625v-390c0.16016-27.105 11.039-53.051 30.266-72.16 19.223-19.113 45.227-29.84 72.336-29.84h648c27.074 0.09375 53.012 10.902 72.148 30.059 19.133 19.156 29.91 45.105 29.973 72.18zm99.238 15.359h0.003906c-13.941 0-27.309-5.5352-37.168-15.395-9.8555-9.8555-15.395-23.227-15.395-37.164 0-13.941 5.5391-27.309 15.395-37.168 9.8594-9.8555 23.227-15.395 37.168-15.395 13.938 0 27.309 5.5391 37.164 15.395 9.8555 9.8594 15.395 23.227 15.395 37.168 0.12891 14.023-5.3516 27.516-15.223 37.477-9.8711 9.9609-23.312 15.562-37.336 15.562zm0-167.04h0.003906c-13.953 0-27.336-5.5508-37.195-15.422-9.8594-9.875-15.387-23.266-15.363-37.219 0.019531-13.953 5.5898-27.324 15.477-37.172 9.8906-9.8438 23.289-15.352 37.242-15.309s27.316 5.6328 37.145 15.535c9.832 9.9062 15.316 23.312 15.254 37.266 0.0625 13.98-5.4453 27.41-15.309 37.32-9.8633 9.9102-23.27 15.48-37.25 15.48zm0-173.16h0.003906c-13.941 0-27.309-5.5391-37.168-15.395-9.8555-9.8555-15.395-23.227-15.395-37.164 0-13.941 5.5391-27.309 15.395-37.168 9.8594-9.8555 23.227-15.395 37.168-15.395 13.938 0 27.309 5.5391 37.164 15.395 9.8555 9.8594 15.395 23.227 15.395 37.168 0.22656 14.082-5.2109 27.668-15.094 37.707-9.8828 10.039-23.379 15.691-37.465 15.691z"/>
</svg>
