<?xml version="1.0" encoding="UTF-8"?>
<svg width="1200pt" height="1200pt" version="1.1" viewBox="0 0 1200 1200" xmlns="http://www.w3.org/2000/svg">
 <g>
  <path d="m614.94 600c0 8.3281-6.75 15.078-15.078 15.078s-15.082-6.75-15.082-15.078 6.7539-15.082 15.082-15.082 15.078 6.7539 15.078 15.082"/>
  <path d="m600 222.38c-208.23 0-377.62 169.4-377.62 377.62s169.4 377.62 377.62 377.62 377.62-169.41 377.62-377.62c0-208.21-169.39-377.62-377.62-377.62zm-78.285 51.598 52.727 175.26c-8.5234 0.33203-6.5391 0.34766-14.832 2.1758l-74.441-166.09c14.734-7.0664 21.336-8.6914 36.547-11.344zm-187.64 118.01c27.309-35.453 61.133-63.684 98.867-84.105l96.957 154c-20.918 9.8359-39.34 25.004-53.547 44.785zm265.92 328.46c-66.422 0-120.45-54.031-120.45-120.45s54.035-120.45 120.45-120.45c66.422 0 120.45 54.031 120.45 120.45 0 66.426-54.031 120.45-120.45 120.45z"/>
 </g>
</svg>
